<svg width="86" height="51" viewBox="0 0 86 51" fill="none" xmlns="http://www.w3.org/2000/svg">
<path d="M61.1177 6.02344C61.1177 6.02344 61.1177 6.02002 61.1177 6.01832C62.6453 4.2043 63.4916 3.04954 63.555 2.96255C64.1626 2.12845 63.9769 0.961751 63.1399 0.356225C62.303 -0.249301 61.1322 -0.0642317 60.5246 0.769859C56.9415 5.68571 51.2505 11.5218 44.9887 16.4598C44.5796 16.7822 44.2031 17.1361 43.8608 17.5173V13.613C43.8608 8.07967 39.3593 3.59366 33.807 3.59366H10.0538C4.50144 3.59451 0 8.08052 0 13.6138V37.2865C0 42.8198 4.50144 47.3058 10.0538 47.3058H33.8078C39.3602 47.3058 43.8616 42.8198 43.8616 37.2865V33.4529C44.2108 33.8418 44.595 34.2034 45.0118 34.5326C51.5543 39.6958 57.1871 45.6615 60.5255 50.2302C61.1297 51.0601 62.3004 51.252 63.1408 50.6439C63.9777 50.0383 64.1634 48.8716 63.5558 48.0376C63.4925 47.9506 62.6461 46.7958 61.1185 44.9818C61.1177 44.9801 61.1168 44.9784 61.1185 44.9767C64.1617 39.5303 65.1964 31.7549 65.1964 25.4992C65.1964 19.2393 64.16 11.4663 61.1185 6.02258L61.1177 6.02344ZM9.20655 15.5362H9.20227C8.31225 15.5362 7.59082 14.8172 7.59082 13.9302C7.59082 13.0433 8.31225 12.3243 9.20227 12.3243C10.0923 12.3243 10.8163 13.0433 10.8163 13.9302C10.8163 14.8172 10.0966 15.5362 9.20655 15.5362ZM26.2153 15.5831H17.0789C16.194 15.5831 15.476 14.8675 15.476 13.9857C15.476 13.1038 16.194 12.3883 17.0789 12.3883H26.2153C27.1002 12.3883 27.8182 13.1038 27.8182 13.9857C27.8182 14.8675 27.1002 15.5831 26.2153 15.5831ZM58.4673 41.961C58.4673 41.961 58.463 41.9644 58.4605 41.9618C54.1807 37.2967 49.2009 32.7664 43.8616 28.9823V22.0187C49.1915 18.2414 54.1687 13.7162 58.4605 9.03913C58.4622 9.03742 58.4656 9.03742 58.4673 9.03998C59.4027 11.0433 60.1429 13.5072 60.653 16.2705C60.653 16.273 60.6521 16.2747 60.6496 16.2756C56.1456 16.9476 52.6805 20.8281 52.6805 25.5009C52.6805 30.1737 56.1456 34.0542 60.6496 34.7262C60.6521 34.7262 60.653 34.7288 60.653 34.7313C60.1438 37.4946 59.4035 39.9585 58.4673 41.9618V41.961ZM61.1716 31.0308C58.4853 30.6138 56.4237 28.2923 56.4237 25.5001C56.4237 22.7078 58.4853 20.3872 61.1716 19.9693C61.1742 19.9693 61.1759 19.9701 61.1759 19.9727C61.3564 21.7449 62.6898 23.5982 62.6898 25.4992C62.6898 27.4002 61.3564 29.2535 61.1759 31.0265C61.1759 31.0291 61.1733 31.0308 61.1716 31.03V31.0308ZM85.9321 36.1675C85.7147 36.7833 85.0369 37.1099 84.4148 36.8916L73.1543 32.9403C72.5347 32.7229 72.2095 32.0457 72.4278 31.4282C72.646 30.8108 73.3255 30.4858 73.9451 30.7042L85.2055 34.6554C85.8251 34.8729 86.1503 35.5501 85.9321 36.1675ZM72.4278 19.5719C72.2095 18.9544 72.5347 18.2772 73.1543 18.0598L84.4148 14.1085C85.0343 13.891 85.7138 14.2151 85.9321 14.8326C86.1503 15.45 85.8251 16.1272 85.2055 16.3447L73.9451 20.2959C73.3255 20.5134 72.646 20.1885 72.4278 19.5719ZM84.8101 24.3146C85.4854 24.3146 86.0288 24.8749 85.9988 25.5538C85.9706 26.1934 85.416 26.6855 84.7733 26.6855H73.5506C72.8753 26.6855 72.3319 26.1252 72.3619 25.4463C72.3901 24.8067 72.9447 24.3146 73.5873 24.3146H84.8101Z" fill="url(#paint0_linear_89_157)"/>
<defs>
<linearGradient id="paint0_linear_89_157" x1="0" y1="25.5" x2="86" y2="25.5" gradientUnits="userSpaceOnUse">
<stop stop-color="#F15025"/>
<stop offset="1" stop-color="#FF8630"/>
</linearGradient>
</defs>
</svg>
