<svg width="1545" height="820" viewBox="0 0 1545 820" fill="none" xmlns="http://www.w3.org/2000/svg">
<path d="M7.61 655.368L0.3 631.528C0.1 630.978 0 630.248 0 629.338C0 626.598 1.42 625.228 4.26 625.228H31.66C35.51 625.228 37.75 626.418 38.36 628.788C39.17 631.168 40.44 635.188 42.17 640.848C43.89 646.508 45.26 651.258 46.28 655.098C46.48 655.648 46.58 656.378 46.58 657.288C46.58 659.668 44.65 660.848 40.8 660.848H16.14C11.47 660.848 8.63 659.028 7.62 655.368H7.61ZM57.54 816.618C56.52 816.168 55.81 815.208 55.41 813.738L32.27 737.298C32.07 736.748 31.97 735.928 31.97 734.828C31.97 732.458 33.59 731.268 36.84 731.268H62.72C65.76 731.268 67.79 731.768 68.81 732.778C69.82 733.788 70.64 735.198 71.25 737.028L78.56 761.138C79.57 764.058 80.39 765.518 81 765.518C81.61 765.518 82.32 763.968 83.13 760.858C87.8 745.148 94.59 722.498 103.53 692.908C112.46 663.318 118.95 642.038 123.01 629.068C123.41 627.608 124.18 626.598 125.29 626.058C126.4 625.508 127.88 625.238 129.7 625.238H157.4C158.82 625.238 159.94 625.878 160.75 627.158C161.56 628.438 161.76 629.898 161.36 631.538L105.95 813.738C105.34 816.118 103.11 817.298 99.25 817.298H62.11C60.08 817.298 58.56 817.068 57.54 816.618ZM187.68 815.788C186.56 814.788 186.01 813.648 186.01 812.368V630.438C186.01 628.978 186.62 627.748 187.84 626.738C189.06 625.738 190.38 625.228 191.8 625.228H222.24C223.66 625.228 224.93 625.728 226.05 626.738C227.16 627.748 227.72 628.978 227.72 630.438V812.368C227.72 813.648 227.21 814.788 226.2 815.788C225.18 816.798 223.86 817.298 222.24 817.298H191.8C190.17 817.298 188.8 816.798 187.69 815.788H187.68ZM294.99 806.618C278.55 797.848 265.51 785.928 255.87 770.858C246.23 755.788 241.41 739.308 241.41 721.398C241.41 703.488 246.23 687.288 255.87 672.218C265.51 657.148 278.55 645.188 294.99 636.328C311.43 627.468 329.39 623.038 348.87 623.038C364.5 623.038 379.16 625.868 392.86 631.528C406.56 637.188 418.38 644.958 428.33 654.818C429.14 655.548 429.55 656.458 429.55 657.558C429.55 658.838 429.04 659.848 428.03 660.568L406.11 677.558C405.09 678.478 403.98 678.928 402.76 678.928C401.54 678.928 400.52 678.478 399.72 677.558C393.22 671.168 385.56 666.188 376.74 662.628C367.91 659.068 358.63 657.288 348.88 657.288C336.29 657.288 324.68 660.168 314.02 665.918C303.36 671.668 294.89 679.478 288.6 689.348C282.31 699.208 279.16 709.898 279.16 721.408C279.16 732.918 282.3 743.598 288.6 753.468C294.89 763.328 303.36 771.138 314.02 776.898C324.68 782.648 336.29 785.528 348.88 785.528C358.21 785.528 367.04 783.928 375.37 780.738C383.69 777.548 391.1 773.028 397.59 767.178C399.42 765.718 401.34 764.988 403.37 764.988C405.2 764.988 406.61 765.448 407.63 766.358L413.41 770.738L425.59 780.598C427.62 781.878 428.63 783.608 428.63 785.808C428.63 787.088 428.12 788.188 427.11 789.098C417.16 798.778 405.44 806.318 391.95 811.698C378.45 817.088 364.09 819.778 348.87 819.778C329.39 819.778 311.42 815.398 294.99 806.628V806.618ZM465.47 813.188V665.238C465.47 663.418 464.76 661.908 463.34 660.718C461.92 659.528 460.19 658.938 458.16 658.938H440.81C439.79 658.938 438.88 658.578 438.07 657.838C437.26 657.108 436.85 656.198 436.85 655.098V629.618C436.85 628.518 437.25 627.608 438.07 626.878C438.88 626.148 439.79 625.778 440.81 625.778H573.85C574.86 625.778 575.78 626.148 576.59 626.878C577.4 627.608 577.81 628.518 577.81 629.618V655.098C577.81 656.198 577.4 657.108 576.59 657.838C575.78 658.568 574.86 658.938 573.85 658.938H516.92C514.89 658.938 513.16 659.578 511.74 660.858C510.32 662.138 509.61 663.598 509.61 665.238V813.188C509.61 814.288 509.2 815.148 508.39 815.788C507.58 816.428 506.66 816.748 505.65 816.748H469.42C466.78 816.748 465.46 815.558 465.46 813.188H465.47ZM601.71 815.788C600.59 814.788 600.04 813.648 600.04 812.368V630.438C600.04 628.978 600.65 627.748 601.87 626.738C603.09 625.738 604.41 625.228 605.83 625.228H636.27C637.69 625.228 638.96 625.728 640.08 626.738C641.19 627.748 641.75 628.978 641.75 630.438V812.368C641.75 813.648 641.24 814.788 640.23 815.788C639.21 816.798 637.89 817.298 636.27 817.298H605.83C604.2 817.298 602.83 816.798 601.72 815.788H601.71ZM794.87 814.008C786.95 802.868 774.02 784.788 756.05 759.758C738.09 734.738 724.54 715.648 715.41 702.498C714.19 701.218 713.38 700.578 712.97 700.578C712.56 700.578 712.31 700.948 712.21 701.678C712.11 702.408 712.06 702.958 712.06 703.318L712.67 735.648C712.67 736.928 712.16 738.068 711.15 739.068C710.13 740.078 708.81 740.578 707.19 740.578H677.66C676.03 740.578 674.66 740.128 673.55 739.208C672.43 738.298 671.88 737.108 671.88 735.648V630.988C671.88 629.528 672.44 628.298 673.55 627.288C674.66 626.288 676.03 625.778 677.66 625.778H707.49C708.91 625.778 710.13 626.328 711.14 627.418L784.81 737.838C786.64 740.948 788.16 742.498 789.38 742.498C790.39 742.498 790.9 740.948 790.9 737.838L790.6 630.978C790.6 629.518 791.16 628.288 792.27 627.278C793.38 626.278 794.65 625.768 796.07 625.768H828.34C829.96 625.768 831.33 626.278 832.45 627.278C833.56 628.288 834.12 629.518 834.12 630.978V811.808C834.12 813.268 833.56 814.458 832.45 815.368C831.33 816.288 829.96 816.738 828.34 816.738H799.72C798.09 816.738 796.47 815.828 794.85 813.998L794.87 814.008ZM977.52 806.618C961.08 797.848 948.04 785.928 938.4 770.858C928.76 755.788 923.94 739.308 923.94 721.398C923.94 703.488 928.76 687.288 938.4 672.218C948.04 657.148 961.08 645.188 977.52 636.328C993.96 627.468 1011.92 623.038 1031.4 623.038C1047.03 623.038 1061.69 625.868 1075.39 631.528C1089.09 637.188 1100.91 644.958 1110.86 654.818C1111.67 655.548 1112.08 656.458 1112.08 657.558C1112.08 658.838 1111.57 659.848 1110.56 660.568L1088.64 677.558C1087.62 678.478 1086.51 678.928 1085.29 678.928C1084.07 678.928 1083.05 678.478 1082.25 677.558C1075.75 671.168 1068.09 666.188 1059.27 662.628C1050.44 659.068 1041.16 657.288 1031.41 657.288C1018.82 657.288 1007.21 660.168 996.55 665.918C985.9 671.668 977.42 679.478 971.13 689.348C964.84 699.208 961.69 709.898 961.69 721.408C961.69 732.918 964.83 743.598 971.13 753.468C977.42 763.328 985.9 771.138 996.55 776.898C1007.21 782.648 1018.82 785.528 1031.41 785.528C1040.74 785.528 1049.57 783.928 1057.9 780.738C1066.22 777.548 1073.63 773.028 1080.12 767.178C1081.95 765.718 1083.87 764.988 1085.9 764.988C1087.73 764.988 1089.14 765.448 1090.16 766.358L1095.94 770.738L1108.12 780.598C1110.15 781.878 1111.16 783.608 1111.16 785.808C1111.16 787.088 1110.65 788.188 1109.64 789.098C1099.69 798.778 1087.97 806.318 1074.48 811.698C1060.98 817.088 1046.62 819.778 1031.4 819.778C1011.92 819.778 993.95 815.398 977.52 806.628V806.618ZM1138.41 815.788C1137.29 814.788 1136.74 813.648 1136.74 812.368V630.438C1136.74 628.978 1137.35 627.748 1138.57 626.738C1139.79 625.738 1141.11 625.228 1142.53 625.228H1172.97C1174.39 625.228 1175.66 625.728 1176.77 626.738C1177.88 627.748 1178.44 628.978 1178.44 630.438V812.368C1178.44 813.648 1177.93 814.788 1176.92 815.788C1175.9 816.798 1174.58 817.298 1172.96 817.298H1142.52C1140.89 817.298 1139.52 816.798 1138.41 815.788ZM1331.57 814.008C1323.65 802.868 1310.72 784.788 1292.75 759.758C1274.79 734.738 1261.24 715.648 1252.11 702.498C1250.89 701.218 1250.08 700.578 1249.67 700.578C1249.26 700.578 1249.01 700.948 1248.91 701.678C1248.81 702.408 1248.76 702.958 1248.76 703.318L1249.37 735.648C1249.37 736.928 1248.86 738.068 1247.85 739.068C1246.83 740.078 1245.51 740.578 1243.89 740.578H1214.36C1212.73 740.578 1211.36 740.128 1210.25 739.208C1209.13 738.298 1208.58 737.108 1208.58 735.648V630.988C1208.58 629.528 1209.14 628.298 1210.25 627.288C1211.36 626.288 1212.73 625.778 1214.36 625.778H1244.19C1245.61 625.778 1246.83 626.328 1247.84 627.418L1321.51 737.838C1323.34 740.948 1324.86 742.498 1326.08 742.498C1327.09 742.498 1327.6 740.948 1327.6 737.838L1327.3 630.978C1327.3 629.518 1327.86 628.288 1328.97 627.278C1330.08 626.278 1331.35 625.768 1332.77 625.768H1365.04C1366.66 625.768 1368.03 626.278 1369.15 627.278C1370.26 628.288 1370.82 629.518 1370.82 630.978V811.808C1370.82 813.268 1370.26 814.458 1369.15 815.368C1368.03 816.288 1366.66 816.738 1365.04 816.738H1336.42C1334.79 816.738 1333.17 815.828 1331.55 813.998L1331.57 814.008ZM1393.52 657.698C1392.4 656.698 1391.85 655.468 1391.85 653.998V630.438C1391.85 628.978 1392.41 627.788 1393.52 626.878C1394.63 625.968 1395.9 625.508 1397.33 625.508H1538.59C1540.21 625.508 1541.58 626.018 1542.7 627.018C1543.81 628.028 1544.37 629.168 1544.37 630.438V653.998C1544.37 655.278 1543.81 656.468 1542.7 657.558C1541.58 658.658 1540.21 659.198 1538.59 659.198H1397.33C1395.91 659.198 1394.64 658.698 1393.52 657.688V657.698ZM1393.52 815.788C1392.4 814.788 1391.85 813.648 1391.85 812.368V685.788C1391.85 684.328 1392.41 683.138 1393.52 682.228C1394.63 681.318 1395.9 680.858 1397.33 680.858H1423.21C1424.83 680.858 1426.15 681.318 1427.17 682.228C1428.18 683.148 1428.69 684.328 1428.69 685.788V705.518C1428.69 708.988 1431.33 710.728 1436.6 710.728H1513.32C1514.74 710.728 1515.96 711.138 1516.97 711.958C1517.98 712.778 1518.49 713.838 1518.49 715.108V738.668C1518.49 739.948 1517.98 740.998 1516.97 741.818C1515.95 742.638 1514.73 743.048 1513.32 743.048H1435.69C1431.02 743.048 1428.69 744.968 1428.69 748.798V778.658C1428.69 779.938 1429.3 781.128 1430.52 782.218C1431.74 783.318 1433.06 783.858 1434.48 783.858H1539.2C1540.82 783.858 1542.14 784.318 1543.16 785.228C1544.17 786.148 1544.68 787.328 1544.68 788.788V812.348C1544.68 813.628 1544.17 814.768 1543.16 815.768C1542.14 816.778 1540.82 817.278 1539.2 817.278H1397.33C1395.91 817.278 1394.64 816.778 1393.52 815.768V815.788Z" fill="#191919"/>
<path d="M938.41 55.3878C938.41 55.3878 938.41 55.3578 938.41 55.3478C952.41 38.6678 960.17 28.0378 960.75 27.2478C966.32 19.5778 964.62 8.84776 956.95 3.27776C949.28 -2.29224 938.55 -0.592239 932.98 7.07776C900.14 52.2978 847.97 105.968 790.57 151.388C786.82 154.358 783.37 157.608 780.23 161.118V125.208C780.23 74.3178 738.97 33.0578 688.08 33.0578H470.34C419.45 33.0578 378.19 74.3178 378.19 125.208V342.948C378.19 393.838 419.45 435.098 470.34 435.098H688.08C738.97 435.098 780.23 393.838 780.23 342.948V307.688C783.43 311.268 786.95 314.598 790.77 317.618C850.74 365.108 902.37 419.978 932.97 461.998C938.51 469.628 949.24 471.398 956.94 465.798C964.61 460.228 966.31 449.498 960.74 441.828C960.16 441.028 952.4 430.408 938.4 413.728C938.39 413.718 938.39 413.698 938.4 413.688C966.29 363.588 975.78 292.078 975.78 234.548C975.78 176.968 966.28 105.478 938.4 55.4078L938.41 55.3878ZM462.58 142.888H462.54C454.38 142.888 447.77 136.268 447.77 128.118C447.77 119.968 454.39 113.348 462.54 113.348C470.69 113.348 477.33 119.968 477.33 128.118C477.33 136.268 470.73 142.888 462.58 142.888ZM618.49 143.318H534.75C526.64 143.318 520.06 136.738 520.06 128.628C520.06 120.518 526.64 113.938 534.75 113.938H618.49C626.6 113.938 633.18 120.518 633.18 128.628C633.18 136.738 626.6 143.318 618.49 143.318ZM914.11 385.928C914.11 385.928 914.07 385.958 914.05 385.928C874.82 343.018 829.18 301.358 780.24 266.548V202.498C829.1 167.748 874.72 126.128 914.05 83.1178C914.07 83.0978 914.1 83.1078 914.11 83.1178C922.69 101.548 929.47 124.208 934.14 149.618C934.14 149.638 934.13 149.658 934.11 149.658C892.83 155.838 861.06 191.528 861.06 234.508C861.06 277.488 892.82 313.178 934.11 319.358C934.13 319.358 934.15 319.378 934.14 319.398C929.47 344.818 922.69 367.468 914.11 385.898V385.928ZM938.9 285.398C914.28 281.558 895.38 260.208 895.38 234.528C895.38 208.848 914.28 187.498 938.9 183.658C938.92 183.658 938.94 183.668 938.94 183.688C940.6 199.988 952.82 217.028 952.82 234.518C952.82 252.008 940.6 269.048 938.94 285.348C938.94 285.368 938.92 285.388 938.9 285.378V285.398ZM1165.86 332.648C1163.87 338.308 1157.65 341.318 1151.96 339.308L1048.75 302.968C1043.07 300.968 1040.09 294.738 1042.09 289.058C1044.09 283.378 1050.32 280.398 1056 282.398L1159.21 318.738C1164.89 320.738 1167.87 326.968 1165.87 332.648H1165.86ZM1042.07 180.008C1040.07 174.328 1043.05 168.098 1048.73 166.098L1151.94 129.758C1157.62 127.758 1163.85 130.738 1165.85 136.418C1167.85 142.098 1164.87 148.328 1159.19 150.328L1055.98 186.668C1050.3 188.668 1044.07 185.678 1042.07 180.008ZM1155.57 223.628C1161.76 223.628 1166.74 228.778 1166.46 235.028C1166.2 240.908 1161.12 245.438 1155.23 245.438H1052.36C1046.17 245.438 1041.19 240.288 1041.47 234.038C1041.73 228.158 1046.81 223.628 1052.7 223.628H1155.57Z" fill="#191919"/>
</svg>
