<svg width="160" height="269" viewBox="0 0 160 269" fill="none" xmlns="http://www.w3.org/2000/svg">
<path d="M0.793213 203.873C3.34319 196.633 11.2828 192.833 18.5227 195.383L150.103 241.713C157.343 244.263 161.143 252.203 158.593 259.443C156.053 266.653 148.123 270.493 140.863 267.933L9.28345 221.603C2.04352 219.053 -1.75664 211.113 0.793213 203.873ZM145.483 120.463C153.373 120.463 159.723 127.034 159.373 134.994C159.043 142.493 152.563 148.263 145.053 148.263H13.9133C6.02333 148.263 -0.327295 141.693 0.0227051 133.733C0.352865 126.233 6.83312 120.463 14.343 120.463H145.483ZM140.863 0.793335C148.103 -1.75666 156.043 2.04357 158.593 9.28357C161.143 16.5235 157.343 24.4631 150.103 27.0131L18.5227 73.3431H18.5334C11.2834 75.9031 3.35298 72.0929 0.802979 64.8529C-1.74689 57.613 2.05327 49.6734 9.29321 47.1234L140.863 0.793335Z" fill="#191919"/>
</svg>
