<svg width="1005" height="598" viewBox="0 0 1005 598" fill="none" xmlns="http://www.w3.org/2000/svg">
<path d="M714.17 70.6269C714.17 70.6269 714.17 70.5869 714.17 70.5669C732.02 49.2969 741.91 35.7569 742.65 34.7369C749.75 24.9569 747.58 11.2769 737.8 4.17686C728.02 -2.92314 714.34 -0.753139 707.24 9.02686C665.37 66.6669 598.87 135.097 525.7 192.997C520.92 196.777 516.52 200.927 512.52 205.397V159.617C512.52 94.7369 459.92 42.1369 395.04 42.1369H117.48C52.6 42.1469 0 94.7469 0 159.627V437.197C0 502.077 52.6 554.677 117.48 554.677H395.05C459.93 554.677 512.53 502.077 512.53 437.197V392.247C516.61 396.807 521.1 401.047 525.97 404.907C602.42 465.447 668.24 535.397 707.25 588.967C714.31 598.697 727.99 600.947 737.81 593.817C747.59 586.717 749.76 573.037 742.66 563.257C741.92 562.237 732.03 548.697 714.18 527.427C714.17 527.407 714.16 527.387 714.18 527.367C749.74 463.507 761.83 372.337 761.83 298.987C761.83 225.587 749.72 134.447 714.18 70.6169L714.17 70.6269ZM107.58 182.167H107.53C97.13 182.167 88.7 173.737 88.7 163.337C88.7 152.937 97.13 144.507 107.53 144.507C117.93 144.507 126.39 152.937 126.39 163.337C126.39 173.737 117.98 182.167 107.58 182.167ZM306.33 182.717H199.57C189.23 182.717 180.84 174.327 180.84 163.987C180.84 153.647 189.23 145.257 199.57 145.257H306.33C316.67 145.257 325.06 153.647 325.06 163.987C325.06 174.327 316.67 182.717 306.33 182.717ZM683.2 492.007C683.2 492.007 683.15 492.047 683.12 492.017C633.11 437.317 574.92 384.197 512.53 339.827V258.177C574.81 213.887 632.97 160.827 683.12 105.987C683.14 105.967 683.18 105.967 683.2 105.997C694.13 129.487 702.78 158.377 708.74 190.777C708.74 190.807 708.73 190.827 708.7 190.837C656.07 198.717 615.58 244.217 615.58 299.007C615.58 353.797 656.07 399.297 708.7 407.177C708.73 407.177 708.74 407.207 708.74 407.237C702.79 439.637 694.14 468.527 683.2 492.017V492.007ZM714.8 363.847C683.41 358.957 659.32 331.737 659.32 298.997C659.32 266.257 683.41 239.047 714.8 234.147C714.83 234.147 714.85 234.157 714.85 234.187C716.96 254.967 732.54 276.697 732.54 298.987C732.54 321.277 716.96 343.007 714.85 363.797C714.85 363.827 714.82 363.847 714.8 363.837V363.847ZM1004.13 424.077C1001.59 431.297 993.67 435.127 986.4 432.567L854.82 386.237C847.58 383.687 843.78 375.747 846.33 368.507C848.88 361.267 856.82 357.457 864.06 360.017L995.64 406.347C1002.88 408.897 1006.68 416.837 1004.13 424.077ZM846.33 229.487C843.78 222.247 847.58 214.307 854.82 211.757L986.4 165.427C993.64 162.877 1001.58 166.677 1004.13 173.917C1006.68 181.157 1002.88 189.097 995.64 191.647L864.06 237.977C856.82 240.527 848.88 236.717 846.33 229.487ZM991.02 285.097C998.91 285.097 1005.26 291.667 1004.91 299.627C1004.58 307.127 998.1 312.897 990.59 312.897H859.45C851.56 312.897 845.21 306.327 845.56 298.367C845.89 290.867 852.37 285.097 859.88 285.097H991.02Z" fill="#191919"/>
</svg>
