<svg width="656" height="694" viewBox="0 0 656 694" fill="none" xmlns="http://www.w3.org/2000/svg">
<path d="M655.28 687.01C655.28 691.51 652.09 693.78 645.72 693.78H589.74C584.72 693.78 580.98 693.38 578.47 692.55C575.96 691.71 573.81 689.68 571.97 686.41L500.98 542.63C499.63 540.16 497.79 538.53 495.52 537.69C493.25 536.89 488.67 536.49 481.86 536.49H423.81C418.35 536.49 414.17 537.21 411.18 538.64C408.23 540.07 406.76 543.02 406.76 547.52V682.7C406.76 686.01 405.53 688.64 403.02 690.71C400.51 692.74 397.44 693.78 393.81 693.78H340.54C336.88 693.78 333.81 692.74 331.34 690.71C328.83 688.64 327.55 686.01 327.55 682.7V536.19C336.61 529.14 345.15 521.6 353.06 513.56C364.16 502.32 374.21 490 382.96 476.91C383.88 475.61 384.74 474.33 385.57 473.03C391.71 463.52 397.04 453.7 401.68 443.75C413.08 439.52 424.22 434.62 434.92 428.98C465.94 412.65 492.59 391.6 514.18 366.38C521.42 357.89 528.2 348.82 534.33 339.39C546 321.45 555.05 302.27 561.32 282.39C584.17 294.61 602.45 310.86 615.98 331.24C629.88 352.16 636.81 375.1 636.81 400.08C636.81 421.35 631.47 441.43 620.75 460.28C610.07 479.12 595.38 494.9 576.73 507.61C573.98 509.24 572.63 511.28 572.63 513.75C572.63 516.22 572.87 518.25 573.31 519.89L652.51 679.05C654.34 681.92 655.26 684.55 655.26 687.02H655.28V687.01ZM249 114.63C261.62 119.08 274.12 124.55 286.07 130.86C327.54 152.69 360.99 182.97 385.45 220.83C391.1 229.63 396.11 238.6 400.42 247.59C411.13 269.79 418.1 293.45 421.12 317.84C422.33 327.38 422.95 337.3 422.95 347.22C422.95 364.08 421.18 380.71 417.7 396.66C417.63 396.99 417.54 397.32 417.47 397.65C417.73 397.52 417.99 397.4 418.25 397.26C445.34 383 468.25 364.95 486.94 343.12C493.2 335.79 498.97 328.06 504.31 319.85C514.83 303.67 522.67 286.74 527.97 269.09C533.35 251.24 536.02 232.6 536.02 213.23C536.02 174.7 525.46 139.09 504.31 106.3C483.11 73.55 454.47 47.62 418.25 28.57C382.07 9.53 342.59 0 299.81 0H163.28C159.18 0 155.75 1.35 153.04 3.98C150.29 6.65 148.94 9.84 148.94 13.5V98.12H150.89C185.18 98.12 218.2 103.67 249.02 114.61L249 114.63ZM327.56 488.37C310.99 505.22 291.58 519.52 269.31 531.24C233.13 550.28 193.61 559.81 150.87 559.81H19.76C14.3 559.81 9.64 558.06 5.78 554.59C1.91 551.08 0 546.9 0 541.96V147.5C0 143.83 1.35 140.65 4.06 137.98C6.81 135.31 10.23 134 14.3 134H150.87C181.23 134 209.95 138.82 237 148.42C248.08 152.32 258.83 157.03 269.31 162.56C305.49 181.6 334.17 207.54 355.32 240.29C360.1 247.74 364.36 255.35 368.07 263.08C377.15 281.92 382.97 301.65 385.52 322.24C386.55 330.41 387.07 338.73 387.07 347.22C387.07 361.56 385.6 375.51 382.65 389.01C380.74 397.85 378.19 406.5 375 414.99C369.98 428.38 363.41 441.28 355.32 453.79C354.72 454.75 354.08 455.66 353.41 456.62C345.8 468.05 337.15 478.65 327.55 488.37H327.56ZM167.78 365.07C157 360.76 138.4 357.41 126.78 356.87C108.84 356.03 93.85 360.19 83.76 375.82C66.19 403.03 85.67 439.64 118.07 439.87C146.93 440.08 158.38 415.51 166.26 391.82C167.99 386.62 171.21 377.17 171.76 371.99C172.19 367.97 171.5 366.56 167.78 365.07ZM182.37 354.24C185.66 351.45 189.73 346.9 192.72 343.64C201.2 334.41 210.67 322.84 215.7 311.33C228.49 282.06 204.93 251.65 173.79 254.07C149.1 255.99 130.65 281.48 137.32 305.5C141.33 319.95 154.14 335.65 164.58 346.21C166.84 348.49 173.3 355.06 175.87 356.11C178.58 357.22 180.37 355.94 182.37 354.24ZM271.44 375.81C261.35 360.18 246.35 356.02 228.42 356.86C216.8 357.41 198.2 360.76 187.42 365.06C183.7 366.55 183.01 367.96 183.44 371.98C183.99 377.16 187.21 386.61 188.94 391.81C196.82 415.5 208.27 440.07 237.13 439.86C269.53 439.63 289.02 403.01 271.44 375.81Z" fill="#191919"/>
</svg>
