<svg width="548" height="631" viewBox="0 0 548 631" fill="none" xmlns="http://www.w3.org/2000/svg">
<path d="M546.65 448.089C543.97 455.699 535.62 459.729 527.97 457.039L389.32 408.219C381.69 405.529 377.68 397.169 380.37 389.539C383.06 381.909 391.42 377.899 399.05 380.589L537.7 429.409C545.33 432.099 549.34 440.459 546.65 448.089ZM271.12 593.519C278.6 603.819 276.31 618.239 266.01 625.719C255.66 633.239 241.25 630.859 233.81 620.609C192.7 564.169 123.34 490.459 42.79 426.659C15.85 405.329 0 372.959 0 338.589C0 338.589 0.04 338.529 0.08 338.549C76.61 388.819 148.13 452.539 208.39 518.449C208.41 518.479 208.46 518.469 208.47 518.439C219.99 493.679 229.1 463.239 235.38 429.099C235.38 429.069 235.37 429.049 235.34 429.039C179.88 420.739 137.21 372.789 137.21 315.059C137.21 257.329 179.88 209.379 235.34 201.079C235.37 201.079 235.39 201.049 235.38 201.019C229.11 166.879 219.99 136.439 208.47 111.679C208.46 111.649 208.41 111.639 208.39 111.669C147.95 177.759 76.47 241.399 0.08 291.569C0.04 291.589 0 291.569 0 291.529C0 257.199 15.59 224.669 42.51 203.369C119.61 142.349 189.69 70.2493 233.81 9.50928C241.29 -0.790715 255.71 -3.08072 266.01 4.39928C276.31 11.8793 278.6 26.2993 271.12 36.5993C270.34 37.6693 259.92 51.9393 241.11 74.3493C241.1 74.3693 241.09 74.3893 241.11 74.4093C278.56 141.679 291.33 237.709 291.33 315.059C291.33 392.349 278.58 488.409 241.12 555.709C241.11 555.729 241.12 555.749 241.12 555.769C259.93 578.179 270.35 592.449 271.13 593.519H271.12ZM241.77 383.389C241.77 383.389 241.82 383.369 241.83 383.349C244.05 361.449 260.47 338.559 260.47 315.059C260.47 291.559 244.06 268.669 241.83 246.769C241.83 246.739 241.8 246.719 241.77 246.729C208.7 251.889 183.31 280.559 183.31 315.059C183.31 349.559 208.7 378.229 241.77 383.389ZM399.04 251.999L537.69 203.179C545.32 200.489 549.33 192.129 546.64 184.499C543.95 176.869 535.59 172.859 527.96 175.549L389.31 224.369C381.68 227.059 377.67 235.419 380.36 243.049C383.04 250.679 391.41 254.689 399.04 251.999ZM394.18 330.939H532.37C540.28 330.939 547.11 324.859 547.46 316.959C547.83 308.569 541.14 301.649 532.83 301.649H394.64C386.73 301.649 379.9 307.729 379.55 315.629C379.18 324.019 385.87 330.939 394.18 330.939Z" fill="#191919"/>
</svg>
