<svg width="1644" height="792" viewBox="0 0 1644 792" fill="none" xmlns="http://www.w3.org/2000/svg">
<path d="M18.37 59.13L5 15.53C4.63 14.53 4.44 13.2 4.44 11.52C4.44 6.51 7.03 4 12.24 4H62.36C69.41 4 73.5 6.18 74.61 10.52C76.09 14.87 78.41 22.22 81.57 32.57C84.72 42.93 87.23 51.61 89.09 58.63C89.46 59.63 89.65 60.97 89.65 62.64C89.65 66.99 86.12 69.16 79.07 69.16H33.96C25.42 69.16 20.22 65.82 18.37 59.14V59.13ZM109.69 354.07C107.83 353.24 106.53 351.49 105.79 348.81L63.47 208.98C63.1 207.98 62.91 206.47 62.91 204.47C62.91 200.13 65.88 197.95 71.82 197.95H119.15C124.72 197.95 128.43 198.87 130.29 200.71C132.14 202.55 133.63 205.14 134.75 208.48L148.12 252.58C149.97 257.93 151.46 260.6 152.58 260.6C153.7 260.6 154.99 257.77 156.48 252.08C165.02 223.35 177.45 181.91 193.79 127.79C210.12 73.66 222 34.74 229.43 11.02C230.17 8.35 231.56 6.51 233.61 5.51C235.65 4.51 238.34 4.01 241.68 4.01H292.35C294.94 4.01 296.99 5.18 298.48 7.52C299.96 9.86 300.33 12.53 299.59 15.54L198.24 348.82C197.13 353.17 193.04 355.34 185.99 355.34H118.05C114.34 355.34 111.55 354.92 109.7 354.09L109.69 354.07ZM347.75 352.57C345.71 350.74 344.69 348.65 344.69 346.31V13.52C344.69 10.85 345.8 8.59 348.03 6.75C350.26 4.92 352.67 3.99 355.27 3.99H410.96C413.55 3.99 415.88 4.91 417.92 6.75C419.96 8.59 420.98 10.85 420.98 13.52V346.3C420.98 348.64 420.05 350.73 418.19 352.56C416.33 354.4 413.92 355.32 410.95 355.32H355.26C352.28 355.32 349.78 354.4 347.74 352.56L347.75 352.57ZM544.04 335.78C513.97 319.74 490.11 297.94 472.48 270.38C454.84 242.82 446.03 212.67 446.03 179.92C446.03 147.17 454.84 117.52 472.48 89.96C490.11 62.4 513.97 40.52 544.04 24.31C574.11 8.11 606.97 0 642.61 0C671.19 0 698.02 5.18 723.08 15.54C748.14 25.9 769.76 40.1 787.96 58.14C789.44 59.48 790.19 61.15 790.19 63.15C790.19 65.49 789.26 67.33 787.41 68.66L747.32 99.73C745.46 101.41 743.42 102.24 741.2 102.24C738.98 102.24 737.11 101.41 735.63 99.73C723.75 88.04 709.74 78.93 693.59 72.42C677.44 65.91 660.46 62.65 642.64 62.65C619.62 62.65 598.37 67.91 578.88 78.44C559.39 88.97 543.88 103.25 532.38 121.29C520.87 139.33 515.12 158.88 515.12 179.93C515.12 200.98 520.87 220.53 532.38 238.57C543.88 256.61 559.39 270.9 578.88 281.42C598.37 291.94 619.62 297.21 642.64 297.21C659.71 297.21 675.86 294.29 691.09 288.44C706.31 282.6 719.86 274.33 731.74 263.63C735.08 260.96 738.61 259.62 742.32 259.62C745.66 259.62 748.25 260.46 750.12 262.13L760.7 270.15L782.97 288.19C786.68 290.53 788.54 293.7 788.54 297.71C788.54 300.05 787.61 302.06 785.76 303.72C767.57 321.43 746.13 335.22 721.44 345.07C696.75 354.93 670.49 359.85 642.64 359.85C607 359.85 574.15 351.83 544.07 335.79L544.04 335.78ZM855.88 347.81V77.17C855.88 73.83 854.57 71.08 851.98 68.9C849.38 66.73 846.22 65.64 842.51 65.64H810.77C808.91 65.64 807.24 64.97 805.76 63.64C804.27 62.31 803.53 60.63 803.53 58.63V12.02C803.53 10.02 804.27 8.35 805.76 7.01C807.24 5.68 808.91 5.01 810.77 5.01H1054.12C1055.97 5.01 1057.64 5.68 1059.13 7.01C1060.61 8.35 1061.36 10.02 1061.36 12.02V58.63C1061.36 60.63 1060.61 62.31 1059.13 63.64C1057.64 64.98 1055.97 65.64 1054.12 65.64H949.99C946.27 65.64 943.12 66.81 940.52 69.15C937.92 71.49 936.62 74.16 936.62 77.17V347.81C936.62 349.81 935.87 351.4 934.39 352.57C932.9 353.74 931.23 354.32 929.38 354.32H863.11C858.28 354.32 855.87 352.15 855.87 347.8L855.88 347.81ZM1105.09 352.57C1103.05 350.74 1102.03 348.65 1102.03 346.31V13.52C1102.03 10.85 1103.14 8.59 1105.37 6.75C1107.6 4.92 1110.01 3.99 1112.61 3.99H1168.3C1170.89 3.99 1173.22 4.91 1175.26 6.75C1177.3 8.59 1178.32 10.85 1178.32 13.52V346.3C1178.32 348.64 1177.39 350.73 1175.54 352.56C1173.68 354.4 1171.27 355.32 1168.3 355.32H1112.61C1109.63 355.32 1107.13 354.4 1105.09 352.56V352.57ZM1458.41 349.31C1443.93 328.93 1420.26 295.86 1387.41 250.08C1354.55 204.31 1329.77 169.39 1313.07 145.33C1310.84 143 1309.36 141.82 1308.61 141.82C1307.86 141.82 1307.4 142.49 1307.22 143.82C1307.03 145.16 1306.94 146.16 1306.94 146.83L1308.05 205.97C1308.05 208.31 1307.12 210.4 1305.27 212.23C1303.41 214.07 1301 214.99 1298.03 214.99H1244.01C1241.03 214.99 1238.53 214.16 1236.49 212.48C1234.45 210.81 1233.43 208.64 1233.43 205.96V14.52C1233.43 11.85 1234.45 9.59 1236.49 7.75C1238.53 5.92 1241.03 4.99 1244.01 4.99H1298.58C1301.17 4.99 1303.4 5.99 1305.26 8L1440.02 209.98C1443.36 215.67 1446.14 218.5 1448.37 218.5C1450.22 218.5 1451.15 215.67 1451.15 209.98L1450.59 14.52C1450.59 11.85 1451.61 9.59 1453.65 7.75C1455.69 5.92 1458.01 4.99 1460.61 4.99H1519.64C1522.61 4.99 1525.11 5.91 1527.16 7.75C1529.2 9.59 1530.22 11.85 1530.22 14.52V345.3C1530.22 347.98 1529.19 350.15 1527.16 351.82C1525.12 353.5 1522.61 354.33 1519.64 354.33H1467.3C1464.32 354.33 1461.36 352.66 1458.39 349.32L1458.41 349.31ZM98.01 766.97C67.94 750.93 44.08 729.13 26.45 701.57C8.81 674.01 0 643.86 0 611.11C0 578.36 8.81 548.71 26.45 521.15C44.08 493.58 67.94 471.71 98.01 455.5C128.08 439.3 160.94 431.19 196.57 431.19C225.15 431.19 251.98 436.37 277.04 446.73C302.1 457.09 323.72 471.29 341.92 489.33C343.4 490.67 344.15 492.34 344.15 494.34C344.15 496.68 343.22 498.52 341.37 499.85L301.28 530.92C299.42 532.6 297.38 533.43 295.15 533.43C292.92 533.43 291.06 532.6 289.58 530.92C277.69 519.23 263.69 510.12 247.54 503.61C231.39 497.09 214.41 493.84 196.59 493.84C173.57 493.84 152.32 499.1 132.83 509.63C113.34 520.16 97.83 534.44 86.33 552.48C74.82 570.52 69.07 590.07 69.07 611.12C69.07 632.17 74.82 651.71 86.33 669.76C97.83 687.8 113.34 702.09 132.83 712.61C152.32 723.13 173.57 728.4 196.59 728.4C213.66 728.4 229.81 725.48 245.04 719.63C260.26 713.79 273.81 705.52 285.69 694.82C289.03 692.15 292.56 690.81 296.27 690.81C299.61 690.81 302.2 691.65 304.07 693.32L314.65 701.34L336.92 719.38C340.63 721.72 342.49 724.89 342.49 728.9C342.49 731.24 341.56 733.25 339.71 734.91C321.52 752.62 300.08 766.41 275.39 776.26C250.7 786.12 224.44 791.05 196.59 791.05C160.95 791.05 128.1 783.03 98.03 766.99L98.01 766.97ZM392.31 783.76C390.27 781.93 389.25 779.84 389.25 777.5V444.72C389.25 442.05 390.36 439.79 392.59 437.95C394.82 436.12 397.23 435.19 399.83 435.19H455.52C458.11 435.19 460.44 436.11 462.48 437.95C464.52 439.79 465.54 442.05 465.54 444.72V777.5C465.54 779.84 464.61 781.93 462.75 783.76C460.89 785.6 458.48 786.52 455.51 786.52H399.82C396.84 786.52 394.34 785.6 392.3 783.76H392.31ZM745.64 780.5C731.16 760.12 707.49 727.05 674.64 681.27C641.78 635.5 617 600.58 600.3 576.52C598.07 574.19 596.58 573.01 595.84 573.01C595.1 573.01 594.63 573.68 594.45 575.01C594.26 576.35 594.17 577.35 594.17 578.02L595.28 637.16C595.28 639.5 594.35 641.59 592.5 643.42C590.64 645.26 588.23 646.18 585.26 646.18H531.24C528.26 646.18 525.76 645.35 523.72 643.67C521.68 642 520.66 639.83 520.66 637.15V445.7C520.66 443.03 521.68 440.77 523.72 438.93C525.76 437.1 528.26 436.17 531.24 436.17H585.81C588.4 436.17 590.63 437.17 592.49 439.18L727.25 641.16C730.59 646.85 733.38 649.68 735.6 649.68C737.45 649.68 738.38 646.85 738.38 641.16L737.82 445.7C737.82 443.03 738.84 440.77 740.88 438.93C742.92 437.1 745.24 436.17 747.84 436.17H806.87C809.84 436.17 812.34 437.09 814.39 438.93C816.43 440.77 817.45 443.03 817.45 445.7V776.48C817.45 779.16 816.42 781.33 814.39 783C812.35 784.68 809.84 785.51 806.87 785.51H754.53C751.55 785.51 748.59 783.84 745.62 780.5H745.64ZM858.95 494.58C856.91 492.75 855.89 490.49 855.89 487.81V444.71C855.89 442.04 856.91 439.87 858.95 438.19C860.99 436.52 863.31 435.68 865.91 435.68H1124.3C1127.27 435.68 1129.77 436.6 1131.82 438.44C1133.86 440.28 1134.88 442.37 1134.88 444.7V487.8C1134.88 490.14 1133.85 492.31 1131.82 494.31C1129.78 496.31 1127.27 497.32 1124.3 497.32H865.91C863.31 497.32 860.99 496.4 858.95 494.56V494.58ZM858.95 783.76C856.91 781.93 855.89 779.84 855.89 777.5V545.96C855.89 543.29 856.91 541.12 858.95 539.44C860.99 537.77 863.31 536.93 865.91 536.93H913.24C916.21 536.93 918.62 537.77 920.48 539.44C922.33 541.12 923.26 543.28 923.26 545.96V582.04C923.26 588.39 928.08 591.56 937.74 591.56H1078.07C1080.66 591.56 1082.89 592.31 1084.75 593.82C1086.6 595.32 1087.53 597.25 1087.53 599.58V642.68C1087.53 645.02 1086.6 646.94 1084.75 648.44C1082.89 649.94 1080.66 650.7 1078.07 650.7H936.07C927.53 650.7 923.26 654.21 923.26 661.22V715.85C923.26 718.19 924.37 720.36 926.6 722.36C928.83 724.36 931.24 725.37 933.84 725.37H1125.4C1128.37 725.37 1130.78 726.21 1132.64 727.88C1134.49 729.56 1135.42 731.72 1135.42 734.39V777.49C1135.42 779.83 1134.49 781.92 1132.64 783.75C1130.78 785.59 1128.37 786.51 1125.4 786.51H865.9C863.3 786.51 860.98 785.59 858.94 783.75L858.95 783.76Z" fill="#191919"/>
<path d="M1518.56 495.079C1521.54 490.98 1527.29 490.07 1531.39 493.05C1535.5 496.03 1536.41 501.77 1533.43 505.88C1533.12 506.3 1528.96 511.99 1521.47 520.92C1521.46 520.921 1521.46 520.93 1521.47 520.94C1536.39 547.74 1541.48 586.04 1541.48 616.83C1541.48 647.62 1536.4 685.9 1521.47 712.71C1521.46 712.719 1521.47 712.728 1521.47 712.73C1528.96 721.66 1533.12 727.35 1533.43 727.77C1536.41 731.88 1535.5 737.62 1531.39 740.6C1527.27 743.6 1521.53 742.65 1518.56 738.57C1502.18 716.08 1474.55 686.71 1442.45 661.29C1440.4 659.67 1438.52 657.89 1436.81 655.98V674.85C1436.81 702.09 1414.72 724.17 1387.48 724.17H1270.94C1243.7 724.17 1221.62 702.09 1221.62 674.85V558.31C1221.62 531.07 1243.7 508.99 1270.94 508.99H1387.48C1414.72 508.99 1436.81 531.07 1436.81 558.31V577.53C1438.49 575.65 1440.33 573.91 1442.34 572.32C1473.06 548.01 1500.98 519.279 1518.56 495.079ZM1508.43 535.79C1487.38 558.81 1462.96 581.09 1436.81 599.68V633.97C1463 652.6 1487.43 674.9 1508.43 697.86C1508.44 697.869 1508.46 697.86 1508.46 697.86C1513.05 688 1516.68 675.87 1519.18 662.26C1519.19 662.25 1519.18 662.24 1519.17 662.24C1497.07 658.93 1480.07 639.84 1480.07 616.83C1480.07 593.821 1497.07 574.72 1519.17 571.41C1519.18 571.41 1519.18 571.4 1519.18 571.39C1516.68 557.78 1513.05 545.66 1508.46 535.79C1508.46 535.78 1508.44 535.78 1508.43 535.79ZM1576.95 646.01C1578.02 642.97 1581.36 641.37 1584.4 642.44L1639.64 661.9C1642.68 662.97 1644.28 666.3 1643.21 669.34C1642.14 672.37 1638.81 673.979 1635.77 672.91L1580.52 653.45C1577.48 652.38 1575.88 649.05 1576.95 646.01ZM1521.73 589.6C1508.55 591.65 1498.44 603.08 1498.44 616.83C1498.44 630.57 1508.55 642 1521.73 644.05C1521.74 644.05 1521.75 644.04 1521.75 644.03C1522.64 635.31 1529.18 626.2 1529.18 616.83C1529.18 607.46 1522.64 598.34 1521.75 589.62C1521.75 589.61 1521.74 589.6 1521.73 589.6ZM1637.7 610.99C1641.01 610.99 1643.68 613.75 1643.53 617.09C1643.39 620.24 1640.67 622.659 1637.52 622.66H1582.46C1579.15 622.659 1576.48 619.9 1576.63 616.56C1576.77 613.41 1579.49 610.99 1582.64 610.99H1637.7ZM1635.77 560.74C1638.8 559.68 1642.14 561.27 1643.21 564.31C1644.28 567.35 1642.68 570.68 1639.64 571.75L1584.4 591.21C1581.36 592.28 1578.02 590.68 1576.95 587.64C1575.88 584.6 1577.48 581.27 1580.52 580.2L1635.77 560.74Z" fill="#191919"/>
</svg>
