<svg width="1582" height="315" viewBox="0 0 1582 315" fill="none" xmlns="http://www.w3.org/2000/svg">
<path d="M601.05 173.531C611.94 173.531 622.32 175.491 632.19 179.411C642.06 183.331 650.63 188.951 657.89 196.271C658.759 197.051 659.2 197.911 659.2 198.821C659.2 199.601 658.69 200.452 657.68 201.371C654.63 203.591 651.58 205.911 648.53 208.331C645.48 210.751 643.37 212.421 642.21 213.331C641.34 214.121 640.32 214.511 639.16 214.511C638.14 214.511 637.2 214.121 636.33 213.331C631.68 208.761 626.31 205.261 620.21 202.851C614.11 200.431 607.72 199.221 601.05 199.221C592.34 199.221 584.24 201.251 576.77 205.301C569.29 209.351 563.369 214.781 559.02 221.571C554.66 228.371 552.49 235.811 552.49 243.921C552.49 252.031 554.67 259.471 559.02 266.261C563.369 273.061 569.29 278.481 576.77 282.531C584.249 286.581 592.34 288.611 601.05 288.611C607.29 288.611 613.32 287.501 619.13 285.281C624.93 283.061 630.16 279.861 634.81 275.681C636.259 274.631 637.86 274.111 639.6 274.111C641.05 274.111 642.21 274.501 643.09 275.291C644.54 276.341 646.571 277.871 649.19 279.891C651.8 281.921 654.051 283.711 655.94 285.281C657.54 286.461 658.34 287.891 658.34 289.591C658.34 290.641 657.9 291.551 657.03 292.331C649.77 299.391 641.31 304.811 631.66 308.601C622 312.391 611.799 314.281 601.06 314.281C587.12 314.281 574.23 311.141 562.4 304.871H562.39V304.861C550.55 298.591 541.19 290.06 534.3 279.281C527.4 268.501 523.96 256.71 523.96 243.901C523.96 231.091 527.41 219.501 534.3 208.721C541.19 197.941 550.56 189.381 562.39 183.041C574.22 176.701 587.11 173.531 601.05 173.531ZM1179.43 173.791C1191.63 173.141 1203.53 175.101 1215.15 179.671C1222.41 182.541 1229.41 186.761 1236.16 192.311C1242.91 197.861 1247.81 203.381 1250.86 208.871C1257.68 219.591 1261.1 231.211 1261.1 243.761C1261.1 251.081 1259.86 258.231 1257.4 265.221C1254.93 272.211 1251.3 278.711 1246.51 284.721C1242.88 289.301 1238.92 293.311 1234.64 296.771C1230.36 300.231 1225.09 303.471 1218.85 306.471C1207.67 311.571 1195.62 314.111 1182.7 314.111C1171.67 314.111 1161.14 312.151 1151.12 308.231C1141.41 304.181 1133.04 298.687 1125.99 291.756L1125.33 291.101C1118.14 283.851 1112.88 275.781 1109.54 266.891L1109.1 265.911C1106.49 258.852 1105.18 251.541 1105.18 243.961C1105.18 235.861 1106.7 227.891 1109.75 220.051C1112.8 212.211 1117.37 205.091 1123.47 198.681C1131.45 190.971 1139.55 185.061 1147.75 180.941C1155.95 176.821 1166.3 174.441 1178.78 173.791H1179.43ZM340.75 175.211C341.76 175.211 342.56 175.671 343.14 176.581C343.719 177.501 343.86 178.541 343.58 179.721L303.939 310.061C303.499 311.761 301.91 312.611 299.15 312.611H272.58C271.13 312.611 270.04 312.451 269.31 312.121H269.33V312.111C268.6 311.781 268.09 311.101 267.81 310.051L251.26 255.371C251.11 254.981 251.04 254.39 251.04 253.611C251.04 251.911 252.2 251.061 254.52 251.061H273.03C275.21 251.061 276.66 251.421 277.38 252.141C278.1 252.861 278.69 253.871 279.12 255.181L284.35 272.431C285.07 274.521 285.66 275.57 286.09 275.571C286.52 275.571 287.03 274.461 287.61 272.242C290.95 261.002 295.81 244.801 302.2 223.631C308.59 202.462 313.23 187.241 316.14 177.961C316.43 176.921 316.97 176.201 317.77 175.801C318.569 175.411 319.62 175.211 320.93 175.211H340.75ZM1369.82 175.211C1371.42 175.211 1372.61 175.372 1373.41 175.701C1374.21 176.032 1374.75 176.711 1375.04 177.761C1377.8 187.041 1382.37 202.191 1388.76 223.231C1395.15 244.27 1400.01 260.541 1403.35 272.031C1404.07 274.38 1404.66 275.561 1405.09 275.561C1405.67 275.561 1406.25 274.38 1406.83 272.031C1410.17 260.531 1415.03 244.27 1421.42 223.231C1427.81 202.191 1432.38 187.041 1435.14 177.761C1435.58 176.711 1436.19 176.031 1436.99 175.701C1437.79 175.382 1438.91 175.211 1440.37 175.211H1460.41C1462.29 175.211 1463.24 176.132 1463.24 177.951H1463.25C1463.25 178.611 1463.18 179.131 1463.03 179.521L1423.39 310.061C1423.1 311.111 1422.59 311.791 1421.87 312.121C1421.14 312.451 1420.05 312.611 1418.6 312.611H1391.81C1390.36 312.611 1389.23 312.451 1388.44 312.121C1387.64 311.791 1387.09 311.111 1386.81 310.061L1347.39 179.521C1347.24 179.131 1347.17 178.541 1347.17 177.761C1347.17 176.061 1348.11 175.211 1350 175.211H1369.82ZM208.39 175.201C209.41 175.201 210.31 175.491 211.11 176.081C211.91 176.671 212.45 177.361 212.74 178.141L251.29 310.051H251.26C251.41 310.701 251.26 311.291 250.83 311.811C250.4 312.341 249.82 312.601 249.09 312.601H227.75C226.88 312.601 225.98 312.311 225.03 311.721C224.09 311.141 223.55 310.391 223.4 309.471L212.729 273.211C212.439 272.031 211.71 271.051 210.55 270.271C209.39 269.481 208.16 269.091 206.85 269.091H164.66C163.36 269.091 162.12 269.481 160.96 270.271C159.79 271.051 159.07 272.031 158.78 273.211L148.11 309.471C147.97 310.381 147.419 311.131 146.479 311.721C145.54 312.311 144.63 312.601 143.76 312.601H122.42C121.69 312.601 121.12 312.331 120.68 311.811C120.25 311.291 120.1 310.711 120.25 310.051L158.8 178.141C159.09 177.351 159.63 176.671 160.43 176.081C161.22 175.491 162.13 175.201 163.15 175.201H208.39ZM382.32 175.191C383.33 175.191 384.24 175.551 385.04 176.271C385.84 176.991 386.24 177.871 386.24 178.921V309.071C386.24 309.99 385.87 310.801 385.15 311.521C384.42 312.241 383.48 312.601 382.32 312.601H359.67C358.51 312.601 357.53 312.241 356.73 311.521C355.931 310.801 355.53 309.99 355.53 309.071V178.921C355.53 177.881 355.97 176.991 356.84 176.271C357.71 175.551 358.65 175.191 359.67 175.191H382.32ZM696.91 175.191C697.92 175.191 698.83 175.551 699.63 176.271C700.43 176.991 700.83 177.871 700.83 178.921V309.071C700.83 309.99 700.46 310.801 699.74 311.521C699.01 312.241 698.07 312.601 696.91 312.601H674.26C673.1 312.601 672.12 312.241 671.32 311.521C670.52 310.801 670.12 309.99 670.12 309.071V178.921C670.12 177.881 670.56 176.991 671.43 176.271C672.3 175.551 673.24 175.191 674.26 175.191H696.91ZM807.811 175.191C816.81 175.191 825.09 177.151 832.64 181.071C840.19 184.991 846.18 190.282 850.61 196.951C855.04 203.611 857.25 210.931 857.25 218.901C857.25 225.7 855.54 232.101 852.13 238.111C848.72 244.121 844.03 249.152 838.08 253.201C837.21 253.721 836.771 254.382 836.771 255.161C836.771 255.941 836.84 256.602 836.99 257.121L862.25 307.891C862.83 308.801 863.12 309.651 863.12 310.441C863.12 311.88 862.1 312.601 860.07 312.601H842.21C840.61 312.601 839.41 312.471 838.62 312.211C837.82 311.951 837.13 311.301 836.55 310.251L813.9 264.381C813.46 263.601 812.88 263.081 812.16 262.811C811.43 262.551 809.98 262.421 807.8 262.421H789.29C787.55 262.421 786.2 262.651 785.26 263.111C784.31 263.571 783.84 264.522 783.84 265.951V309.071C783.84 310.12 783.44 310.971 782.64 311.621C781.84 312.281 780.86 312.601 779.7 312.601H762.71C761.55 312.601 760.57 312.281 759.771 311.621C758.971 310.971 758.57 310.12 758.57 309.071V240.671C758.57 239.621 758.971 238.741 759.771 238.021C760.57 237.301 761.55 236.941 762.71 236.941H807.79C813.6 236.941 818.49 235.181 822.49 231.651C826.48 228.121 828.48 223.881 828.48 218.911C828.48 213.942 826.48 209.501 822.49 205.971C818.5 202.441 813.6 200.681 807.79 200.681H789.5C787.9 200.681 786.56 201.171 785.47 202.151C784.38 203.131 783.84 204.281 783.84 205.581V210.481C783.84 211.791 783.33 212.932 782.32 213.911C781.3 214.891 780 215.381 778.4 215.381H764.03C762.58 215.381 761.31 214.891 760.22 213.911C759.13 212.932 758.59 211.791 758.59 210.481V178.921C758.59 177.881 758.99 176.991 759.79 176.271C760.59 175.551 761.57 175.191 762.73 175.191H807.811ZM1299.91 175.201C1301.22 175.202 1302.3 175.631 1303.18 176.471C1304.05 177.321 1304.49 178.271 1304.49 179.311V282.601C1304.49 283.651 1304.93 284.591 1305.8 285.441C1306.67 286.291 1307.69 286.711 1308.85 286.711H1361.55C1362.86 286.711 1363.94 287.101 1364.82 287.891C1365.69 288.681 1366.13 289.591 1366.13 290.641V308.481C1366.13 309.661 1365.69 310.641 1364.82 311.421C1363.95 312.211 1362.86 312.601 1361.55 312.601H1277.49C1276.33 312.601 1275.27 312.211 1274.33 311.421H1274.32C1273.37 310.641 1272.9 309.661 1272.9 308.481V179.311C1272.9 178.271 1273.37 177.321 1274.32 176.471C1275.26 175.621 1276.31 175.202 1277.48 175.201H1299.91ZM423.521 175.581C424.53 175.582 425.33 176.042 425.92 176.951L477.53 255.551C479.13 258.161 480.43 259.471 481.45 259.471C482.61 259.471 483.19 258.031 483.19 255.161L482.76 178.331C482.76 177.551 483.09 176.891 483.74 176.371C484.39 175.851 485.15 175.581 486.03 175.581H508.9C509.77 175.581 510.531 175.841 511.19 176.371C511.84 176.891 512.17 177.552 512.17 178.331V309.461C512.17 310.241 511.84 310.901 511.19 311.421C510.541 311.941 509.77 312.211 508.9 312.211H493.44C490.831 312.211 489.01 312.011 488 311.621C486.98 311.231 485.89 310.181 484.73 308.481L429.85 229.881C428.98 228.701 428.18 228.121 427.45 228.121C426.29 228.121 425.71 229.041 425.71 230.861L426.15 309.461C426.15 310.241 425.82 310.901 425.17 311.421C424.52 311.941 423.829 312.211 423.1 312.211H401.32C400.45 312.211 399.69 311.951 399.03 311.421H399.021C398.371 310.901 398.04 310.241 398.04 309.461V178.331C398.04 177.551 398.371 176.891 399.021 176.371C399.67 175.852 400.44 175.581 401.31 175.581H423.521ZM1049.37 175.791C1060.4 175.791 1071.22 177.681 1081.82 181.471C1093.15 186.571 1098.15 190.881 1096.85 194.411C1095.98 196.371 1094.27 198.821 1091.73 201.761C1089.19 204.701 1087.55 206.631 1086.83 207.541C1086.39 208.061 1085.74 208.321 1084.87 208.321C1083.42 208.321 1080.95 207.541 1077.47 205.971C1072.82 204.011 1068.98 202.771 1065.93 202.251C1059.25 200.951 1053.81 200.291 1049.6 200.291C1044.95 200.291 1040.24 201.011 1035.44 202.451C1031.66 204.151 1028.76 206.141 1026.73 208.431C1024.69 210.721 1023.68 213.101 1023.68 215.581C1023.68 219.241 1025.71 222.441 1029.78 225.181C1034.28 228.061 1039.11 230.471 1044.26 232.431C1049.41 234.391 1055.18 236.421 1061.57 238.511C1068.54 240.861 1074.16 242.991 1078.45 244.881C1082.73 246.781 1086.25 249.291 1089.01 252.431C1091.91 254.911 1094.35 258.441 1096.31 263.011C1098.27 267.591 1099.25 271.961 1099.25 276.141C1099.25 283.461 1097.07 289.801 1092.72 295.151C1088.37 300.51 1082.34 304.661 1074.64 307.601C1066.94 310.541 1058.09 312.011 1048.07 312.011C1036.89 312.011 1025.46 310.381 1013.77 307.111C1002.08 303.851 993.84 300.251 989.05 296.331C988.18 295.541 987.74 294.571 987.74 293.391C987.74 292.091 988.321 290.45 989.48 288.491C990.641 286.531 992.601 283.791 995.36 280.261C996.37 278.961 997.611 278.301 999.061 278.301C999.501 278.301 1000.15 278.431 1001.02 278.691C1011.33 283.391 1019.86 286.371 1026.61 287.611C1033.36 288.851 1040.51 289.471 1048.06 289.471C1055.61 289.471 1061.31 288.331 1065.59 286.041C1069.87 283.761 1072.01 280.721 1072.01 276.931C1072.01 273.791 1070.49 270.461 1067.44 266.931C1065.55 264.711 1062.54 262.851 1058.4 261.341C1054.26 259.841 1049.07 258.301 1042.83 256.731C1042.1 256.601 1040.22 256.141 1037.17 255.361C1025.41 252.221 1016.26 248.471 1009.73 244.091C1003.2 239.711 998.84 234.19 996.66 227.531C995.06 222.961 994.271 218.781 994.271 214.992C994.271 208.332 996.231 202.221 1000.15 196.661C1004.07 191.111 1009.73 186.501 1017.14 182.841C1024.54 179.181 1033.26 176.901 1043.27 175.981C1044.58 175.851 1046.61 175.791 1049.37 175.791ZM970.51 175.781C971.67 175.781 972.61 176.111 973.34 176.761C974.06 177.421 974.43 178.261 974.43 179.311V195.771C974.43 196.691 974.07 197.501 973.34 198.221C972.61 198.941 971.67 199.301 970.51 199.301H900.17C899.15 199.301 898.25 199.631 897.45 200.281C896.65 200.941 896.25 201.781 896.25 202.831V232.231C896.25 233.411 896.54 234.221 897.12 234.681C897.7 235.141 899.08 235.371 901.26 235.371H955.71C956.72 235.371 957.59 235.661 958.32 236.251C959.04 236.841 959.41 237.591 959.41 238.501V255.161C959.41 256.071 959.04 256.832 958.32 257.411C957.59 258.001 956.72 258.291 955.71 258.291H901.05C899.16 258.291 897.89 258.781 897.24 259.761C896.59 260.741 896.26 261.751 896.26 262.801V283.571C896.26 284.88 896.66 285.991 897.46 286.901C898.26 287.821 899.891 288.271 902.36 288.271H972.05C973.06 288.271 973.971 288.631 974.771 289.351C975.57 290.071 975.97 290.951 975.97 292.001V308.461C975.97 309.371 975.61 310.192 974.88 310.911C974.15 311.631 973.21 311.991 972.05 311.991H872.96C871.94 311.991 871.04 311.631 870.24 310.911L870.22 310.931C869.42 310.211 869.021 309.401 869.021 308.481V179.311C869.021 178.271 869.42 177.421 870.22 176.761C871.02 176.111 871.92 175.781 872.94 175.781H970.51ZM1576.53 175.781C1577.69 175.781 1578.63 176.111 1579.36 176.761C1580.08 177.421 1580.45 178.261 1580.45 179.311V195.771C1580.45 196.691 1580.09 197.501 1579.36 198.221C1578.63 198.941 1577.69 199.301 1576.53 199.301H1506.19C1505.17 199.301 1504.27 199.631 1503.47 200.281C1502.67 200.941 1502.27 201.781 1502.27 202.831V232.231C1502.27 233.41 1502.56 234.221 1503.14 234.681C1503.72 235.141 1505.1 235.371 1507.28 235.371H1561.73C1562.74 235.371 1563.61 235.661 1564.34 236.251C1565.06 236.841 1565.43 237.591 1565.43 238.501V255.161C1565.43 256.071 1565.06 256.832 1564.34 257.411C1563.61 258.001 1562.74 258.291 1561.73 258.291H1507.07C1505.18 258.291 1503.91 258.781 1503.26 259.761C1502.61 260.741 1502.28 261.751 1502.28 262.801V283.571C1502.28 284.88 1502.68 285.991 1503.48 286.901C1504.28 287.82 1505.91 288.271 1508.38 288.271H1578.07C1579.08 288.271 1579.99 288.631 1580.79 289.351C1581.59 290.071 1581.99 290.951 1581.99 292.001V308.461C1581.99 309.371 1581.63 310.192 1580.9 310.911C1580.17 311.631 1579.23 311.99 1578.07 311.991H1478.98C1477.96 311.991 1477.06 311.631 1476.26 310.911L1476.24 310.931C1475.44 310.211 1475.04 309.401 1475.04 308.481V179.311C1475.04 178.271 1475.44 177.421 1476.24 176.761C1477.04 176.111 1477.94 175.781 1478.96 175.781H1576.53ZM48.1396 175.992C61.7795 175.992 74.3798 179.031 85.9297 185.101C97.4696 191.181 106.62 199.441 113.37 209.891C120.12 220.341 123.5 231.712 123.5 243.992C123.5 256.271 120.12 267.612 113.37 278.001C106.62 288.391 97.4696 296.622 85.9297 302.701C74.3898 308.781 61.7894 311.811 48.1396 311.811H6.33008C4.59016 311.811 3.10008 311.261 1.87012 310.141H1.84961V310.151C0.609997 309.041 0.000112184 307.701 0 306.131V180.301C0 179.121 0.42983 178.111 1.30957 177.261C2.17957 176.411 3.27008 175.992 4.58008 175.992H48.1396ZM1182.93 198.881C1176.54 198.881 1170.41 199.931 1164.53 202.021C1158.65 204.111 1153.39 207.181 1148.74 211.231L1145.04 214.761C1141.12 219.071 1138.18 223.711 1136.22 228.681C1134.26 233.651 1133.28 238.741 1133.28 243.971C1133.28 250.501 1134.8 256.811 1137.85 262.881C1140.9 268.961 1145.33 274.091 1151.14 278.271C1160.58 285.331 1171.32 288.851 1183.37 288.851C1191.35 288.851 1198.83 287.281 1205.8 284.151C1211.46 281.281 1216.25 277.811 1220.17 273.761V273.751C1224.09 269.701 1226.92 265.851 1228.66 262.191C1231.56 256.181 1233.02 250.041 1233.02 243.771C1233.02 235.151 1230.41 227.081 1225.18 219.561C1219.95 212.051 1212.77 206.461 1203.62 202.801C1196.94 200.191 1190.04 198.881 1182.93 198.881ZM30.71 201.282C29.9801 201.282 29.3603 201.511 28.8604 201.971C28.3505 202.431 28.0996 202.981 28.0996 203.641V286.551H48.1396V286.532H48.1299C56.6998 286.532 64.6102 284.641 71.8701 280.851C79.1298 277.061 84.8998 271.901 89.1797 265.371C93.4596 258.841 95.5995 251.721 95.5996 244.011C95.5996 236.301 93.4596 229.181 89.1797 222.641C84.8997 216.111 79.12 210.911 71.8701 207.061C64.6101 203.211 56.6999 201.282 48.1299 201.282H30.71ZM185.14 199.301C183.84 199.301 182.599 199.701 181.439 200.481C180.28 201.261 179.619 202.181 179.479 203.221L167.5 243.601L167.28 244.581C167.28 245.631 167.64 246.481 168.37 247.131C169.1 247.791 170.11 248.111 171.42 248.111H200.11C201.42 248.111 202.44 247.791 203.16 247.131C203.89 246.481 204.25 245.631 204.25 244.581L204.03 243.601L192.05 203.221C191.91 202.181 191.25 201.261 190.09 200.481C188.93 199.691 187.7 199.301 186.39 199.301H185.14ZM250.82 175.201C253.58 175.202 255.18 176.051 255.61 177.751C256.19 179.451 257.1 182.322 258.33 186.371C259.56 190.421 260.54 193.821 261.27 196.561C261.409 196.951 261.49 197.471 261.49 198.131C261.49 199.831 260.109 200.681 257.35 200.681H239.71C236.37 200.681 234.34 199.381 233.61 196.761H233.62L228.39 179.711C228.24 179.321 228.17 178.801 228.17 178.141C228.17 176.181 229.18 175.202 231.22 175.201H250.82ZM1572 0.000305176C1577.52 0.000305176 1582 4.4805 1582 10.0003V130.46C1582 135.98 1577.52 140.46 1572 140.46H1221.02C1215.5 140.46 1211.02 135.98 1211.02 130.46V10.0003C1211.02 4.4805 1215.5 0.000305176 1221.02 0.000305176H1572ZM209.521 0.121399C221.72 -0.528526 233.62 1.43134 245.24 6.00128C252.5 8.87127 259.5 13.0911 266.25 18.6409C273 24.1909 277.9 29.7115 280.95 35.2015C287.77 45.9213 291.19 57.5414 291.19 70.0911C291.19 77.411 289.95 84.5612 287.49 91.5511C285.02 98.541 281.39 105.041 276.6 111.051C272.97 115.631 269.01 119.641 264.73 123.101C260.451 126.561 255.18 129.801 248.94 132.801C237.76 137.901 225.71 140.441 212.79 140.441C201.76 140.441 191.23 138.481 181.21 134.561C171.503 130.512 163.129 125.017 156.078 118.086L155.42 117.431C148.23 110.181 142.97 102.111 139.63 93.221L139.19 92.2415C136.581 85.1817 135.271 77.8711 135.271 70.2913C135.271 62.1915 136.79 54.221 139.84 46.3812C142.89 38.5413 147.46 31.4209 153.56 25.011C161.54 17.3011 169.64 11.3908 177.84 7.27081C186.04 3.15082 196.39 0.7714 208.87 0.121399H209.521ZM1094.01 0.121399C1106.21 -0.528599 1118.11 1.43132 1129.73 6.00128C1136.99 8.87128 1143.99 13.091 1150.74 18.6409C1157.49 24.1908 1162.39 29.7116 1165.44 35.2015C1172.26 45.9214 1175.68 57.5413 1175.68 70.0911C1175.68 77.411 1174.44 84.5612 1171.98 91.5511C1169.51 98.5409 1165.88 105.041 1161.09 111.051C1157.46 115.631 1153.5 119.641 1149.22 123.101C1144.94 126.561 1139.67 129.801 1133.43 132.801C1122.25 137.901 1110.2 140.441 1097.28 140.441C1086.25 140.441 1075.72 138.481 1065.7 134.561C1055.68 130.381 1047.08 124.661 1039.89 117.411L1039.91 117.431C1032.72 110.181 1027.46 102.111 1024.12 93.221L1023.68 92.2415C1021.07 85.1817 1019.76 77.8711 1019.76 70.2913C1019.76 62.1914 1021.28 54.2211 1024.33 46.3812C1027.38 38.5413 1031.95 31.421 1038.05 25.011C1046.03 17.3011 1054.13 11.3908 1062.33 7.27081C1070.53 3.15098 1080.88 0.771419 1093.36 0.121399H1094.01ZM472.03 1.52081C473.04 1.52088 473.95 1.88101 474.75 2.60089C475.55 3.32086 475.95 4.20136 475.95 5.25128V135.401C475.95 136.32 475.58 137.131 474.86 137.851C474.13 138.571 473.19 138.931 472.03 138.931H449.38C448.22 138.931 447.24 138.571 446.44 137.851C445.641 137.131 445.24 136.321 445.24 135.401V5.25128C445.24 4.21136 445.68 3.32086 446.55 2.60089C447.42 1.88092 448.36 1.52084 449.38 1.52081H472.03ZM703.82 1.53156C704.84 1.53159 705.74 1.82148 706.54 2.41144C707.34 3.00136 707.88 3.69116 708.17 4.47101L746.72 136.381H746.69C746.84 137.031 746.69 137.621 746.26 138.141C745.83 138.671 745.25 138.931 744.521 138.931H723.18C722.31 138.931 721.41 138.641 720.46 138.051C719.52 137.471 718.98 136.721 718.83 135.801L708.16 99.5413C707.87 98.3614 707.14 97.3809 705.98 96.6009C704.82 95.8109 703.59 95.4212 702.28 95.4212H660.09C658.79 95.4213 657.55 95.811 656.39 96.6009C655.22 97.3808 654.5 98.3615 654.21 99.5413L643.54 135.801C643.4 136.711 642.85 137.461 641.91 138.051C640.97 138.641 640.06 138.931 639.19 138.931H617.85C617.12 138.931 616.55 138.661 616.11 138.141C615.68 137.621 615.53 137.041 615.68 136.381L654.23 4.47101C654.52 3.68114 655.06 3.00136 655.86 2.41144C656.65 1.82145 657.56 1.53156 658.58 1.53156H703.82ZM328.04 1.73077C329.49 1.73078 330.58 2.39101 331.31 3.69073L364.41 53.0814C364.55 53.3414 364.951 53.7414 365.61 54.261C366.26 54.7808 367.101 55.0413 368.11 55.0413H368.55C369.56 55.0413 370.33 54.7511 370.84 54.1614C371.35 53.5716 371.67 53.1509 371.82 52.8909L404.71 3.89093C405.72 2.45096 406.89 1.73077 408.19 1.73077H429.75C430.76 1.73077 431.64 2.09085 432.36 2.81085C433.08 3.53079 433.45 4.35116 433.45 5.26105V135.211C433.45 136.131 433.09 136.942 432.36 137.661C431.63 138.381 430.76 138.742 429.75 138.742H408.41C407.25 138.742 406.3 138.421 405.58 137.761C404.85 137.111 404.49 136.261 404.49 135.211V57.4007C404.49 56.101 404.2 55.4408 403.62 55.4407C403.04 55.4407 402.38 55.9611 401.66 57.011L378.79 86.2112C377.48 87.911 376.36 89.0214 375.42 89.5413C374.47 90.0612 372.839 90.3314 370.52 90.3314H366.82C364.06 90.3314 362.17 90.1305 361.16 89.7405C360.14 89.3506 359.13 88.5006 358.11 87.1907L334.59 57.2015C333.72 56.0215 333.07 55.431 332.63 55.431C332.05 55.4311 331.76 56.0216 331.76 57.2015V135.211C331.76 136.131 331.4 136.942 330.67 137.661C329.94 138.381 329 138.742 327.84 138.742H306.72C305.7 138.741 304.83 138.381 304.11 137.661H304.09C303.36 136.942 303 136.131 303 135.211V5.26105C303 4.35112 303.36 3.53081 304.09 2.81085C304.81 2.09086 305.69 1.73077 306.7 1.73077H328.04ZM513.22 1.93097C514.24 1.93097 515.11 2.32078 515.83 3.11066L568.53 82.1009C569.84 84.3206 570.93 85.4308 571.8 85.431C572.52 85.431 572.89 84.3207 572.89 82.1009L572.67 5.66144C572.67 4.62151 573.07 3.74102 573.87 3.01105C574.67 2.29113 575.57 1.93101 576.59 1.93097H599.67C600.83 1.93097 601.81 2.29105 602.61 3.01105C603.41 3.73098 603.81 4.61161 603.81 5.66144V135.021C603.81 136.07 603.41 136.921 602.61 137.571C601.81 138.231 600.83 138.551 599.67 138.551H579.2C578.04 138.551 576.88 137.901 575.72 136.591L575.73 136.581C570.07 128.611 560.81 115.681 547.96 97.7708C535.11 79.871 525.42 66.2108 518.89 56.8109C518.02 55.9014 517.44 55.4411 517.15 55.4407C516.86 55.4407 516.68 55.7011 516.61 56.221C516.54 56.7406 516.5 57.1407 516.5 57.4007L516.93 80.5306C516.93 81.4404 516.57 82.2609 515.84 82.9808C515.11 83.7007 514.17 84.0609 513.01 84.0609H491.88C490.72 84.0608 489.74 83.741 488.94 83.0814C488.141 82.4314 487.74 81.5804 487.74 80.5306V5.66144C487.74 4.62151 488.141 3.74102 488.94 3.01105C489.74 2.29121 490.72 1.93099 491.88 1.93097H513.22ZM784.05 1.91144C785.06 1.91144 785.86 2.37156 786.45 3.28156L838.061 81.8812C839.66 84.4908 840.961 85.8011 841.98 85.8011C843.14 85.8007 843.72 84.3606 843.72 81.4915L843.29 4.66144C843.29 3.88151 843.621 3.22146 844.271 2.70148C844.92 2.18151 845.681 1.91144 846.561 1.91144H869.43C870.3 1.91144 871.06 2.17148 871.72 2.70148C872.37 3.22145 872.7 3.88151 872.7 4.66144V135.791C872.7 136.571 872.37 137.231 871.72 137.751C871.07 138.271 870.299 138.541 869.43 138.541H853.97C851.36 138.541 849.54 138.341 848.53 137.951C847.51 137.561 846.42 136.511 845.26 134.811L790.38 56.2112C789.51 55.0315 788.71 54.4517 787.98 54.4515C786.821 54.4515 786.24 55.371 786.24 57.1907L786.68 135.791C786.68 136.571 786.35 137.231 785.7 137.751C785.05 138.271 784.36 138.541 783.63 138.541H761.85C760.98 138.541 760.22 138.281 759.561 137.751H759.55C758.9 137.231 758.57 136.571 758.57 135.791V4.66144C758.57 3.88164 758.9 3.22141 759.55 2.70148C760.2 2.18153 760.97 1.91149 761.84 1.91144H784.05ZM48.1396 2.32062C61.7795 2.32062 74.3798 5.36107 85.9297 11.431C97.4696 17.511 106.62 25.7711 113.37 36.221C120.12 46.6708 123.5 58.0409 123.5 70.3206C123.5 82.6005 120.12 93.9415 113.37 104.331C106.62 114.721 97.4695 122.951 85.9297 129.031C74.3897 135.111 61.7896 138.141 48.1396 138.141H6.33008C4.59018 138.141 3.10007 137.591 1.87012 136.471H1.84961V136.481C0.609988 135.371 0.000141935 134.031 0 132.461V6.63116C0 5.45136 0.429865 4.44104 1.30957 3.59113C2.17957 2.74113 3.27008 2.32062 4.58008 2.32062H48.1396ZM932.62 2.32062C946.26 2.32064 958.86 5.36099 970.41 11.431C981.95 17.5109 991.1 25.7712 997.85 36.221C1004.6 46.6708 1007.98 58.0409 1007.98 70.3206C1007.98 82.6005 1004.6 93.9415 997.85 104.331C991.1 114.721 981.95 122.951 970.41 129.031C958.87 135.111 946.27 138.141 932.62 138.141H890.81C889.07 138.141 887.579 137.591 886.35 136.471H886.33V136.481C885.09 135.371 884.481 134.031 884.48 132.461V6.63116C884.48 5.45125 884.91 4.44109 885.79 3.59113C886.66 2.74122 887.75 2.32071 889.06 2.32062H932.62ZM1442.61 81.0403C1435.64 81.0403 1428.35 85.2306 1428.35 95.7903C1428.35 104.94 1433.85 109.241 1439.84 110.221L1436.46 113.921L1438.58 116.531C1440.1 115.551 1442.12 116.101 1442.12 117.731C1442.12 119.201 1440.49 119.801 1438.47 119.691V123.611C1442.88 123.611 1447.56 122.361 1447.56 117.841C1447.56 114.901 1445.6 112.721 1442.82 112.721H1442.44L1444.94 110.271C1449.57 109.671 1454.8 106.951 1455.56 98.8411H1448.37C1447.66 102.211 1445.7 103.79 1442.54 103.79V103.8C1438.03 103.795 1435.85 100.477 1435.85 95.8011C1435.85 91.1212 1438.03 87.6909 1442.55 87.6907C1445.6 87.6907 1447.67 89.1007 1448.38 92.5306H1455.57C1454.53 83.0009 1447.56 81.0404 1442.61 81.0403ZM213.021 25.221C206.631 25.221 200.5 26.2707 194.62 28.3607C188.74 30.4506 183.48 33.5208 178.83 37.5706L175.13 41.1009C171.21 45.4108 168.27 50.0509 166.31 55.0208C164.35 59.9907 163.37 65.081 163.37 70.3109C163.37 76.8407 164.89 83.1511 167.94 89.221C170.99 95.2908 175.421 100.431 181.23 104.611C190.67 111.671 201.41 115.191 213.46 115.191C221.44 115.191 228.92 113.621 235.89 110.492C241.55 107.622 246.34 104.151 250.26 100.101V100.091C254.18 96.0412 257.01 92.1905 258.75 88.5306C261.65 82.5208 263.11 76.3804 263.11 70.1107C263.11 61.4909 260.5 53.4205 255.271 45.9007C250.041 38.3907 242.86 32.8009 233.71 29.1409C227.03 26.531 220.13 25.2211 213.021 25.221ZM1097.51 25.221C1091.12 25.221 1084.99 26.2707 1079.11 28.3607C1073.23 30.4507 1067.97 33.5207 1063.32 37.5706L1059.62 41.1009C1055.7 45.4108 1052.76 50.051 1050.8 55.0208C1048.84 59.9907 1047.86 65.081 1047.86 70.3109C1047.86 76.8407 1049.38 83.1511 1052.43 89.221C1055.48 95.3008 1059.91 100.431 1065.72 104.611C1075.16 111.671 1085.9 115.191 1097.95 115.191C1105.93 115.191 1113.41 113.621 1120.38 110.492C1126.04 107.622 1130.83 104.151 1134.75 100.101V100.091C1138.67 96.0413 1141.5 92.1905 1143.24 88.5306C1146.14 82.5209 1147.6 76.3803 1147.6 70.1107C1147.6 61.4909 1144.99 53.4205 1139.76 45.9007C1134.53 38.391 1127.35 32.8009 1118.2 29.1409C1111.52 26.5309 1104.62 25.221 1097.51 25.221ZM30.71 27.6107C29.9801 27.6107 29.3603 27.8412 28.8604 28.3011C28.3505 28.761 28.0996 29.3111 28.0996 29.971V112.881H48.1396V112.861H48.1299C56.6998 112.861 64.6102 110.971 71.8701 107.181C79.1298 103.391 84.8998 98.2311 89.1797 91.7015C93.4596 85.1716 95.5995 78.051 95.5996 70.3411C95.5996 62.6312 93.4596 55.5109 89.1797 48.971C84.8997 42.4411 79.12 37.2409 71.8701 33.3909C64.6101 29.5409 56.6999 27.6107 48.1299 27.6107H30.71ZM915.19 27.6107C914.46 27.6107 913.84 27.8411 913.34 28.3011C912.83 28.761 912.58 29.3112 912.58 29.971V112.881H932.62V112.861H932.61C941.18 112.861 949.09 110.971 956.35 107.181C963.609 103.391 969.38 98.2313 973.66 91.7015C977.94 85.1716 980.08 78.051 980.08 70.3411C980.08 62.6312 977.94 55.5109 973.66 48.971C969.38 42.4411 963.6 37.2409 956.35 33.3909C949.09 29.5411 941.18 27.6107 932.61 27.6107H915.19ZM1504.01 85.6712C1502.97 83.2212 1499.87 81.0403 1495.68 81.0403C1489.75 81.0405 1483.27 85.3409 1483.27 95.7405C1483.27 106.14 1489.75 110.441 1495.68 110.441C1499.87 110.441 1502.97 108.261 1504.01 105.811V109.891H1511.96V71.7903H1504.01V85.6712ZM1265.1 81.0306C1256.28 81.0307 1252.58 84.1907 1252.58 89.7405V91.0511H1260.04V90.511C1260.04 87.5712 1262.44 86.7504 1264.89 86.7503C1267.34 86.7503 1269.3 87.5609 1269.3 90.5609V90.9407C1269.3 92.5107 1268.48 92.9504 1265.87 93.3304L1261.08 94.0403C1256.18 94.7503 1251.06 96.1107 1251.06 102.37C1251.06 108.2 1255.52 110.431 1260.15 110.431C1266.36 110.431 1268.64 106.401 1269.19 104.881H1269.52V109.891H1277.09L1277.08 109.881V90.2308C1277.08 84.0808 1273.92 81.0306 1265.1 81.0306ZM1292.61 81.0306C1285.48 81.0306 1278.4 85.4408 1278.4 95.7308C1278.4 106.021 1285.48 110.431 1292.61 110.431C1299.74 110.431 1306.82 106.021 1306.82 95.7308C1306.82 85.4409 1299.74 81.0307 1292.61 81.0306ZM1330.87 81.0306C1322.05 81.0306 1318.35 84.1907 1318.35 89.7405V91.0511H1325.81V90.511C1325.81 87.571 1328.21 86.7503 1330.66 86.7503C1333.11 86.7503 1335.07 87.5609 1335.07 90.5609V90.9407C1335.07 92.5107 1334.25 92.9504 1331.64 93.3304L1326.85 94.0403C1321.95 94.7503 1316.83 96.1108 1316.83 102.37C1316.83 108.2 1321.29 110.431 1325.92 110.431C1332.13 110.431 1334.42 106.401 1334.96 104.881H1335.29V109.891H1342.86L1342.85 109.881V90.2308C1342.85 84.0808 1339.69 81.0306 1330.87 81.0306ZM1384.49 81.0306C1375.67 81.0306 1371.97 84.1907 1371.97 89.7405V91.0511H1379.43V90.511C1379.43 87.571 1381.83 86.7503 1384.28 86.7503C1386.73 86.7504 1388.69 87.561 1388.69 90.5609V90.9407C1388.69 92.5107 1387.87 92.9504 1385.26 93.3304L1380.47 94.0403C1375.57 94.7503 1370.45 96.1108 1370.45 102.37C1370.45 108.2 1374.91 110.431 1379.54 110.431C1385.75 110.431 1388.04 106.401 1388.58 104.881H1388.91V109.891H1396.48L1396.47 109.881V90.2308C1396.47 84.0808 1393.31 81.0306 1384.49 81.0306ZM1469.97 81.0306C1461.15 81.0306 1457.45 84.1907 1457.45 89.7405V91.0511H1464.91V90.511C1464.91 87.5711 1467.31 86.7504 1469.76 86.7503C1472.21 86.7503 1474.17 87.5609 1474.17 90.5609V90.9407C1474.17 92.5106 1473.35 92.9504 1470.74 93.3304L1465.95 94.0403C1461.05 94.7503 1455.93 96.1107 1455.93 102.37C1455.93 108.2 1460.39 110.431 1465.02 110.431C1471.23 110.431 1473.51 106.401 1474.06 104.881H1474.39V109.891H1481.96L1481.95 109.881V90.2308C1481.95 84.0808 1478.79 81.0306 1469.97 81.0306ZM1527.75 81.0306C1520.62 81.0306 1513.54 85.4408 1513.54 95.7308C1513.54 106.021 1520.62 110.431 1527.75 110.431C1534.88 110.431 1541.96 106.021 1541.96 95.7308C1541.96 85.4408 1534.88 81.0306 1527.75 81.0306ZM1352.55 109.891H1362.57L1372.86 81.5804H1364.8L1357.72 102.271H1357.45L1350.37 81.5804H1342.26L1352.55 109.891ZM1417.01 81.0306C1411.18 81.0307 1408.46 84.8411 1407.97 87.511H1407.64V81.5804H1399.69V109.891H1407.64V93.8304C1407.64 89.5306 1410.25 87.6204 1413.57 87.6204C1416.89 87.6206 1418.8 89.5308 1418.8 93.8304V109.891H1426.75V91.9212C1426.75 84.5712 1422.51 81.0306 1417.01 81.0306ZM1269.29 100.031C1269.29 102.27 1266.63 104.771 1262.87 104.771C1260.15 104.771 1259.01 103.461 1259.01 101.721C1259.01 100.251 1259.82 99.0513 1262.27 98.6712L1266.25 97.9603H1266.24C1267.49 97.7403 1268.86 97.5203 1269.29 96.8704V100.031ZM1335.07 100.031C1335.07 102.271 1332.41 104.771 1328.65 104.771C1325.92 104.771 1324.78 103.461 1324.78 101.721C1324.78 100.251 1325.6 99.0512 1328.05 98.6712L1332.02 97.9603C1333.27 97.7403 1334.64 97.5203 1335.07 96.8704V100.031ZM1388.69 100.031C1388.69 102.271 1386.03 104.771 1382.27 104.771C1379.54 104.771 1378.4 103.461 1378.4 101.721C1378.4 100.251 1379.22 99.0512 1381.67 98.6712L1385.65 97.9603H1385.64C1386.89 97.7403 1388.25 97.5204 1388.69 96.8704V100.031ZM1474.17 100.031C1474.17 102.271 1471.51 104.771 1467.75 104.771C1465.03 104.771 1463.89 103.461 1463.89 101.721C1463.89 100.251 1464.7 99.0512 1467.15 98.6712L1471.13 97.9603H1471.12C1472.37 97.7403 1473.74 97.5204 1474.17 96.8704V100.031ZM1292.61 87.6204C1296.42 87.6206 1299.36 90.121 1299.36 95.7308C1299.36 101.34 1296.42 103.841 1292.61 103.841C1288.8 103.841 1285.86 101.341 1285.86 95.7308C1285.86 90.1208 1288.8 87.6204 1292.61 87.6204ZM1497.59 87.6204C1501.07 87.6204 1504.34 90.1808 1504.34 95.7308C1504.34 101.281 1501.13 103.841 1497.59 103.841C1494.05 103.841 1490.78 101.281 1490.78 95.7308C1490.78 90.181 1494.05 87.6206 1497.59 87.6204ZM1527.75 87.6204C1531.56 87.6204 1534.5 90.1208 1534.5 95.7308C1534.5 101.341 1531.56 103.841 1527.75 103.841C1523.94 103.841 1521 101.341 1521 95.7308C1521 90.1208 1523.94 87.6204 1527.75 87.6204ZM680.57 25.6409C679.27 25.6409 678.03 26.0407 676.87 26.8206C675.71 27.6005 675.05 28.521 674.91 29.5609L662.93 69.9407L662.71 70.9212C662.71 71.9709 663.07 72.8211 663.8 73.471C664.53 74.1308 665.54 74.4514 666.85 74.4515H695.54C696.85 74.4515 697.87 74.1308 698.59 73.471C699.32 72.8211 699.68 71.971 699.68 70.9212L699.46 69.9407L687.48 29.5609C687.34 28.521 686.68 27.6005 685.521 26.8206C684.361 26.0307 683.13 25.641 681.82 25.6409H680.57ZM1432.14 39.3109C1425.17 39.311 1417.88 43.501 1417.88 54.0609C1417.88 64.6205 1425.17 68.7004 1432.14 68.7005C1437.15 68.7005 1444.23 66.6307 1445.1 57.1009H1437.92C1437.21 60.4707 1435.25 62.0511 1432.09 62.0511C1427.57 62.051 1425.39 58.7308 1425.39 54.0511C1425.39 49.3711 1427.57 45.9408 1432.09 45.9407C1435.14 45.9407 1437.21 47.3507 1437.92 50.7806H1445.1C1444.06 41.2507 1437.09 39.2903 1432.14 39.2903V39.3109ZM1299.85 39.2903C1292.72 39.2905 1285.64 43.7009 1285.64 53.9905C1285.64 64.2803 1292.72 68.6906 1299.85 68.6907C1306.98 68.6907 1314.06 64.2805 1314.06 53.9905C1314.06 43.7007 1306.98 39.2903 1299.85 39.2903ZM1325.44 68.1409H1333.39V64.0609C1334.43 66.5108 1337.53 68.6907 1341.72 68.6907C1347.65 68.6907 1354.13 64.3905 1354.13 53.9905C1354.13 43.5907 1347.65 39.2903 1341.72 39.2903C1337.53 39.2904 1334.43 41.4712 1333.39 43.9212V30.0403H1325.44V68.1409ZM1459.42 39.2903C1452.29 39.2904 1445.21 43.7007 1445.21 53.9905C1445.21 64.2804 1452.29 68.6907 1459.42 68.6907C1466.55 68.6907 1473.63 64.2805 1473.63 53.9905C1473.63 43.7007 1466.55 39.2903 1459.42 39.2903ZM1368.38 39.2903C1359.56 39.2904 1355.86 42.4506 1355.86 48.0003V49.3109H1363.32V48.7708C1363.32 45.8309 1365.61 45.0111 1368.17 45.011L1368.16 45.0003C1370.61 45.0003 1372.57 45.8109 1372.57 48.8109V49.1907C1372.57 50.7607 1371.75 51.2004 1369.14 51.5804L1364.35 52.2903C1359.45 53.0003 1354.33 54.3608 1354.33 60.6204C1354.33 66.4503 1358.79 68.6809 1363.42 68.681C1369.63 68.681 1371.92 64.6515 1372.46 63.1312H1372.79V68.1409H1380.36V48.4905C1380.36 42.3407 1377.2 39.2903 1368.38 39.2903ZM1394.47 39.2903C1387.61 39.2904 1382.87 42.4507 1382.87 47.9505C1382.87 51.7004 1384.99 54.861 1390.93 56.221L1396.16 57.3109H1396.15C1398 57.6909 1398.87 58.5009 1398.87 59.8109C1398.87 61.8207 1397.08 62.7503 1394.41 62.7503C1391.31 62.7503 1389.51 61.5003 1389.24 58.8304H1382.11C1382.16 65.3604 1386.79 68.681 1394.36 68.681C1401.22 68.6809 1407.05 65.9506 1407.05 59.6409C1407.05 54.6309 1403.34 52.5604 1398.88 51.5804L1393.54 50.4407C1391.64 50.0608 1390.6 49.1408 1390.6 47.721C1390.6 46.201 1391.86 45.221 1394.58 45.221C1397.3 45.221 1399.15 46.2612 1399.48 49.0911H1406.12C1406.01 42.9911 1402.04 39.2903 1394.47 39.2903ZM1252.42 68.1507H1266.85C1278.72 68.1507 1284.87 61.3408 1284.87 49.0911C1284.87 36.8411 1278.72 30.0403 1266.85 30.0403H1252.42V68.1507ZM1408.35 68.1507H1416.3V39.8411H1408.35V68.1507ZM1372.58 58.2903C1372.58 60.5303 1369.92 63.0305 1366.16 63.0306C1363.43 63.0306 1362.29 61.7207 1362.29 59.9808C1362.29 58.5108 1363.11 57.311 1365.56 56.931L1369.53 56.221C1370.78 56.001 1372.14 55.7809 1372.58 55.1312V58.2903ZM1299.85 45.8812C1303.66 45.8814 1306.6 48.3809 1306.6 53.9905C1306.6 59.6003 1303.66 62.1007 1299.85 62.1009C1296.04 62.1009 1293.1 59.6005 1293.1 53.9905C1293.1 48.3807 1296.04 45.8812 1299.85 45.8812ZM1339.81 45.8812C1343.35 45.8814 1346.62 48.4409 1346.62 53.9905C1346.62 59.5402 1343.35 62.1007 1339.81 62.1009C1336.33 62.1009 1333.06 59.5405 1333.06 53.9905C1333.06 48.4407 1336.27 45.8812 1339.81 45.8812ZM1459.42 45.8812C1463.23 45.8812 1466.17 48.3807 1466.17 53.9905C1466.17 59.6005 1463.23 62.1009 1459.42 62.1009C1455.61 62.1009 1452.67 59.6005 1452.67 53.9905C1452.67 48.3807 1455.61 45.8812 1459.42 45.8812ZM1266.03 37.1107C1273.82 37.1108 1276.54 40.7113 1276.54 49.0911L1276.53 49.8528C1276.37 57.6913 1273.58 61.0607 1266.03 61.0609H1260.59V37.1107H1266.03ZM1364.91 36.5706H1371.77L1377.54 28.9505H1370.63L1364.91 36.5706ZM1412.33 27.7503C1410.04 27.7503 1407.97 29.7206 1407.97 32.1605C1407.97 34.6004 1410.05 36.511 1412.33 36.511C1414.61 36.511 1416.68 34.6604 1416.68 32.1605C1416.68 29.6606 1414.62 27.7504 1412.33 27.7503Z" fill="#191919"/>
</svg>
