<svg width="75" height="75" viewBox="0 0 75 75" fill="none" xmlns="http://www.w3.org/2000/svg">
<circle cx="37.5" cy="37.5" r="37.5" fill="url(#paint0_linear_2003_19)"/>
<path fill-rule="evenodd" clip-rule="evenodd" d="M59.1667 37.0833C59.1667 49.28 49.28 59.1667 37.0834 59.1667C33.55 59.1667 30.211 58.3363 27.2519 56.8612C26.4704 56.4564 25.5677 56.3519 24.7145 56.5675L19.7987 57.8836C19.3122 58.0135 18.8 58.013 18.3137 57.8824C17.8274 57.7517 17.3839 57.4954 17.028 57.1392C16.672 56.783 16.416 56.3394 16.2856 55.853C16.1553 55.3666 16.1551 54.8544 16.2853 54.368L17.5992 49.4522C17.8136 48.5994 17.7083 47.6976 17.3033 46.917C15.7832 43.8622 14.9946 40.4955 15 37.0833C15 24.8867 24.8867 15 37.0834 15C49.28 15 59.1667 24.8867 59.1667 37.0833ZM37.0834 26.5938C37.5226 26.5938 37.9439 26.7682 38.2545 27.0789C38.5651 27.3895 38.7396 27.8107 38.7396 28.25V28.2721C41.1445 28.8794 43.1563 30.7741 43.1563 33.402C43.1563 33.8413 42.9818 34.2626 42.6712 34.5732C42.3606 34.8838 41.9393 35.0583 41.5 35.0583C41.0608 35.0583 40.6395 34.8838 40.3289 34.5732C40.0183 34.2626 39.8438 33.8413 39.8438 33.402C39.8438 32.554 38.903 31.3792 37.0834 31.3792C35.2637 31.3792 34.3229 32.554 34.3229 33.402C34.3229 34.25 35.2637 35.4271 37.0834 35.4271C40.1419 35.4271 43.1563 37.5471 43.1563 40.7646C43.1563 43.3925 41.1445 45.2895 38.7396 45.8946V45.9167C38.7396 46.3559 38.5651 46.7772 38.2545 47.0878C37.9439 47.3984 37.5226 47.5729 37.0834 47.5729C36.6441 47.5729 36.2228 47.3984 35.9122 47.0878C35.6016 46.7772 35.4271 46.3559 35.4271 45.9167V45.8946C33.0222 45.2895 31.0104 43.3925 31.0104 40.7646C31.0104 40.3254 31.1849 39.9041 31.4956 39.5935C31.8062 39.2829 32.2274 39.1084 32.6667 39.1084C33.106 39.1084 33.5272 39.2829 33.8378 39.5935C34.1484 39.9041 34.3229 40.3254 34.3229 40.7646C34.3229 41.6126 35.2637 42.7875 37.0834 42.7875C38.903 42.7875 39.8438 41.6126 39.8438 40.7646C39.8438 39.9166 38.903 38.7396 37.0834 38.7396C34.0248 38.7396 31.0104 36.6196 31.0104 33.402C31.0104 30.7741 33.0222 28.8794 35.4271 28.2721V28.25C35.4271 27.8107 35.6016 27.3895 35.9122 27.0789C36.2228 26.7682 36.6441 26.5938 37.0834 26.5938Z" fill="white"/>
<defs>
<linearGradient id="paint0_linear_2003_19" x1="0" y1="37.5" x2="75" y2="37.5" gradientUnits="userSpaceOnUse">
<stop stop-color="#F15025"/>
<stop offset="1" stop-color="#FF8630"/>
</linearGradient>
</defs>
</svg>
