<svg width="75" height="75" viewBox="0 0 75 75" fill="none" xmlns="http://www.w3.org/2000/svg">
<circle cx="37.5" cy="37.5" r="37.5" fill="url(#paint0_linear_2003_21)"/>
<path d="M42.0394 18.0187C40.852 13.9937 35.148 13.9937 33.9606 18.0187L33.6731 18.9962C33.4957 19.5988 33.1857 20.1541 32.7658 20.6212C32.3458 21.0884 31.8267 21.4557 31.2463 21.6961C30.666 21.9365 30.0392 22.0439 29.4119 22.0106C28.7847 21.9772 28.1728 21.8039 27.6212 21.5033L26.73 21.0145C23.0414 19.0078 19.0078 23.0414 21.0174 26.7271L21.5033 27.6212C22.7855 29.9787 21.5694 32.9141 18.9962 33.6731L18.0187 33.9606C13.9937 35.148 13.9937 40.852 18.0187 42.0394L18.9962 42.3269C19.5988 42.5043 20.1541 42.8143 20.6212 43.2342C21.0884 43.6542 21.4557 44.1733 21.6961 44.7537C21.9365 45.334 22.0439 45.9608 22.0106 46.5881C21.9772 47.2153 21.8039 47.8272 21.5033 48.3787L21.0145 49.27C19.0078 52.9586 23.0414 56.9922 26.7271 54.9826L27.6212 54.4967C28.1728 54.1961 28.7847 54.0228 29.4119 53.9894C30.0392 53.9561 30.666 54.0635 31.2463 54.3039C31.8267 54.5443 32.3458 54.9116 32.7658 55.3788C33.1857 55.8459 33.4957 56.4012 33.6731 57.0037L33.9606 57.9813C35.148 62.0062 40.852 62.0062 42.0394 57.9813L42.3269 57.0037C42.5043 56.4012 42.8143 55.8459 43.2342 55.3788C43.6542 54.9116 44.1733 54.5443 44.7537 54.3039C45.334 54.0635 45.9608 53.9561 46.5881 53.9894C47.2153 54.0228 47.8272 54.1961 48.3787 54.4967L49.27 54.9855C52.9586 56.9922 56.9922 52.9586 54.9826 49.2729L54.4967 48.3787C54.1961 47.8272 54.0228 47.2153 53.9894 46.5881C53.9561 45.9608 54.0635 45.334 54.3039 44.7537C54.5443 44.1733 54.9116 43.6542 55.3788 43.2342C55.8459 42.8143 56.4012 42.5043 57.0037 42.3269L57.9813 42.0394C62.0062 40.852 62.0062 35.148 57.9813 33.9606L57.0037 33.6731C56.4012 33.4957 55.8459 33.1857 55.3788 32.7658C54.9116 32.3458 54.5443 31.8267 54.3039 31.2463C54.0635 30.666 53.9561 30.0392 53.9894 29.4119C54.0228 28.7847 54.1961 28.1728 54.4967 27.6212L54.9855 26.73C56.9922 23.0414 52.9586 19.0078 49.2729 21.0174L48.3787 21.5033C47.8272 21.8039 47.2153 21.9772 46.5881 22.0106C45.9608 22.0439 45.334 21.9365 44.7537 21.6961C44.1733 21.4557 43.6542 21.0884 43.2342 20.6212C42.8143 20.1541 42.5043 19.5988 42.3269 18.9962L42.0394 18.0187ZM38 46.4238C35.7659 46.4238 33.6233 45.5363 32.0435 43.9565C30.4638 42.3767 29.5763 40.2341 29.5763 38C29.5763 35.7659 30.4638 33.6233 32.0435 32.0435C33.6233 30.4638 35.7659 29.5763 38 29.5763C40.2334 29.5763 42.3752 30.4634 43.9545 32.0427C45.5337 33.6219 46.4209 35.7638 46.4209 37.9971C46.4209 40.2305 45.5337 42.3724 43.9545 43.9516C42.3752 45.5308 40.2334 46.418 38 46.418V46.4238Z" fill="white"/>
<defs>
<linearGradient id="paint0_linear_2003_21" x1="0" y1="37.5" x2="75" y2="37.5" gradientUnits="userSpaceOnUse">
<stop stop-color="#F15025"/>
<stop offset="1" stop-color="#FF8630"/>
</linearGradient>
</defs>
</svg>
