<svg width="1920" height="120" viewBox="0 0 1920 120" fill="none" xmlns="http://www.w3.org/2000/svg">
<rect width="2300" height="120" transform="translate(-190)" fill="url(#paint0_linear_66_175)"/>
<path d="M14.4157 86.9633C14.4157 87.32 14.1628 87.5 13.6578 87.5H9.21994C8.82198 87.5 8.52549 87.4683 8.3265 87.4025C8.12752 87.3359 7.95708 87.175 7.81121 86.9157L2.18342 75.5175C2.0764 75.3216 1.93053 75.1924 1.75058 75.1258C1.57062 75.0624 1.20753 75.0307 0.667667 75.0307H-3.9343C-4.36714 75.0307 -4.69852 75.0878 -4.93555 75.2011C-5.16941 75.3145 -5.28595 75.5484 -5.28595 75.9051V86.6216C-5.28595 86.884 -5.38346 87.0925 -5.58244 87.2566C-5.78143 87.4176 -6.0248 87.5 -6.31257 87.5H-10.5356C-10.8257 87.5 -11.0691 87.4176 -11.2649 87.2566C-11.4639 87.0925 -11.5654 86.884 -11.5654 86.6216V75.0069C-10.8472 74.448 -10.1701 73.8503 -9.54306 73.2129C-8.6631 72.3218 -7.86638 71.3452 -7.17272 70.3074C-7.09978 70.2044 -7.0316 70.1029 -6.96581 69.9999C-6.47905 69.2459 -6.05651 68.4675 -5.68867 67.6787C-4.78493 67.3433 -3.90179 66.9549 -3.05354 66.5078C-0.594402 65.2132 1.5183 63.5444 3.22986 61.5451C3.80382 60.872 4.34131 60.153 4.82727 59.4054C5.75242 57.9832 6.46987 56.4627 6.96693 54.8867C8.77838 55.8555 10.2275 57.1437 11.3001 58.7593C12.4021 60.4178 12.9515 62.2364 12.9515 64.2167C12.9515 65.9029 12.5281 67.4947 11.6783 68.9891C10.8316 70.4826 9.66706 71.7336 8.18856 72.7412C7.97056 72.8704 7.86354 73.0322 7.86354 73.228C7.86354 73.4238 7.88256 73.5847 7.91744 73.7147L14.1961 86.3323C14.3412 86.5598 14.4141 86.7683 14.4141 86.9641H14.4157V86.9633ZM-17.7925 41.5874C-16.792 41.9402 -15.8011 42.3738 -14.8538 42.874C-11.5662 44.6046 -8.9144 47.0051 -6.97532 50.0065C-6.52741 50.7041 -6.13024 51.4152 -5.78856 52.1279C-4.93951 53.8878 -4.38696 55.7635 -4.14755 57.697C-4.05162 58.4533 -4.00247 59.2397 -4.00247 60.0262C-4.00247 61.3628 -4.14279 62.6811 -4.41867 63.9456C-4.42422 63.9717 -4.43135 63.9979 -4.4369 64.024C-4.41629 64.0137 -4.39568 64.0042 -4.37507 63.9931C-2.22749 62.8626 -0.411278 61.4317 1.07039 59.7011C1.56665 59.12 2.02408 58.5072 2.44741 57.8564C3.28139 56.5737 3.90291 55.2316 4.32307 53.8323C4.74958 52.4173 4.96125 50.9396 4.96125 49.404C4.96125 46.3495 4.12409 43.5265 2.44741 40.927C0.766762 38.3307 -1.5037 36.2751 -4.37507 34.7649C-7.24327 33.2555 -10.3731 32.5 -13.7645 32.5H-24.588C-24.9131 32.5 -25.185 32.607 -25.3998 32.8155C-25.6178 33.0272 -25.7248 33.2801 -25.7248 33.5702V40.2785H-25.5703C-22.8519 40.2785 -20.2342 40.7185 -17.7909 41.5858L-17.7925 41.5874ZM-11.5646 71.2159C-12.8782 72.5517 -14.4169 73.6854 -16.1824 74.6145C-19.0506 76.1239 -22.1836 76.8794 -25.5718 76.8794H-35.9657C-36.3986 76.8794 -36.768 76.7407 -37.074 76.4656C-37.3808 76.1873 -37.5322 75.856 -37.5322 75.4643V44.1932C-37.5322 43.9022 -37.4252 43.6501 -37.2103 43.4385C-36.9923 43.2268 -36.7212 43.123 -36.3986 43.123H-25.5718C-23.165 43.123 -20.8882 43.5051 -18.7438 44.2661C-17.8654 44.5753 -17.0132 44.9487 -16.1824 45.3871C-13.3142 46.8965 -11.0406 48.9529 -9.3639 51.5492C-8.98496 52.1398 -8.64725 52.7431 -8.35313 53.3559C-7.63331 54.8494 -7.17192 56.4136 -6.96977 58.0458C-6.88811 58.6935 -6.84689 59.3531 -6.84689 60.0262C-6.84689 61.163 -6.96343 62.2689 -7.19729 63.3391C-7.34871 64.0399 -7.55086 64.7256 -7.80375 65.3987C-8.20172 66.4602 -8.72256 67.4828 -9.3639 68.4746C-9.41146 68.5507 -9.4622 68.6228 -9.51532 68.6989C-10.1186 69.6051 -10.8043 70.4454 -11.5654 71.2159H-11.5646ZM-24.2313 61.4412C-25.0859 61.0996 -26.5604 60.834 -27.4816 60.7912C-28.9038 60.7246 -30.0922 61.0544 -30.8921 62.2934C-32.2849 64.4505 -30.7406 67.3528 -28.1721 67.3711C-25.8842 67.3877 -24.9765 65.4399 -24.3518 63.5619C-24.2146 63.1496 -23.9594 62.4005 -23.9158 61.9898C-23.8817 61.6711 -23.9364 61.5594 -24.2313 61.4412ZM-23.0747 60.5827C-22.8138 60.3615 -22.4912 60.0008 -22.2542 59.7424C-21.5819 59.0106 -20.8312 58.0934 -20.4324 57.1809C-19.4185 54.8605 -21.2862 52.4498 -23.7548 52.6416C-25.7122 52.7938 -27.1748 54.8146 -26.646 56.7188C-26.3281 57.8643 -25.3126 59.1089 -24.485 59.9461C-24.3058 60.1268 -23.7937 60.6477 -23.59 60.7309C-23.3751 60.8189 -23.2332 60.7174 -23.0747 60.5827ZM-16.0136 62.2927C-16.8135 61.0536 -18.0026 60.7238 -19.424 60.7904C-20.3452 60.834 -21.8197 61.0996 -22.6743 61.4404C-22.9692 61.5586 -23.0239 61.6703 -22.9898 61.989C-22.9462 62.3997 -22.691 63.1488 -22.5538 63.5611C-21.9291 65.4391 -21.0214 67.3869 -18.7335 67.3703C-16.165 67.352 -14.6199 64.449 -16.0136 62.2927Z" fill="#191919"/>
<path d="M54.561 62.4426C53.1165 61.8631 50.624 61.4127 49.0669 61.3401C46.6629 61.2272 44.6542 61.7865 43.3021 63.888C40.9477 67.5465 43.5581 72.4689 47.8998 72.4998C51.7671 72.5281 53.3014 69.2245 54.3573 66.0393C54.5892 65.3401 55.0207 64.0695 55.0944 63.3731C55.152 62.8326 55.0595 62.643 54.561 62.4426ZM56.5161 60.9865C56.957 60.6114 57.5024 59.9996 57.9031 59.5613C59.0394 58.3203 60.3084 56.7646 60.9824 55.2171C62.6963 51.2816 59.5392 47.1928 55.3664 47.5182C52.0579 47.7764 49.5855 51.2036 50.4793 54.4332C51.0167 56.3761 52.7332 58.487 54.1322 59.9068C54.4351 60.2134 55.3007 61.0968 55.6451 61.2379C56.0083 61.3872 56.2481 61.2151 56.5161 60.9865ZM68.4517 63.8867C67.0997 61.7852 65.0896 61.2258 62.687 61.3388C61.1298 61.4127 58.6374 61.8631 57.1928 62.4413C56.6943 62.6416 56.6019 62.8312 56.6595 63.3717C56.7332 64.0682 57.1647 65.3388 57.3965 66.038C58.4525 69.2232 59.9868 72.5267 63.8541 72.4985C68.1958 72.4676 70.8075 67.5438 68.4517 63.8867Z" fill="#FFF9DF"/>
<path d="M149.287 86.9633C149.287 87.32 149.034 87.5 148.529 87.5H144.091C143.693 87.5 143.396 87.4683 143.197 87.4025C142.998 87.3359 142.828 87.175 142.682 86.9157L137.054 75.5175C136.947 75.3216 136.801 75.1924 136.622 75.1258C136.442 75.0624 136.078 75.0307 135.539 75.0307H130.937C130.504 75.0307 130.172 75.0878 129.935 75.2011C129.702 75.3145 129.585 75.5484 129.585 75.9051V86.6216C129.585 86.884 129.487 87.0925 129.288 87.2566C129.09 87.4176 128.846 87.5 128.558 87.5H124.335C124.045 87.5 123.802 87.4176 123.606 87.2566C123.407 87.0925 123.306 86.884 123.306 86.6216V75.0069C124.024 74.448 124.701 73.8503 125.328 73.2129C126.208 72.3218 127.005 71.3452 127.698 70.3074C127.771 70.2044 127.839 70.1029 127.905 69.9999C128.392 69.2459 128.814 68.4675 129.182 67.6787C130.086 67.3433 130.969 66.9549 131.817 66.5078C134.277 65.2132 136.389 63.5444 138.101 61.5451C138.675 60.872 139.212 60.153 139.698 59.4054C140.623 57.9832 141.341 56.4627 141.838 54.8867C143.649 55.8555 145.098 57.1437 146.171 58.7593C147.273 60.4178 147.822 62.2364 147.822 64.2167C147.822 65.9029 147.399 67.4947 146.549 68.9891C145.703 70.4826 144.538 71.7336 143.06 72.7412C142.841 72.8704 142.734 73.0322 142.734 73.228C142.734 73.4238 142.754 73.5847 142.788 73.7147L149.067 86.3323C149.212 86.5598 149.285 86.7683 149.285 86.9641H149.287V86.9633ZM117.078 41.5874C118.079 41.9402 119.07 42.3738 120.017 42.874C123.305 44.6046 125.957 47.0051 127.896 50.0065C128.344 50.7041 128.741 51.4152 129.082 52.1279C129.931 53.8878 130.484 55.7635 130.723 57.697C130.819 58.4533 130.868 59.2397 130.868 60.0262C130.868 61.3628 130.728 62.6811 130.452 63.9456C130.447 63.9717 130.44 63.9979 130.434 64.024C130.455 64.0137 130.475 64.0042 130.496 63.9931C132.643 62.8626 134.46 61.4317 135.941 59.7011C136.438 59.12 136.895 58.5072 137.318 57.8564C138.152 56.5737 138.774 55.2316 139.194 53.8323C139.621 52.4173 139.832 50.9396 139.832 49.404C139.832 46.3495 138.995 43.5265 137.318 40.927C135.638 38.3307 133.367 36.2751 130.496 34.7649C127.628 33.2555 124.498 32.5 121.106 32.5H110.283C109.958 32.5 109.686 32.607 109.471 32.8155C109.253 33.0272 109.146 33.2801 109.146 33.5702V40.2785H109.301C112.019 40.2785 114.637 40.7185 117.08 41.5858L117.078 41.5874ZM123.306 71.2159C121.993 72.5517 120.454 73.6854 118.689 74.6145C115.82 76.1239 112.687 76.8794 109.299 76.8794H98.9052C98.4724 76.8794 98.103 76.7407 97.797 76.4656C97.4902 76.1873 97.3387 75.856 97.3387 75.4643V44.1932C97.3387 43.9022 97.4458 43.6501 97.6606 43.4385C97.8786 43.2268 98.1497 43.123 98.4724 43.123H109.299C111.706 43.123 113.983 43.5051 116.127 44.2661C117.005 44.5753 117.858 44.9487 118.689 45.3871C121.557 46.8965 123.83 48.9529 125.507 51.5492C125.886 52.1398 126.224 52.7431 126.518 53.3559C127.238 54.8494 127.699 56.4136 127.901 58.0458C127.983 58.6935 128.024 59.3531 128.024 60.0262C128.024 61.163 127.908 62.2689 127.674 63.3391C127.522 64.0399 127.32 64.7256 127.067 65.3987C126.669 66.4602 126.148 67.4828 125.507 68.4746C125.459 68.5507 125.409 68.6228 125.356 68.6989C124.752 69.6051 124.067 70.4454 123.306 71.2159H123.306ZM110.64 61.4412C109.785 61.0996 108.311 60.834 107.389 60.7912C105.967 60.7246 104.779 61.0544 103.979 62.2934C102.586 64.4505 104.13 67.3528 106.699 67.3711C108.987 67.3877 109.894 65.4399 110.519 63.5619C110.656 63.1496 110.912 62.4005 110.955 61.9898C110.989 61.6711 110.935 61.5594 110.64 61.4412ZM111.796 60.5827C112.057 60.3615 112.38 60.0008 112.617 59.7424C113.289 59.0106 114.04 58.0934 114.439 57.1809C115.452 54.8605 113.585 52.4498 111.116 52.6416C109.159 52.7938 107.696 54.8146 108.225 56.7188C108.543 57.8643 109.558 59.1089 110.386 59.9461C110.565 60.1268 111.077 60.6477 111.281 60.7309C111.496 60.8189 111.638 60.7174 111.796 60.5827ZM118.857 62.2927C118.057 61.0536 116.868 60.7238 115.447 60.7904C114.526 60.834 113.051 61.0996 112.197 61.4404C111.902 61.5586 111.847 61.6703 111.881 61.989C111.925 62.3997 112.18 63.1488 112.317 63.5611C112.942 65.4391 113.85 67.3869 116.137 67.3703C118.706 67.352 120.251 64.449 118.857 62.2927Z" fill="#191919"/>
<path d="M189.432 62.4426C187.987 61.8631 185.495 61.4127 183.938 61.3401C181.534 61.2272 179.525 61.7865 178.173 63.888C175.819 67.5465 178.429 72.4689 182.771 72.4998C186.638 72.5281 188.172 69.2245 189.228 66.0393C189.46 65.3401 189.892 64.0695 189.965 63.3731C190.023 62.8326 189.93 62.643 189.432 62.4426ZM191.387 60.9865C191.828 60.6114 192.373 59.9996 192.774 59.5613C193.91 58.3203 195.179 56.7646 195.853 55.2171C197.567 51.2816 194.41 47.1928 190.237 47.5182C186.929 47.7764 184.456 51.2036 185.35 54.4332C185.888 56.3761 187.604 58.487 189.003 59.9068C189.306 60.2134 190.172 61.0968 190.516 61.2379C190.879 61.3872 191.119 61.2151 191.387 60.9865ZM203.323 63.8867C201.971 61.7852 199.961 61.2258 197.558 61.3388C196.001 61.4127 193.508 61.8631 192.064 62.4413C191.565 62.6416 191.473 62.8312 191.53 63.3717C191.604 64.0682 192.036 65.3388 192.267 66.038C193.323 69.2232 194.858 72.5267 198.725 72.4985C203.067 72.4676 205.678 67.5438 203.323 63.8867Z" fill="#FFF9DF"/>
<path d="M284.158 86.9633C284.158 87.32 283.905 87.5 283.4 87.5H278.962C278.564 87.5 278.267 87.4683 278.068 87.4025C277.869 87.3359 277.699 87.175 277.553 86.9157L271.925 75.5175C271.818 75.3216 271.672 75.1924 271.492 75.1258C271.312 75.0624 270.949 75.0307 270.41 75.0307H265.808C265.375 75.0307 265.043 75.0878 264.806 75.2011C264.572 75.3145 264.456 75.5484 264.456 75.9051V86.6216C264.456 86.884 264.358 87.0925 264.159 87.2566C263.96 87.4176 263.717 87.5 263.429 87.5H259.206C258.916 87.5 258.673 87.4176 258.477 87.2566C258.278 87.0925 258.176 86.884 258.176 86.6216V75.0069C258.895 74.448 259.572 73.8503 260.199 73.2129C261.079 72.3218 261.876 71.3452 262.569 70.3074C262.642 70.2044 262.71 70.1029 262.776 69.9999C263.263 69.2459 263.685 68.4675 264.053 67.6787C264.957 67.3433 265.84 66.9549 266.688 66.5078C269.147 65.2132 271.26 63.5444 272.972 61.5451C273.546 60.872 274.083 60.153 274.569 59.4054C275.494 57.9832 276.212 56.4627 276.709 54.8867C278.52 55.8555 279.969 57.1437 281.042 58.7593C282.144 60.4178 282.693 62.2364 282.693 64.2167C282.693 65.9029 282.27 67.4947 281.42 68.9891C280.574 70.4826 279.409 71.7336 277.93 72.7412C277.712 72.8704 277.605 73.0322 277.605 73.228C277.605 73.4238 277.624 73.5847 277.659 73.7147L283.938 86.3323C284.083 86.5598 284.156 86.7683 284.156 86.9641H284.158V86.9633ZM251.949 41.5874C252.95 41.9402 253.941 42.3738 254.888 42.874C258.176 44.6046 260.827 47.0051 262.767 50.0065C263.214 50.7041 263.612 51.4152 263.953 52.1279C264.802 53.8878 265.355 55.7635 265.594 57.697C265.69 58.4533 265.739 59.2397 265.739 60.0262C265.739 61.3628 265.599 62.6811 265.323 63.9456C265.318 63.9717 265.311 63.9979 265.305 64.024C265.326 64.0137 265.346 64.0042 265.367 63.9931C267.514 62.8626 269.331 61.4317 270.812 59.7011C271.309 59.12 271.766 58.5072 272.189 57.8564C273.023 56.5737 273.645 55.2316 274.065 53.8323C274.491 52.4173 274.703 50.9396 274.703 49.404C274.703 46.3495 273.866 43.5265 272.189 40.927C270.509 38.3307 268.238 36.2751 265.367 34.7649C262.499 33.2555 259.369 32.5 255.977 32.5H245.154C244.829 32.5 244.557 32.607 244.342 32.8155C244.124 33.0272 244.017 33.2801 244.017 33.5702V40.2785H244.172C246.89 40.2785 249.508 40.7185 251.951 41.5858L251.949 41.5874ZM258.177 71.2159C256.864 72.5517 255.325 73.6854 253.559 74.6145C250.691 76.1239 247.558 76.8794 244.17 76.8794H233.776C233.343 76.8794 232.974 76.7407 232.668 76.4656C232.361 76.1873 232.21 75.856 232.21 75.4643V44.1932C232.21 43.9022 232.317 43.6501 232.532 43.4385C232.75 43.2268 233.021 43.123 233.343 43.123H244.17C246.577 43.123 248.854 43.5051 250.998 44.2661C251.876 44.5753 252.729 44.9487 253.559 45.3871C256.428 46.8965 258.701 48.9529 260.378 51.5492C260.757 52.1398 261.095 52.7431 261.389 53.3559C262.109 54.8494 262.57 56.4136 262.772 58.0458C262.854 58.6935 262.895 59.3531 262.895 60.0262C262.895 61.163 262.778 62.2689 262.545 63.3391C262.393 64.0399 262.191 64.7256 261.938 65.3987C261.54 66.4602 261.019 67.4828 260.378 68.4746C260.33 68.5507 260.28 68.6228 260.227 68.6989C259.623 69.6051 258.938 70.4454 258.176 71.2159H258.177ZM245.511 61.4412C244.656 61.0996 243.181 60.834 242.26 60.7912C240.838 60.7246 239.65 61.0544 238.85 62.2934C237.457 64.4505 239.001 67.3528 241.57 67.3711C243.858 67.3877 244.765 65.4399 245.39 63.5619C245.527 63.1496 245.783 62.4005 245.826 61.9898C245.86 61.6711 245.805 61.5594 245.511 61.4412ZM246.667 60.5827C246.928 60.3615 247.251 60.0008 247.488 59.7424C248.16 59.0106 248.911 58.0934 249.309 57.1809C250.323 54.8605 248.456 52.4498 245.987 52.6416C244.03 52.7938 242.567 54.8146 243.096 56.7188C243.414 57.8643 244.429 59.1089 245.257 59.9461C245.436 60.1268 245.948 60.6477 246.152 60.7309C246.367 60.8189 246.509 60.7174 246.667 60.5827ZM253.728 62.2927C252.928 61.0536 251.739 60.7238 250.318 60.7904C249.397 60.834 247.922 61.0996 247.068 61.4404C246.773 61.5586 246.718 61.6703 246.752 61.989C246.796 62.3997 247.051 63.1488 247.188 63.5611C247.813 65.4391 248.72 67.3869 251.008 67.3703C253.577 67.352 255.122 64.449 253.728 62.2927Z" fill="#191919"/>
<path d="M324.303 62.4426C322.858 61.8631 320.366 61.4127 318.809 61.3401C316.405 61.2272 314.396 61.7865 313.044 63.888C310.69 67.5465 313.3 72.4689 317.642 72.4998C321.509 72.5281 323.043 69.2245 324.099 66.0393C324.331 65.3401 324.763 64.0695 324.836 63.3731C324.894 62.8326 324.801 62.643 324.303 62.4426ZM326.258 60.9865C326.699 60.6114 327.244 59.9996 327.645 59.5613C328.781 58.3203 330.05 56.7646 330.724 55.2171C332.438 51.2816 329.281 47.1928 325.108 47.5182C321.8 47.7764 319.327 51.2036 320.221 54.4332C320.759 56.3761 322.475 58.487 323.874 59.9068C324.177 60.2134 325.043 61.0968 325.387 61.2379C325.75 61.3872 325.99 61.2151 326.258 60.9865ZM338.194 63.8867C336.842 61.7852 334.832 61.2258 332.429 61.3388C330.872 61.4127 328.379 61.8631 326.935 62.4413C326.436 62.6416 326.344 62.8312 326.401 63.3717C326.475 64.0682 326.907 65.3388 327.138 66.038C328.194 69.2232 329.729 72.5267 333.596 72.4985C337.938 72.4676 340.549 67.5438 338.194 63.8867Z" fill="#FFF9DF"/>
<path d="M419.029 86.9633C419.029 87.32 418.776 87.5 418.271 87.5H413.833C413.435 87.5 413.138 87.4683 412.939 87.4025C412.74 87.3359 412.57 87.175 412.424 86.9157L406.796 75.5175C406.689 75.3216 406.543 75.1924 406.363 75.1258C406.183 75.0624 405.82 75.0307 405.28 75.0307H400.679C400.246 75.0307 399.914 75.0878 399.677 75.2011C399.443 75.3145 399.327 75.5484 399.327 75.9051V86.6216C399.327 86.884 399.229 87.0925 399.03 87.2566C398.831 87.4176 398.588 87.5 398.3 87.5H394.077C393.787 87.5 393.544 87.4176 393.348 87.2566C393.149 87.0925 393.047 86.884 393.047 86.6216V75.0069C393.766 74.448 394.443 73.8503 395.07 73.2129C395.95 72.3218 396.746 71.3452 397.44 70.3074C397.513 70.2044 397.581 70.1029 397.647 69.9999C398.134 69.2459 398.556 68.4675 398.924 67.6787C399.828 67.3433 400.711 66.9549 401.559 66.5078C404.018 65.2132 406.131 63.5444 407.843 61.5451C408.417 60.872 408.954 60.153 409.44 59.4054C410.365 57.9832 411.083 56.4627 411.58 54.8867C413.391 55.8555 414.84 57.1437 415.913 58.7593C417.015 60.4178 417.564 62.2364 417.564 64.2167C417.564 65.9029 417.141 67.4947 416.291 68.9891C415.444 70.4826 414.28 71.7336 412.801 72.7412C412.583 72.8704 412.476 73.0322 412.476 73.228C412.476 73.4238 412.495 73.5847 412.53 73.7147L418.809 86.3323C418.954 86.5598 419.027 86.7683 419.027 86.9641H419.029V86.9633ZM386.82 41.5874C387.821 41.9402 388.812 42.3738 389.759 42.874C393.047 44.6046 395.698 47.0051 397.638 50.0065C398.085 50.7041 398.483 51.4152 398.824 52.1279C399.673 53.8878 400.226 55.7635 400.465 57.697C400.561 58.4533 400.61 59.2397 400.61 60.0262C400.61 61.3628 400.47 62.6811 400.194 63.9456C400.189 63.9717 400.181 63.9979 400.176 64.024C400.197 64.0137 400.217 64.0042 400.238 63.9931C402.385 62.8626 404.202 61.4317 405.683 59.7011C406.179 59.12 406.637 58.5072 407.06 57.8564C407.894 56.5737 408.516 55.2316 408.936 53.8323C409.362 52.4173 409.574 50.9396 409.574 49.404C409.574 46.3495 408.737 43.5265 407.06 40.927C405.38 38.3307 403.109 36.2751 400.238 34.7649C397.37 33.2555 394.24 32.5 390.848 32.5H380.025C379.7 32.5 379.428 32.607 379.213 32.8155C378.995 33.0272 378.888 33.2801 378.888 33.5702V40.2785H379.043C381.761 40.2785 384.379 40.7185 386.822 41.5858L386.82 41.5874ZM393.048 71.2159C391.735 72.5517 390.196 73.6854 388.43 74.6145C385.562 76.1239 382.429 76.8794 379.041 76.8794H368.647C368.214 76.8794 367.845 76.7407 367.539 76.4656C367.232 76.1873 367.081 75.856 367.081 75.4643V44.1932C367.081 43.9022 367.188 43.6501 367.402 43.4385C367.62 43.2268 367.892 43.123 368.214 43.123H379.041C381.448 43.123 383.725 43.5051 385.869 44.2661C386.747 44.5753 387.6 44.9487 388.43 45.3871C391.299 46.8965 393.572 48.9529 395.249 51.5492C395.628 52.1398 395.966 52.7431 396.26 53.3559C396.98 54.8494 397.441 56.4136 397.643 58.0458C397.725 58.6935 397.766 59.3531 397.766 60.0262C397.766 61.163 397.649 62.2689 397.416 63.3391C397.264 64.0399 397.062 64.7256 396.809 65.3987C396.411 66.4602 395.89 67.4828 395.249 68.4746C395.201 68.5507 395.151 68.6228 395.098 68.6989C394.494 69.6051 393.808 70.4454 393.047 71.2159H393.048ZM380.382 61.4412C379.527 61.0996 378.052 60.834 377.131 60.7912C375.709 60.7246 374.521 61.0544 373.721 62.2934C372.328 64.4505 373.872 67.3528 376.441 67.3711C378.729 67.3877 379.636 65.4399 380.261 63.5619C380.398 63.1496 380.653 62.4005 380.697 61.9898C380.731 61.6711 380.676 61.5594 380.382 61.4412ZM381.538 60.5827C381.799 60.3615 382.122 60.0008 382.359 59.7424C383.031 59.0106 383.782 58.0934 384.18 57.1809C385.194 54.8605 383.327 52.4498 380.858 52.6416C378.901 52.7938 377.438 54.8146 377.967 56.7188C378.285 57.8643 379.3 59.1089 380.128 59.9461C380.307 60.1268 380.819 60.6477 381.023 60.7309C381.238 60.8189 381.38 60.7174 381.538 60.5827ZM388.599 62.2927C387.799 61.0536 386.61 60.7238 385.189 60.7904C384.268 60.834 382.793 61.0996 381.939 61.4404C381.644 61.5586 381.589 61.6703 381.623 61.989C381.667 62.3997 381.922 63.1488 382.059 63.5611C382.684 65.4391 383.591 67.3869 385.879 67.3703C388.448 67.352 389.993 64.449 388.599 62.2927Z" fill="#191919"/>
<path d="M459.174 62.4426C457.729 61.8631 455.237 61.4127 453.68 61.3401C451.276 61.2272 449.267 61.7865 447.915 63.888C445.561 67.5465 448.171 72.4689 452.513 72.4998C456.38 72.5281 457.914 69.2245 458.97 66.0393C459.202 65.3401 459.633 64.0695 459.707 63.3731C459.765 62.8326 459.672 62.643 459.174 62.4426ZM461.129 60.9865C461.57 60.6114 462.115 59.9996 462.516 59.5613C463.652 58.3203 464.921 56.7646 465.595 55.2171C467.309 51.2816 464.152 47.1928 459.979 47.5182C456.671 47.7764 454.198 51.2036 455.092 54.4332C455.629 56.3761 457.346 58.487 458.745 59.9068C459.048 60.2134 459.914 61.0968 460.258 61.2379C460.621 61.3872 460.861 61.2151 461.129 60.9865ZM473.065 63.8867C471.712 61.7852 469.702 61.2258 467.3 61.3388C465.743 61.4127 463.25 61.8631 461.806 62.4413C461.307 62.6416 461.215 62.8312 461.272 63.3717C461.346 64.0682 461.778 65.3388 462.009 66.038C463.065 69.2232 464.6 72.5267 468.467 72.4985C472.809 72.4676 475.42 67.5438 473.065 63.8867Z" fill="#FFF9DF"/>
<path d="M553.899 86.9633C553.899 87.32 553.647 87.5 553.142 87.5H548.704C548.306 87.5 548.009 87.4683 547.81 87.4025C547.611 87.3359 547.441 87.175 547.295 86.9157L541.667 75.5175C541.56 75.3216 541.414 75.1924 541.234 75.1258C541.054 75.0624 540.691 75.0307 540.151 75.0307H535.549C535.117 75.0307 534.785 75.0878 534.548 75.2011C534.314 75.3145 534.198 75.5484 534.198 75.9051V86.6216C534.198 86.884 534.1 87.0925 533.901 87.2566C533.702 87.4176 533.459 87.5 533.171 87.5H528.948C528.658 87.5 528.415 87.4176 528.219 87.2566C528.02 87.0925 527.918 86.884 527.918 86.6216V75.0069C528.637 74.448 529.314 73.8503 529.941 73.2129C530.821 72.3218 531.617 71.3452 532.311 70.3074C532.384 70.2044 532.452 70.1029 532.518 69.9999C533.005 69.2459 533.427 68.4675 533.795 67.6787C534.699 67.3433 535.582 66.9549 536.43 66.5078C538.889 65.2132 541.002 63.5444 542.714 61.5451C543.288 60.872 543.825 60.153 544.311 59.4054C545.236 57.9832 545.954 56.4627 546.451 54.8867C548.262 55.8555 549.711 57.1437 550.784 58.7593C551.886 60.4178 552.435 62.2364 552.435 64.2167C552.435 65.9029 552.012 67.4947 551.162 68.9891C550.315 70.4826 549.151 71.7336 547.672 72.7412C547.454 72.8704 547.347 73.0322 547.347 73.228C547.347 73.4238 547.366 73.5847 547.401 73.7147L553.68 86.3323C553.825 86.5598 553.898 86.7683 553.898 86.9641H553.899V86.9633ZM521.691 41.5874C522.692 41.9402 523.683 42.3738 524.63 42.874C527.918 44.6046 530.569 47.0051 532.508 50.0065C532.956 50.7041 533.354 51.4152 533.695 52.1279C534.544 53.8878 535.097 55.7635 535.336 57.697C535.432 58.4533 535.481 59.2397 535.481 60.0262C535.481 61.3628 535.341 62.6811 535.065 63.9456C535.06 63.9717 535.052 63.9979 535.047 64.024C535.068 64.0137 535.088 64.0042 535.109 63.9931C537.256 62.8626 539.073 61.4317 540.554 59.7011C541.05 59.12 541.508 58.5072 541.931 57.8564C542.765 56.5737 543.387 55.2316 543.807 53.8323C544.233 52.4173 544.445 50.9396 544.445 49.404C544.445 46.3495 543.608 43.5265 541.931 40.927C540.251 38.3307 537.98 36.2751 535.109 34.7649C532.241 33.2555 529.111 32.5 525.719 32.5H514.896C514.571 32.5 514.299 32.607 514.084 32.8155C513.866 33.0272 513.759 33.2801 513.759 33.5702V40.2785H513.914C516.632 40.2785 519.25 40.7185 521.693 41.5858L521.691 41.5874ZM527.919 71.2159C526.606 72.5517 525.067 73.6854 523.301 74.6145C520.433 76.1239 517.3 76.8794 513.912 76.8794H503.518C503.085 76.8794 502.716 76.7407 502.41 76.4656C502.103 76.1873 501.952 75.856 501.952 75.4643V44.1932C501.952 43.9022 502.059 43.6501 502.273 43.4385C502.491 43.2268 502.763 43.123 503.085 43.123H513.912C516.319 43.123 518.596 43.5051 520.74 44.2661C521.618 44.5753 522.471 44.9487 523.301 45.3871C526.17 46.8965 528.443 48.9529 530.12 51.5492C530.499 52.1398 530.837 52.7431 531.131 53.3559C531.85 54.8494 532.312 56.4136 532.514 58.0458C532.596 58.6935 532.637 59.3531 532.637 60.0262C532.637 61.163 532.52 62.2689 532.287 63.3391C532.135 64.0399 531.933 64.7256 531.68 65.3987C531.282 66.4602 530.761 67.4828 530.12 68.4746C530.072 68.5507 530.022 68.6228 529.968 68.6989C529.365 69.6051 528.679 70.4454 527.918 71.2159H527.919ZM515.253 61.4412C514.398 61.0996 512.923 60.834 512.002 60.7912C510.58 60.7246 509.392 61.0544 508.592 62.2934C507.199 64.4505 508.743 67.3528 511.312 67.3711C513.6 67.3877 514.507 65.4399 515.132 63.5619C515.269 63.1496 515.524 62.4005 515.568 61.9898C515.602 61.6711 515.547 61.5594 515.253 61.4412ZM516.409 60.5827C516.67 60.3615 516.993 60.0008 517.23 59.7424C517.902 59.0106 518.653 58.0934 519.051 57.1809C520.065 54.8605 518.198 52.4498 515.729 52.6416C513.772 52.7938 512.309 54.8146 512.838 56.7188C513.156 57.8643 514.171 59.1089 514.999 59.9461C515.178 60.1268 515.69 60.6477 515.894 60.7309C516.109 60.8189 516.251 60.7174 516.409 60.5827ZM523.47 62.2927C522.67 61.0536 521.481 60.7238 520.06 60.7904C519.139 60.834 517.664 61.0996 516.809 61.4404C516.515 61.5586 516.46 61.6703 516.494 61.989C516.538 62.3997 516.793 63.1488 516.93 63.5611C517.555 65.4391 518.462 67.3869 520.75 67.3703C523.319 67.352 524.864 64.449 523.47 62.2927Z" fill="#191919"/>
<path d="M594.045 62.4426C592.6 61.8631 590.108 61.4127 588.551 61.3401C586.147 61.2272 584.138 61.7865 582.786 63.888C580.431 67.5465 583.042 72.4689 587.384 72.4998C591.251 72.5281 592.785 69.2245 593.841 66.0393C594.073 65.3401 594.504 64.0695 594.578 63.3731C594.636 62.8326 594.543 62.643 594.045 62.4426ZM596 60.9865C596.441 60.6114 596.986 59.9996 597.387 59.5613C598.523 58.3203 599.792 56.7646 600.466 55.2171C602.18 51.2816 599.023 47.1928 594.85 47.5182C591.542 47.7764 589.069 51.2036 589.963 54.4332C590.5 56.3761 592.217 58.487 593.616 59.9068C593.919 60.2134 594.785 61.0968 595.129 61.2379C595.492 61.3872 595.732 61.2151 596 60.9865ZM607.936 63.8867C606.583 61.7852 604.573 61.2258 602.171 61.3388C600.614 61.4127 598.121 61.8631 596.677 62.4413C596.178 62.6416 596.086 62.8312 596.143 63.3717C596.217 64.0682 596.648 65.3388 596.88 66.038C597.936 69.2232 599.471 72.5267 603.338 72.4985C607.68 72.4676 610.291 67.5438 607.936 63.8867Z" fill="#FFF9DF"/>
<path d="M688.77 86.9633C688.77 87.32 688.518 87.5 688.013 87.5H683.575C683.177 87.5 682.88 87.4683 682.681 87.4025C682.482 87.3359 682.312 87.175 682.166 86.9157L676.538 75.5175C676.431 75.3216 676.285 75.1924 676.105 75.1258C675.925 75.0624 675.562 75.0307 675.022 75.0307H670.42C669.988 75.0307 669.656 75.0878 669.419 75.2011C669.185 75.3145 669.069 75.5484 669.069 75.9051V86.6216C669.069 86.884 668.971 87.0925 668.772 87.2566C668.573 87.4176 668.33 87.5 668.042 87.5H663.819C663.529 87.5 663.286 87.4176 663.09 87.2566C662.891 87.0925 662.789 86.884 662.789 86.6216V75.0069C663.508 74.448 664.185 73.8503 664.812 73.2129C665.692 72.3218 666.488 71.3452 667.182 70.3074C667.255 70.2044 667.323 70.1029 667.389 69.9999C667.876 69.2459 668.298 68.4675 668.666 67.6787C669.57 67.3433 670.453 66.9549 671.301 66.5078C673.76 65.2132 675.873 63.5444 677.585 61.5451C678.159 60.872 678.696 60.153 679.182 59.4054C680.107 57.9832 680.825 56.4627 681.322 54.8867C683.133 55.8555 684.582 57.1437 685.655 58.7593C686.757 60.4178 687.306 62.2364 687.306 64.2167C687.306 65.9029 686.883 67.4947 686.033 68.9891C685.186 70.4826 684.022 71.7336 682.543 72.7412C682.325 72.8704 682.218 73.0322 682.218 73.228C682.218 73.4238 682.237 73.5847 682.272 73.7147L688.551 86.3323C688.696 86.5598 688.769 86.7683 688.769 86.9641H688.77V86.9633ZM656.562 41.5874C657.563 41.9402 658.554 42.3738 659.501 42.874C662.789 44.6046 665.44 47.0051 667.379 50.0065C667.827 50.7041 668.225 51.4152 668.566 52.1279C669.415 53.8878 669.968 55.7635 670.207 57.697C670.303 58.4533 670.352 59.2397 670.352 60.0262C670.352 61.3628 670.212 62.6811 669.936 63.9456C669.931 63.9717 669.923 63.9979 669.918 64.024C669.938 64.0137 669.959 64.0042 669.98 63.9931C672.127 62.8626 673.943 61.4317 675.425 59.7011C675.921 59.12 676.379 58.5072 676.802 57.8564C677.636 56.5737 678.258 55.2316 678.678 53.8323C679.104 52.4173 679.316 50.9396 679.316 49.404C679.316 46.3495 678.479 43.5265 676.802 40.927C675.122 38.3307 672.851 36.2751 669.98 34.7649C667.111 33.2555 663.982 32.5 660.59 32.5H649.767C649.442 32.5 649.17 32.607 648.955 32.8155C648.737 33.0272 648.63 33.2801 648.63 33.5702V40.2785H648.785C651.503 40.2785 654.121 40.7185 656.564 41.5858L656.562 41.5874ZM662.79 71.2159C661.477 72.5517 659.938 73.6854 658.172 74.6145C655.304 76.1239 652.171 76.8794 648.783 76.8794H638.389C637.956 76.8794 637.587 76.7407 637.281 76.4656C636.974 76.1873 636.823 75.856 636.823 75.4643V44.1932C636.823 43.9022 636.93 43.6501 637.144 43.4385C637.362 43.2268 637.634 43.123 637.956 43.123H648.783C651.19 43.123 653.467 43.5051 655.611 44.2661C656.489 44.5753 657.342 44.9487 658.172 45.3871C661.041 46.8965 663.314 48.9529 664.991 51.5492C665.37 52.1398 665.708 52.7431 666.002 53.3559C666.721 54.8494 667.183 56.4136 667.385 58.0458C667.467 58.6935 667.508 59.3531 667.508 60.0262C667.508 61.163 667.391 62.2689 667.157 63.3391C667.006 64.0399 666.804 64.7256 666.551 65.3987C666.153 66.4602 665.632 67.4828 664.991 68.4746C664.943 68.5507 664.893 68.6228 664.839 68.6989C664.236 69.6051 663.55 70.4454 662.789 71.2159H662.79ZM650.123 61.4412C649.269 61.0996 647.794 60.834 646.873 60.7912C645.451 60.7246 644.263 61.0544 643.463 62.2934C642.07 64.4505 643.614 67.3528 646.183 67.3711C648.471 67.3877 649.378 65.4399 650.003 63.5619C650.14 63.1496 650.395 62.4005 650.439 61.9898C650.473 61.6711 650.418 61.5594 650.123 61.4412ZM651.28 60.5827C651.541 60.3615 651.864 60.0008 652.101 59.7424C652.773 59.0106 653.524 58.0934 653.922 57.1809C654.936 54.8605 653.069 52.4498 650.6 52.6416C648.643 52.7938 647.18 54.8146 647.709 56.7188C648.027 57.8643 649.042 59.1089 649.87 59.9461C650.049 60.1268 650.561 60.6477 650.765 60.7309C650.98 60.8189 651.122 60.7174 651.28 60.5827ZM658.341 62.2927C657.541 61.0536 656.352 60.7238 654.931 60.7904C654.01 60.834 652.535 61.0996 651.68 61.4404C651.386 61.5586 651.331 61.6703 651.365 61.989C651.409 62.3997 651.664 63.1488 651.801 63.5611C652.426 65.4391 653.333 67.3869 655.621 67.3703C658.19 67.352 659.735 64.449 658.341 62.2927Z" fill="#191919"/>
<path d="M728.916 62.4426C727.471 61.8631 724.979 61.4127 723.422 61.3401C721.018 61.2272 719.009 61.7865 717.657 63.888C715.302 67.5465 717.913 72.4689 722.255 72.4998C726.122 72.5281 727.656 69.2245 728.712 66.0393C728.944 65.3401 729.375 64.0695 729.449 63.3731C729.507 62.8326 729.414 62.643 728.916 62.4426ZM730.871 60.9865C731.312 60.6114 731.857 59.9996 732.258 59.5613C733.394 58.3203 734.663 56.7646 735.337 55.2171C737.051 51.2816 733.894 47.1928 729.721 47.5182C726.413 47.7764 723.94 51.2036 724.834 54.4332C725.371 56.3761 727.088 58.487 728.487 59.9068C728.79 60.2134 729.655 61.0968 730 61.2379C730.363 61.3872 730.603 61.2151 730.871 60.9865ZM742.807 63.8867C741.454 61.7852 739.444 61.2258 737.042 61.3388C735.485 61.4127 732.992 61.8631 731.548 62.4413C731.049 62.6416 730.957 62.8312 731.014 63.3717C731.088 64.0682 731.519 65.3388 731.751 66.038C732.807 69.2232 734.342 72.5267 738.209 72.4985C742.551 72.4676 745.162 67.5438 742.807 63.8867Z" fill="#FFF9DF"/>
<path d="M823.641 86.9633C823.641 87.32 823.389 87.5 822.884 87.5H818.446C818.048 87.5 817.751 87.4683 817.552 87.4025C817.353 87.3359 817.183 87.175 817.037 86.9157L811.409 75.5175C811.302 75.3216 811.156 75.1924 810.976 75.1258C810.796 75.0624 810.433 75.0307 809.893 75.0307H805.291C804.859 75.0307 804.527 75.0878 804.29 75.2011C804.056 75.3145 803.94 75.5484 803.94 75.9051V86.6216C803.94 86.884 803.842 87.0925 803.643 87.2566C803.444 87.4176 803.201 87.5 802.913 87.5H798.69C798.4 87.5 798.157 87.4176 797.961 87.2566C797.762 87.0925 797.66 86.884 797.66 86.6216V75.0069C798.379 74.448 799.056 73.8503 799.683 73.2129C800.563 72.3218 801.359 71.3452 802.053 70.3074C802.126 70.2044 802.194 70.1029 802.26 69.9999C802.747 69.2459 803.169 68.4675 803.537 67.6787C804.441 67.3433 805.324 66.9549 806.172 66.5078C808.631 65.2132 810.744 63.5444 812.456 61.5451C813.03 60.872 813.567 60.153 814.053 59.4054C814.978 57.9832 815.696 56.4627 816.193 54.8867C818.004 55.8555 819.453 57.1437 820.526 58.7593C821.628 60.4178 822.177 62.2364 822.177 64.2167C822.177 65.9029 821.754 67.4947 820.904 68.9891C820.057 70.4826 818.893 71.7336 817.414 72.7412C817.196 72.8704 817.089 73.0322 817.089 73.228C817.089 73.4238 817.108 73.5847 817.143 73.7147L823.422 86.3323C823.567 86.5598 823.64 86.7683 823.64 86.9641H823.641V86.9633ZM791.433 41.5874C792.434 41.9402 793.425 42.3738 794.372 42.874C797.66 44.6046 800.311 47.0051 802.25 50.0065C802.698 50.7041 803.096 51.4152 803.437 52.1279C804.286 53.8878 804.839 55.7635 805.078 57.697C805.174 58.4533 805.223 59.2397 805.223 60.0262C805.223 61.3628 805.083 62.6811 804.807 63.9456C804.802 63.9717 804.794 63.9979 804.789 64.024C804.809 64.0137 804.83 64.0042 804.851 63.9931C806.998 62.8626 808.814 61.4317 810.296 59.7011C810.792 59.12 811.25 58.5072 811.673 57.8564C812.507 56.5737 813.129 55.2316 813.549 53.8323C813.975 52.4173 814.187 50.9396 814.187 49.404C814.187 46.3495 813.35 43.5265 811.673 40.927C809.993 38.3307 807.722 36.2751 804.851 34.7649C801.982 33.2555 798.853 32.5 795.461 32.5H784.638C784.313 32.5 784.041 32.607 783.826 32.8155C783.608 33.0272 783.501 33.2801 783.501 33.5702V40.2785H783.655C786.374 40.2785 788.992 40.7185 791.435 41.5858L791.433 41.5874ZM797.661 71.2159C796.348 72.5517 794.809 73.6854 793.043 74.6145C790.175 76.1239 787.042 76.8794 783.654 76.8794H773.26C772.827 76.8794 772.458 76.7407 772.152 76.4656C771.845 76.1873 771.694 75.856 771.694 75.4643V44.1932C771.694 43.9022 771.801 43.6501 772.015 43.4385C772.233 43.2268 772.505 43.123 772.827 43.123H783.654C786.061 43.123 788.338 43.5051 790.482 44.2661C791.36 44.5753 792.213 44.9487 793.043 45.3871C795.912 46.8965 798.185 48.9529 799.862 51.5492C800.241 52.1398 800.578 52.7431 800.873 53.3559C801.592 54.8494 802.054 56.4136 802.256 58.0458C802.338 58.6935 802.379 59.3531 802.379 60.0262C802.379 61.163 802.262 62.2689 802.028 63.3391C801.877 64.0399 801.675 64.7256 801.422 65.3987C801.024 66.4602 800.503 67.4828 799.862 68.4746C799.814 68.5507 799.764 68.6228 799.71 68.6989C799.107 69.6051 798.421 70.4454 797.66 71.2159H797.661ZM784.994 61.4412C784.14 61.0996 782.665 60.834 781.744 60.7912C780.322 60.7246 779.134 61.0544 778.334 62.2934C776.941 64.4505 778.485 67.3528 781.054 67.3711C783.342 67.3877 784.249 65.4399 784.874 63.5619C785.011 63.1496 785.266 62.4005 785.31 61.9898C785.344 61.6711 785.289 61.5594 784.994 61.4412ZM786.151 60.5827C786.412 60.3615 786.735 60.0008 786.972 59.7424C787.644 59.0106 788.395 58.0934 788.793 57.1809C789.807 54.8605 787.94 52.4498 785.471 52.6416C783.514 52.7938 782.051 54.8146 782.58 56.7188C782.898 57.8643 783.913 59.1089 784.741 59.9461C784.92 60.1268 785.432 60.6477 785.636 60.7309C785.851 60.8189 785.993 60.7174 786.151 60.5827ZM793.212 62.2927C792.412 61.0536 791.223 60.7238 789.802 60.7904C788.881 60.834 787.406 61.0996 786.551 61.4404C786.257 61.5586 786.202 61.6703 786.236 61.989C786.28 62.3997 786.535 63.1488 786.672 63.5611C787.297 65.4391 788.204 67.3869 790.492 67.3703C793.061 67.352 794.606 64.449 793.212 62.2927Z" fill="#191919"/>
<path d="M863.787 62.4426C862.342 61.8631 859.85 61.4127 858.293 61.3401C855.889 61.2272 853.88 61.7865 852.528 63.888C850.173 67.5465 852.784 72.4689 857.126 72.4998C860.993 72.5281 862.527 69.2245 863.583 66.0393C863.815 65.3401 864.246 64.0695 864.32 63.3731C864.378 62.8326 864.285 62.643 863.787 62.4426ZM865.742 60.9865C866.183 60.6114 866.728 59.9996 867.129 59.5613C868.265 58.3203 869.534 56.7646 870.208 55.2171C871.922 51.2816 868.765 47.1928 864.592 47.5182C861.284 47.7764 858.811 51.2036 859.705 54.4332C860.242 56.3761 861.959 58.487 863.358 59.9068C863.661 60.2134 864.527 61.0968 864.871 61.2379C865.234 61.3872 865.474 61.2151 865.742 60.9865ZM877.678 63.8867C876.325 61.7852 874.315 61.2258 871.913 61.3388C870.356 61.4127 867.863 61.8631 866.419 62.4413C865.92 62.6416 865.828 62.8312 865.885 63.3717C865.959 64.0682 866.39 65.3388 866.622 66.038C867.678 69.2232 869.213 72.5267 873.08 72.4985C877.422 72.4676 880.033 67.5438 877.678 63.8867Z" fill="#FFF9DF"/>
<path d="M958.512 86.9633C958.512 87.32 958.26 87.5 957.755 87.5H953.317C952.919 87.5 952.622 87.4683 952.423 87.4025C952.224 87.3359 952.054 87.175 951.908 86.9157L946.28 75.5175C946.173 75.3216 946.027 75.1924 945.847 75.1258C945.667 75.0624 945.304 75.0307 944.764 75.0307H940.162C939.73 75.0307 939.398 75.0878 939.161 75.2011C938.927 75.3145 938.811 75.5484 938.811 75.9051V86.6216C938.811 86.884 938.713 87.0925 938.514 87.2566C938.315 87.4176 938.072 87.5 937.784 87.5H933.561C933.271 87.5 933.028 87.4176 932.832 87.2566C932.633 87.0925 932.531 86.884 932.531 86.6216V75.0069C933.25 74.448 933.927 73.8503 934.554 73.2129C935.434 72.3218 936.23 71.3452 936.924 70.3074C936.997 70.2044 937.065 70.1029 937.131 69.9999C937.618 69.2459 938.04 68.4675 938.408 67.6787C939.312 67.3433 940.195 66.9549 941.043 66.5078C943.502 65.2132 945.615 63.5444 947.327 61.5451C947.901 60.872 948.438 60.153 948.924 59.4054C949.849 57.9832 950.567 56.4627 951.064 54.8867C952.875 55.8555 954.324 57.1437 955.397 58.7593C956.499 60.4178 957.048 62.2364 957.048 64.2167C957.048 65.9029 956.625 67.4947 955.775 68.9891C954.928 70.4826 953.764 71.7336 952.285 72.7412C952.067 72.8704 951.96 73.0322 951.96 73.228C951.96 73.4238 951.979 73.5847 952.014 73.7147L958.293 86.3323C958.438 86.5598 958.511 86.7683 958.511 86.9641H958.512V86.9633ZM926.304 41.5874C927.305 41.9402 928.296 42.3738 929.243 42.874C932.531 44.6046 935.182 47.0051 937.121 50.0065C937.569 50.7041 937.967 51.4152 938.308 52.1279C939.157 53.8878 939.71 55.7635 939.949 57.697C940.045 58.4533 940.094 59.2397 940.094 60.0262C940.094 61.3628 939.954 62.6811 939.678 63.9456C939.673 63.9717 939.665 63.9979 939.66 64.024C939.68 64.0137 939.701 64.0042 939.722 63.9931C941.869 62.8626 943.685 61.4317 945.167 59.7011C945.663 59.12 946.121 58.5072 946.544 57.8564C947.378 56.5737 948 55.2316 948.42 53.8323C948.846 52.4173 949.058 50.9396 949.058 49.404C949.058 46.3495 948.221 43.5265 946.544 40.927C944.864 38.3307 942.593 36.2751 939.722 34.7649C936.854 33.2555 933.724 32.5 930.332 32.5H919.509C919.184 32.5 918.912 32.607 918.697 32.8155C918.479 33.0272 918.372 33.2801 918.372 33.5702V40.2785H918.527C921.245 40.2785 923.863 40.7185 926.306 41.5858L926.304 41.5874ZM932.532 71.2159C931.219 72.5517 929.68 73.6854 927.914 74.6145C925.046 76.1239 921.913 76.8794 918.525 76.8794H908.131C907.698 76.8794 907.329 76.7407 907.023 76.4656C906.716 76.1873 906.565 75.856 906.565 75.4643V44.1932C906.565 43.9022 906.672 43.6501 906.886 43.4385C907.104 43.2268 907.376 43.123 907.698 43.123H918.525C920.932 43.123 923.209 43.5051 925.353 44.2661C926.231 44.5753 927.084 44.9487 927.914 45.3871C930.783 46.8965 933.056 48.9529 934.733 51.5492C935.112 52.1398 935.45 52.7431 935.744 53.3559C936.463 54.8494 936.925 56.4136 937.127 58.0458C937.209 58.6935 937.25 59.3531 937.25 60.0262C937.25 61.163 937.133 62.2689 936.899 63.3391C936.748 64.0399 936.546 64.7256 936.293 65.3987C935.895 66.4602 935.374 67.4828 934.733 68.4746C934.685 68.5507 934.635 68.6228 934.581 68.6989C933.978 69.6051 933.292 70.4454 932.531 71.2159H932.532ZM919.865 61.4412C919.011 61.0996 917.536 60.834 916.615 60.7912C915.193 60.7246 914.005 61.0544 913.205 62.2934C911.812 64.4505 913.356 67.3528 915.925 67.3711C918.213 67.3877 919.12 65.4399 919.745 63.5619C919.882 63.1496 920.137 62.4005 920.181 61.9898C920.215 61.6711 920.16 61.5594 919.865 61.4412ZM921.022 60.5827C921.283 60.3615 921.606 60.0008 921.843 59.7424C922.515 59.0106 923.266 58.0934 923.664 57.1809C924.678 54.8605 922.811 52.4498 920.342 52.6416C918.385 52.7938 916.922 54.8146 917.451 56.7188C917.769 57.8643 918.784 59.1089 919.612 59.9461C919.791 60.1268 920.303 60.6477 920.507 60.7309C920.722 60.8189 920.864 60.7174 921.022 60.5827ZM928.083 62.2927C927.283 61.0536 926.094 60.7238 924.673 60.7904C923.752 60.834 922.277 61.0996 921.422 61.4404C921.128 61.5586 921.073 61.6703 921.107 61.989C921.151 62.3997 921.406 63.1488 921.543 63.5611C922.168 65.4391 923.075 67.3869 925.363 67.3703C927.932 67.352 929.477 64.449 928.083 62.2927Z" fill="#191919"/>
<path d="M998.658 62.4426C997.213 61.8631 994.721 61.4127 993.164 61.3401C990.76 61.2272 988.751 61.7865 987.399 63.888C985.044 67.5465 987.655 72.4689 991.997 72.4998C995.864 72.5281 997.398 69.2245 998.454 66.0393C998.686 65.3401 999.117 64.0695 999.191 63.3731C999.249 62.8326 999.156 62.643 998.658 62.4426ZM1000.61 60.9865C1001.05 60.6114 1001.6 59.9996 1002 59.5613C1003.14 58.3203 1004.41 56.7646 1005.08 55.2171C1006.79 51.2816 1003.64 47.1928 999.463 47.5182C996.155 47.7764 993.682 51.2036 994.576 54.4332C995.113 56.3761 996.83 58.487 998.229 59.9068C998.532 60.2134 999.397 61.0968 999.742 61.2379C1000.11 61.3872 1000.34 61.2151 1000.61 60.9865ZM1012.55 63.8867C1011.2 61.7852 1009.19 61.2258 1006.78 61.3388C1005.23 61.4127 1002.73 61.8631 1001.29 62.4413C1000.79 62.6416 1000.7 62.8312 1000.76 63.3717C1000.83 64.0682 1001.26 65.3388 1001.49 66.038C1002.55 69.2232 1004.08 72.5267 1007.95 72.4985C1012.29 72.4676 1014.9 67.5438 1012.55 63.8867Z" fill="#FFF9DF"/>
<path d="M1093.38 86.9633C1093.38 87.32 1093.13 87.5 1092.63 87.5H1088.19C1087.79 87.5 1087.49 87.4683 1087.29 87.4025C1087.1 87.3359 1086.92 87.175 1086.78 86.9157L1081.15 75.5175C1081.04 75.3216 1080.9 75.1924 1080.72 75.1258C1080.54 75.0624 1080.18 75.0307 1079.64 75.0307H1075.03C1074.6 75.0307 1074.27 75.0878 1074.03 75.2011C1073.8 75.3145 1073.68 75.5484 1073.68 75.9051V86.6216C1073.68 86.884 1073.58 87.0925 1073.39 87.2566C1073.19 87.4176 1072.94 87.5 1072.66 87.5H1068.43C1068.14 87.5 1067.9 87.4176 1067.7 87.2566C1067.5 87.0925 1067.4 86.884 1067.4 86.6216V75.0069C1068.12 74.448 1068.8 73.8503 1069.42 73.2129C1070.3 72.3218 1071.1 71.3452 1071.8 70.3074C1071.87 70.2044 1071.94 70.1029 1072 69.9999C1072.49 69.2459 1072.91 68.4675 1073.28 67.6787C1074.18 67.3433 1075.07 66.9549 1075.91 66.5078C1078.37 65.2132 1080.49 63.5444 1082.2 61.5451C1082.77 60.872 1083.31 60.153 1083.8 59.4054C1084.72 57.9832 1085.44 56.4627 1085.93 54.8867C1087.75 55.8555 1089.2 57.1437 1090.27 58.7593C1091.37 60.4178 1091.92 62.2364 1091.92 64.2167C1091.92 65.9029 1091.5 67.4947 1090.65 68.9891C1089.8 70.4826 1088.63 71.7336 1087.16 72.7412C1086.94 72.8704 1086.83 73.0322 1086.83 73.228C1086.83 73.4238 1086.85 73.5847 1086.89 73.7147L1093.16 86.3323C1093.31 86.5598 1093.38 86.7683 1093.38 86.9641H1093.38V86.9633ZM1061.18 41.5874C1062.18 41.9402 1063.17 42.3738 1064.11 42.874C1067.4 44.6046 1070.05 47.0051 1071.99 50.0065C1072.44 50.7041 1072.84 51.4152 1073.18 52.1279C1074.03 53.8878 1074.58 55.7635 1074.82 57.697C1074.92 58.4533 1074.97 59.2397 1074.97 60.0262C1074.97 61.3628 1074.82 62.6811 1074.55 63.9456C1074.54 63.9717 1074.54 63.9979 1074.53 64.024C1074.55 64.0137 1074.57 64.0042 1074.59 63.9931C1076.74 62.8626 1078.56 61.4317 1080.04 59.7011C1080.53 59.12 1080.99 58.5072 1081.42 57.8564C1082.25 56.5737 1082.87 55.2316 1083.29 53.8323C1083.72 52.4173 1083.93 50.9396 1083.93 49.404C1083.93 46.3495 1083.09 43.5265 1081.42 40.927C1079.73 38.3307 1077.46 36.2751 1074.59 34.7649C1071.72 33.2555 1068.59 32.5 1065.2 32.5H1054.38C1054.05 32.5 1053.78 32.607 1053.57 32.8155C1053.35 33.0272 1053.24 33.2801 1053.24 33.5702V40.2785H1053.4C1056.12 40.2785 1058.73 40.7185 1061.18 41.5858L1061.18 41.5874ZM1067.4 71.2159C1066.09 72.5517 1064.55 73.6854 1062.79 74.6145C1059.92 76.1239 1056.78 76.8794 1053.4 76.8794H1043C1042.57 76.8794 1042.2 76.7407 1041.89 76.4656C1041.59 76.1873 1041.44 75.856 1041.44 75.4643V44.1932C1041.44 43.9022 1041.54 43.6501 1041.76 43.4385C1041.98 43.2268 1042.25 43.123 1042.57 43.123H1053.4C1055.8 43.123 1058.08 43.5051 1060.22 44.2661C1061.1 44.5753 1061.95 44.9487 1062.79 45.3871C1065.65 46.8965 1067.93 48.9529 1069.6 51.5492C1069.98 52.1398 1070.32 52.7431 1070.61 53.3559C1071.33 54.8494 1071.8 56.4136 1072 58.0458C1072.08 58.6935 1072.12 59.3531 1072.12 60.0262C1072.12 61.163 1072 62.2689 1071.77 63.3391C1071.62 64.0399 1071.42 64.7256 1071.16 65.3987C1070.77 66.4602 1070.25 67.4828 1069.6 68.4746C1069.56 68.5507 1069.51 68.6228 1069.45 68.6989C1068.85 69.6051 1068.16 70.4454 1067.4 71.2159H1067.4ZM1054.74 61.4412C1053.88 61.0996 1052.41 60.834 1051.49 60.7912C1050.06 60.7246 1048.88 61.0544 1048.08 62.2934C1046.68 64.4505 1048.23 67.3528 1050.8 67.3711C1053.08 67.3877 1053.99 65.4399 1054.62 63.5619C1054.75 63.1496 1055.01 62.4005 1055.05 61.9898C1055.09 61.6711 1055.03 61.5594 1054.74 61.4412ZM1055.89 60.5827C1056.15 60.3615 1056.48 60.0008 1056.71 59.7424C1057.39 59.0106 1058.14 58.0934 1058.54 57.1809C1059.55 54.8605 1057.68 52.4498 1055.21 52.6416C1053.26 52.7938 1051.79 54.8146 1052.32 56.7188C1052.64 57.8643 1053.66 59.1089 1054.48 59.9461C1054.66 60.1268 1055.17 60.6477 1055.38 60.7309C1055.59 60.8189 1055.73 60.7174 1055.89 60.5827ZM1062.95 62.2927C1062.15 61.0536 1060.97 60.7238 1059.54 60.7904C1058.62 60.834 1057.15 61.0996 1056.29 61.4404C1056 61.5586 1055.94 61.6703 1055.98 61.989C1056.02 62.3997 1056.28 63.1488 1056.41 63.5611C1057.04 65.4391 1057.95 67.3869 1060.23 67.3703C1062.8 67.352 1064.35 64.449 1062.95 62.2927Z" fill="#191919"/>
<path d="M1133.53 62.4426C1132.08 61.8631 1129.59 61.4127 1128.03 61.3401C1125.63 61.2272 1123.62 61.7865 1122.27 63.888C1119.92 67.5465 1122.53 72.4689 1126.87 72.4998C1130.73 72.5281 1132.27 69.2245 1133.33 66.0393C1133.56 65.3401 1133.99 64.0695 1134.06 63.3731C1134.12 62.8326 1134.03 62.643 1133.53 62.4426ZM1135.48 60.9865C1135.92 60.6114 1136.47 59.9996 1136.87 59.5613C1138.01 58.3203 1139.28 56.7646 1139.95 55.2171C1141.66 51.2816 1138.51 47.1928 1134.33 47.5182C1131.03 47.7764 1128.55 51.2036 1129.45 54.4332C1129.98 56.3761 1131.7 58.487 1133.1 59.9068C1133.4 60.2134 1134.27 61.0968 1134.61 61.2379C1134.98 61.3872 1135.22 61.2151 1135.48 60.9865ZM1147.42 63.8867C1146.07 61.7852 1144.06 61.2258 1141.65 61.3388C1140.1 61.4127 1137.61 61.8631 1136.16 62.4413C1135.66 62.6416 1135.57 62.8312 1135.63 63.3717C1135.7 64.0682 1136.13 65.3388 1136.36 66.038C1137.42 69.2232 1138.95 72.5267 1142.82 72.4985C1147.16 72.4676 1149.78 67.5438 1147.42 63.8867Z" fill="#FFF9DF"/>
<path d="M1228.25 86.9633C1228.25 87.32 1228 87.5 1227.5 87.5H1223.06C1222.66 87.5 1222.36 87.4683 1222.17 87.4025C1221.97 87.3359 1221.8 87.175 1221.65 86.9157L1216.02 75.5175C1215.92 75.3216 1215.77 75.1924 1215.59 75.1258C1215.41 75.0624 1215.05 75.0307 1214.51 75.0307H1209.9C1209.47 75.0307 1209.14 75.0878 1208.9 75.2011C1208.67 75.3145 1208.55 75.5484 1208.55 75.9051V86.6216C1208.55 86.884 1208.46 87.0925 1208.26 87.2566C1208.06 87.4176 1207.81 87.5 1207.53 87.5H1203.3C1203.01 87.5 1202.77 87.4176 1202.57 87.2566C1202.37 87.0925 1202.27 86.884 1202.27 86.6216V75.0069C1202.99 74.448 1203.67 73.8503 1204.3 73.2129C1205.18 72.3218 1205.97 71.3452 1206.67 70.3074C1206.74 70.2044 1206.81 70.1029 1206.87 69.9999C1207.36 69.2459 1207.78 68.4675 1208.15 67.6787C1209.05 67.3433 1209.94 66.9549 1210.79 66.5078C1213.24 65.2132 1215.36 63.5444 1217.07 61.5451C1217.64 60.872 1218.18 60.153 1218.67 59.4054C1219.59 57.9832 1220.31 56.4627 1220.81 54.8867C1222.62 55.8555 1224.07 57.1437 1225.14 58.7593C1226.24 60.4178 1226.79 62.2364 1226.79 64.2167C1226.79 65.9029 1226.37 67.4947 1225.52 68.9891C1224.67 70.4826 1223.51 71.7336 1222.03 72.7412C1221.81 72.8704 1221.7 73.0322 1221.7 73.228C1221.7 73.4238 1221.72 73.5847 1221.76 73.7147L1228.03 86.3323C1228.18 86.5598 1228.25 86.7683 1228.25 86.9641H1228.25V86.9633ZM1196.05 41.5874C1197.05 41.9402 1198.04 42.3738 1198.98 42.874C1202.27 44.6046 1204.92 47.0051 1206.86 50.0065C1207.31 50.7041 1207.71 51.4152 1208.05 52.1279C1208.9 53.8878 1209.45 55.7635 1209.69 57.697C1209.79 58.4533 1209.84 59.2397 1209.84 60.0262C1209.84 61.3628 1209.7 62.6811 1209.42 63.9456C1209.41 63.9717 1209.41 63.9979 1209.4 64.024C1209.42 64.0137 1209.44 64.0042 1209.46 63.9931C1211.61 62.8626 1213.43 61.4317 1214.91 59.7011C1215.41 59.12 1215.86 58.5072 1216.29 57.8564C1217.12 56.5737 1217.74 55.2316 1218.16 53.8323C1218.59 52.4173 1218.8 50.9396 1218.8 49.404C1218.8 46.3495 1217.96 43.5265 1216.29 40.927C1214.61 38.3307 1212.34 36.2751 1209.46 34.7649C1206.6 33.2555 1203.47 32.5 1200.07 32.5H1189.25C1188.93 32.5 1188.65 32.607 1188.44 32.8155C1188.22 33.0272 1188.11 33.2801 1188.11 33.5702V40.2785H1188.27C1190.99 40.2785 1193.6 40.7185 1196.05 41.5858L1196.05 41.5874ZM1202.27 71.2159C1200.96 72.5517 1199.42 73.6854 1197.66 74.6145C1194.79 76.1239 1191.66 76.8794 1188.27 76.8794H1177.87C1177.44 76.8794 1177.07 76.7407 1176.76 76.4656C1176.46 76.1873 1176.31 75.856 1176.31 75.4643V44.1932C1176.31 43.9022 1176.41 43.6501 1176.63 43.4385C1176.85 43.2268 1177.12 43.123 1177.44 43.123H1188.27C1190.67 43.123 1192.95 43.5051 1195.09 44.2661C1195.97 44.5753 1196.83 44.9487 1197.66 45.3871C1200.52 46.8965 1202.8 48.9529 1204.47 51.5492C1204.85 52.1398 1205.19 52.7431 1205.49 53.3559C1206.21 54.8494 1206.67 56.4136 1206.87 58.0458C1206.95 58.6935 1206.99 59.3531 1206.99 60.0262C1206.99 61.163 1206.88 62.2689 1206.64 63.3391C1206.49 64.0399 1206.29 64.7256 1206.03 65.3987C1205.64 66.4602 1205.12 67.4828 1204.47 68.4746C1204.43 68.5507 1204.38 68.6228 1204.32 68.6989C1203.72 69.6051 1203.03 70.4454 1202.27 71.2159H1202.27ZM1189.61 61.4412C1188.75 61.0996 1187.28 60.834 1186.36 60.7912C1184.93 60.7246 1183.75 61.0544 1182.95 62.2934C1181.55 64.4505 1183.1 67.3528 1185.67 67.3711C1187.95 67.3877 1188.86 65.4399 1189.49 63.5619C1189.62 63.1496 1189.88 62.4005 1189.92 61.9898C1189.96 61.6711 1189.9 61.5594 1189.61 61.4412ZM1190.76 60.5827C1191.02 60.3615 1191.35 60.0008 1191.58 59.7424C1192.26 59.0106 1193.01 58.0934 1193.41 57.1809C1194.42 54.8605 1192.55 52.4498 1190.08 52.6416C1188.13 52.7938 1186.66 54.8146 1187.19 56.7188C1187.51 57.8643 1188.53 59.1089 1189.35 59.9461C1189.53 60.1268 1190.05 60.6477 1190.25 60.7309C1190.46 60.8189 1190.61 60.7174 1190.76 60.5827ZM1197.83 62.2927C1197.03 61.0536 1195.84 60.7238 1194.41 60.7904C1193.49 60.834 1192.02 61.0996 1191.16 61.4404C1190.87 61.5586 1190.81 61.6703 1190.85 61.989C1190.89 62.3997 1191.15 63.1488 1191.28 63.5611C1191.91 65.4391 1192.82 67.3869 1195.11 67.3703C1197.67 67.352 1199.22 64.449 1197.83 62.2927Z" fill="#191919"/>
<path d="M1268.4 62.4426C1266.96 61.8631 1264.46 61.4127 1262.91 61.3401C1260.5 61.2272 1258.49 61.7865 1257.14 63.888C1254.79 67.5465 1257.4 72.4689 1261.74 72.4998C1265.61 72.5281 1267.14 69.2245 1268.2 66.0393C1268.43 65.3401 1268.86 64.0695 1268.93 63.3731C1268.99 62.8326 1268.9 62.643 1268.4 62.4426ZM1270.35 60.9865C1270.8 60.6114 1271.34 59.9996 1271.74 59.5613C1272.88 58.3203 1274.15 56.7646 1274.82 55.2171C1276.54 51.2816 1273.38 47.1928 1269.21 47.5182C1265.9 47.7764 1263.42 51.2036 1264.32 54.4332C1264.86 56.3761 1266.57 58.487 1267.97 59.9068C1268.27 60.2134 1269.14 61.0968 1269.48 61.2379C1269.85 61.3872 1270.09 61.2151 1270.35 60.9865ZM1282.29 63.8867C1280.94 61.7852 1278.93 61.2258 1276.53 61.3388C1274.97 61.4127 1272.48 61.8631 1271.03 62.4413C1270.53 62.6416 1270.44 62.8312 1270.5 63.3717C1270.57 64.0682 1271 65.3388 1271.24 66.038C1272.29 69.2232 1273.83 72.5267 1277.69 72.4985C1282.03 72.4676 1284.65 67.5438 1282.29 63.8867Z" fill="#FFF9DF"/>
<path d="M1363.13 86.9633C1363.13 87.32 1362.87 87.5 1362.37 87.5H1357.93C1357.53 87.5 1357.24 87.4683 1357.04 87.4025C1356.84 87.3359 1356.67 87.175 1356.52 86.9157L1350.89 75.5175C1350.79 75.3216 1350.64 75.1924 1350.46 75.1258C1350.28 75.0624 1349.92 75.0307 1349.38 75.0307H1344.78C1344.34 75.0307 1344.01 75.0878 1343.77 75.2011C1343.54 75.3145 1343.42 75.5484 1343.42 75.9051V86.6216C1343.42 86.884 1343.33 87.0925 1343.13 87.2566C1342.93 87.4176 1342.68 87.5 1342.4 87.5H1338.17C1337.88 87.5 1337.64 87.4176 1337.44 87.2566C1337.25 87.0925 1337.14 86.884 1337.14 86.6216V75.0069C1337.86 74.448 1338.54 73.8503 1339.17 73.2129C1340.05 72.3218 1340.84 71.3452 1341.54 70.3074C1341.61 70.2044 1341.68 70.1029 1341.74 69.9999C1342.23 69.2459 1342.65 68.4675 1343.02 67.6787C1343.92 67.3433 1344.81 66.9549 1345.66 66.5078C1348.12 65.2132 1350.23 63.5444 1351.94 61.5451C1352.51 60.872 1353.05 60.153 1353.54 59.4054C1354.46 57.9832 1355.18 56.4627 1355.68 54.8867C1357.49 55.8555 1358.94 57.1437 1360.01 58.7593C1361.11 60.4178 1361.66 62.2364 1361.66 64.2167C1361.66 65.9029 1361.24 67.4947 1360.39 68.9891C1359.54 70.4826 1358.38 71.7336 1356.9 72.7412C1356.68 72.8704 1356.57 73.0322 1356.57 73.228C1356.57 73.4238 1356.59 73.5847 1356.63 73.7147L1362.91 86.3323C1363.05 86.5598 1363.12 86.7683 1363.12 86.9641H1363.13V86.9633ZM1330.92 41.5874C1331.92 41.9402 1332.91 42.3738 1333.86 42.874C1337.14 44.6046 1339.8 47.0051 1341.73 50.0065C1342.18 50.7041 1342.58 51.4152 1342.92 52.1279C1343.77 53.8878 1344.32 55.7635 1344.56 57.697C1344.66 58.4533 1344.71 59.2397 1344.71 60.0262C1344.71 61.3628 1344.57 62.6811 1344.29 63.9456C1344.29 63.9717 1344.28 63.9979 1344.27 64.024C1344.29 64.0137 1344.31 64.0042 1344.33 63.9931C1346.48 62.8626 1348.3 61.4317 1349.78 59.7011C1350.28 59.12 1350.73 58.5072 1351.16 57.8564C1351.99 56.5737 1352.61 55.2316 1353.03 53.8323C1353.46 52.4173 1353.67 50.9396 1353.67 49.404C1353.67 46.3495 1352.83 43.5265 1351.16 40.927C1349.48 38.3307 1347.21 36.2751 1344.33 34.7649C1341.47 33.2555 1338.34 32.5 1334.95 32.5H1324.12C1323.8 32.5 1323.52 32.607 1323.31 32.8155C1323.09 33.0272 1322.98 33.2801 1322.98 33.5702V40.2785H1323.14C1325.86 40.2785 1328.48 40.7185 1330.92 41.5858L1330.92 41.5874ZM1337.15 71.2159C1335.83 72.5517 1334.29 73.6854 1332.53 74.6145C1329.66 76.1239 1326.53 76.8794 1323.14 76.8794H1312.74C1312.31 76.8794 1311.94 76.7407 1311.64 76.4656C1311.33 76.1873 1311.18 75.856 1311.18 75.4643V44.1932C1311.18 43.9022 1311.28 43.6501 1311.5 43.4385C1311.72 43.2268 1311.99 43.123 1312.31 43.123H1323.14C1325.54 43.123 1327.82 43.5051 1329.97 44.2661C1330.84 44.5753 1331.7 44.9487 1332.53 45.3871C1335.4 46.8965 1337.67 48.9529 1339.35 51.5492C1339.72 52.1398 1340.06 52.7431 1340.36 53.3559C1341.08 54.8494 1341.54 56.4136 1341.74 58.0458C1341.82 58.6935 1341.86 59.3531 1341.86 60.0262C1341.86 61.163 1341.75 62.2689 1341.51 63.3391C1341.36 64.0399 1341.16 64.7256 1340.91 65.3987C1340.51 66.4602 1339.99 67.4828 1339.35 68.4746C1339.3 68.5507 1339.25 68.6228 1339.19 68.6989C1338.59 69.6051 1337.91 70.4454 1337.14 71.2159H1337.15ZM1324.48 61.4412C1323.62 61.0996 1322.15 60.834 1321.23 60.7912C1319.81 60.7246 1318.62 61.0544 1317.82 62.2934C1316.42 64.4505 1317.97 67.3528 1320.54 67.3711C1322.83 67.3877 1323.73 65.4399 1324.36 63.5619C1324.5 63.1496 1324.75 62.4005 1324.79 61.9898C1324.83 61.6711 1324.77 61.5594 1324.48 61.4412ZM1325.64 60.5827C1325.9 60.3615 1326.22 60.0008 1326.46 59.7424C1327.13 59.0106 1327.88 58.0934 1328.28 57.1809C1329.29 54.8605 1327.42 52.4498 1324.95 52.6416C1323 52.7938 1321.53 54.8146 1322.06 56.7188C1322.38 57.8643 1323.4 59.1089 1324.22 59.9461C1324.4 60.1268 1324.92 60.6477 1325.12 60.7309C1325.33 60.8189 1325.48 60.7174 1325.64 60.5827ZM1332.7 62.2927C1331.9 61.0536 1330.71 60.7238 1329.29 60.7904C1328.36 60.834 1326.89 61.0996 1326.04 61.4404C1325.74 61.5586 1325.69 61.6703 1325.72 61.989C1325.76 62.3997 1326.02 63.1488 1326.16 63.5611C1326.78 65.4391 1327.69 67.3869 1329.98 67.3703C1332.54 67.352 1334.09 64.449 1332.7 62.2927Z" fill="#191919"/>
<path d="M1403.27 62.4426C1401.83 61.8631 1399.33 61.4127 1397.78 61.3401C1395.37 61.2272 1393.36 61.7865 1392.01 63.888C1389.66 67.5465 1392.27 72.4689 1396.61 72.4998C1400.48 72.5281 1402.01 69.2245 1403.07 66.0393C1403.3 65.3401 1403.73 64.0695 1403.8 63.3731C1403.86 62.8326 1403.77 62.643 1403.27 62.4426ZM1405.23 60.9865C1405.67 60.6114 1406.21 59.9996 1406.61 59.5613C1407.75 58.3203 1409.02 56.7646 1409.69 55.2171C1411.41 51.2816 1408.25 47.1928 1404.08 47.5182C1400.77 47.7764 1398.3 51.2036 1399.19 54.4332C1399.73 56.3761 1401.44 58.487 1402.84 59.9068C1403.14 60.2134 1404.01 61.0968 1404.35 61.2379C1404.72 61.3872 1404.96 61.2151 1405.23 60.9865ZM1417.16 63.8867C1415.81 61.7852 1413.8 61.2258 1411.4 61.3388C1409.84 61.4127 1407.35 61.8631 1405.9 62.4413C1405.4 62.6416 1405.31 62.8312 1405.37 63.3717C1405.44 64.0682 1405.87 65.3388 1406.11 66.038C1407.16 69.2232 1408.7 72.5267 1412.56 72.4985C1416.91 72.4676 1419.52 67.5438 1417.16 63.8867Z" fill="#FFF9DF"/>
<path d="M1498 86.9633C1498 87.32 1497.74 87.5 1497.24 87.5H1492.8C1492.4 87.5 1492.11 87.4683 1491.91 87.4025C1491.71 87.3359 1491.54 87.175 1491.39 86.9157L1485.76 75.5175C1485.66 75.3216 1485.51 75.1924 1485.33 75.1258C1485.15 75.0624 1484.79 75.0307 1484.25 75.0307H1479.65C1479.21 75.0307 1478.88 75.0878 1478.65 75.2011C1478.41 75.3145 1478.29 75.5484 1478.29 75.9051V86.6216C1478.29 86.884 1478.2 87.0925 1478 87.2566C1477.8 87.4176 1477.56 87.5 1477.27 87.5H1473.05C1472.75 87.5 1472.51 87.4176 1472.32 87.2566C1472.12 87.0925 1472.02 86.884 1472.02 86.6216V75.0069C1472.73 74.448 1473.41 73.8503 1474.04 73.2129C1474.92 72.3218 1475.71 71.3452 1476.41 70.3074C1476.48 70.2044 1476.55 70.1029 1476.61 69.9999C1477.1 69.2459 1477.52 68.4675 1477.89 67.6787C1478.8 67.3433 1479.68 66.9549 1480.53 66.5078C1482.99 65.2132 1485.1 63.5444 1486.81 61.5451C1487.38 60.872 1487.92 60.153 1488.41 59.4054C1489.33 57.9832 1490.05 56.4627 1490.55 54.8867C1492.36 55.8555 1493.81 57.1437 1494.88 58.7593C1495.98 60.4178 1496.53 62.2364 1496.53 64.2167C1496.53 65.9029 1496.11 67.4947 1495.26 68.9891C1494.41 70.4826 1493.25 71.7336 1491.77 72.7412C1491.55 72.8704 1491.44 73.0322 1491.44 73.228C1491.44 73.4238 1491.46 73.5847 1491.5 73.7147L1497.78 86.3323C1497.92 86.5598 1497.99 86.7683 1497.99 86.9641H1498V86.9633ZM1465.79 41.5874C1466.79 41.9402 1467.78 42.3738 1468.73 42.874C1472.01 44.6046 1474.67 47.0051 1476.61 50.0065C1477.05 50.7041 1477.45 51.4152 1477.79 52.1279C1478.64 53.8878 1479.19 55.7635 1479.43 57.697C1479.53 58.4533 1479.58 59.2397 1479.58 60.0262C1479.58 61.3628 1479.44 62.6811 1479.16 63.9456C1479.16 63.9717 1479.15 63.9979 1479.14 64.024C1479.16 64.0137 1479.18 64.0042 1479.21 63.9931C1481.35 62.8626 1483.17 61.4317 1484.65 59.7011C1485.15 59.12 1485.6 58.5072 1486.03 57.8564C1486.86 56.5737 1487.48 55.2316 1487.9 53.8323C1488.33 52.4173 1488.54 50.9396 1488.54 49.404C1488.54 46.3495 1487.7 43.5265 1486.03 40.927C1484.35 38.3307 1482.08 36.2751 1479.21 34.7649C1476.34 33.2555 1473.21 32.5 1469.82 32.5H1458.99C1458.67 32.5 1458.4 32.607 1458.18 32.8155C1457.96 33.0272 1457.86 33.2801 1457.86 33.5702V40.2785H1458.01C1460.73 40.2785 1463.35 40.7185 1465.79 41.5858L1465.79 41.5874ZM1472.02 71.2159C1470.7 72.5517 1469.16 73.6854 1467.4 74.6145C1464.53 76.1239 1461.4 76.8794 1458.01 76.8794H1447.61C1447.18 76.8794 1446.81 76.7407 1446.51 76.4656C1446.2 76.1873 1446.05 75.856 1446.05 75.4643V44.1932C1446.05 43.9022 1446.16 43.6501 1446.37 43.4385C1446.59 43.2268 1446.86 43.123 1447.18 43.123H1458.01C1460.42 43.123 1462.69 43.5051 1464.84 44.2661C1465.72 44.5753 1466.57 44.9487 1467.4 45.3871C1470.27 46.8965 1472.54 48.9529 1474.22 51.5492C1474.6 52.1398 1474.93 52.7431 1475.23 53.3559C1475.95 54.8494 1476.41 56.4136 1476.61 58.0458C1476.69 58.6935 1476.73 59.3531 1476.73 60.0262C1476.73 61.163 1476.62 62.2689 1476.38 63.3391C1476.23 64.0399 1476.03 64.7256 1475.78 65.3987C1475.38 66.4602 1474.86 67.4828 1474.22 68.4746C1474.17 68.5507 1474.12 68.6228 1474.07 68.6989C1473.46 69.6051 1472.78 70.4454 1472.02 71.2159H1472.02ZM1459.35 61.4412C1458.49 61.0996 1457.02 60.834 1456.1 60.7912C1454.68 60.7246 1453.49 61.0544 1452.69 62.2934C1451.3 64.4505 1452.84 67.3528 1455.41 67.3711C1457.7 67.3877 1458.6 65.4399 1459.23 63.5619C1459.37 63.1496 1459.62 62.4005 1459.66 61.9898C1459.7 61.6711 1459.64 61.5594 1459.35 61.4412ZM1460.51 60.5827C1460.77 60.3615 1461.09 60.0008 1461.33 59.7424C1462 59.0106 1462.75 58.0934 1463.15 57.1809C1464.16 54.8605 1462.29 52.4498 1459.83 52.6416C1457.87 52.7938 1456.41 54.8146 1456.93 56.7188C1457.25 57.8643 1458.27 59.1089 1459.1 59.9461C1459.27 60.1268 1459.79 60.6477 1459.99 60.7309C1460.21 60.8189 1460.35 60.7174 1460.51 60.5827ZM1467.57 62.2927C1466.77 61.0536 1465.58 60.7238 1464.16 60.7904C1463.24 60.834 1461.76 61.0996 1460.91 61.4404C1460.61 61.5586 1460.56 61.6703 1460.59 61.989C1460.63 62.3997 1460.89 63.1488 1461.03 63.5611C1461.65 65.4391 1462.56 67.3869 1464.85 67.3703C1467.42 67.352 1468.96 64.449 1467.57 62.2927Z" fill="#191919"/>
<path d="M1538.14 62.4426C1536.7 61.8631 1534.2 61.4127 1532.65 61.3401C1530.24 61.2272 1528.23 61.7865 1526.88 63.888C1524.53 67.5465 1527.14 72.4689 1531.48 72.4998C1535.35 72.5281 1536.88 69.2245 1537.94 66.0393C1538.17 65.3401 1538.6 64.0695 1538.68 63.3731C1538.73 62.8326 1538.64 62.643 1538.14 62.4426ZM1540.1 60.9865C1540.54 60.6114 1541.08 59.9996 1541.48 59.5613C1542.62 58.3203 1543.89 56.7646 1544.56 55.2171C1546.28 51.2816 1543.12 47.1928 1538.95 47.5182C1535.64 47.7764 1533.17 51.2036 1534.06 54.4332C1534.6 56.3761 1536.31 58.487 1537.71 59.9068C1538.02 60.2134 1538.88 61.0968 1539.23 61.2379C1539.59 61.3872 1539.83 61.2151 1540.1 60.9865ZM1552.03 63.8867C1550.68 61.7852 1548.67 61.2258 1546.27 61.3388C1544.71 61.4127 1542.22 61.8631 1540.77 62.4413C1540.28 62.6416 1540.18 62.8312 1540.24 63.3717C1540.31 64.0682 1540.75 65.3388 1540.98 66.038C1542.03 69.2232 1543.57 72.5267 1547.43 72.4985C1551.78 72.4676 1554.39 67.5438 1552.03 63.8867Z" fill="#FFF9DF"/>
<path d="M1632.87 86.9633C1632.87 87.32 1632.61 87.5 1632.11 87.5H1627.67C1627.27 87.5 1626.98 87.4683 1626.78 87.4025C1626.58 87.3359 1626.41 87.175 1626.26 86.9157L1620.64 75.5175C1620.53 75.3216 1620.38 75.1924 1620.2 75.1258C1620.02 75.0624 1619.66 75.0307 1619.12 75.0307H1614.52C1614.08 75.0307 1613.75 75.0878 1613.52 75.2011C1613.28 75.3145 1613.17 75.5484 1613.17 75.9051V86.6216C1613.17 86.884 1613.07 87.0925 1612.87 87.2566C1612.67 87.4176 1612.43 87.5 1612.14 87.5H1607.92C1607.63 87.5 1607.38 87.4176 1607.19 87.2566C1606.99 87.0925 1606.89 86.884 1606.89 86.6216V75.0069C1607.6 74.448 1608.28 73.8503 1608.91 73.2129C1609.79 72.3218 1610.59 71.3452 1611.28 70.3074C1611.35 70.2044 1611.42 70.1029 1611.49 69.9999C1611.97 69.2459 1612.4 68.4675 1612.76 67.6787C1613.67 67.3433 1614.55 66.9549 1615.4 66.5078C1617.86 65.2132 1619.97 63.5444 1621.68 61.5451C1622.26 60.872 1622.79 60.153 1623.28 59.4054C1624.2 57.9832 1624.92 56.4627 1625.42 54.8867C1627.23 55.8555 1628.68 57.1437 1629.75 58.7593C1630.85 60.4178 1631.4 62.2364 1631.4 64.2167C1631.4 65.9029 1630.98 67.4947 1630.13 68.9891C1629.28 70.4826 1628.12 71.7336 1626.64 72.7412C1626.42 72.8704 1626.32 73.0322 1626.32 73.228C1626.32 73.4238 1626.33 73.5847 1626.37 73.7147L1632.65 86.3323C1632.79 86.5598 1632.87 86.7683 1632.87 86.9641H1632.87V86.9633ZM1600.66 41.5874C1601.66 41.9402 1602.65 42.3738 1603.6 42.874C1606.89 44.6046 1609.54 47.0051 1611.48 50.0065C1611.92 50.7041 1612.32 51.4152 1612.66 52.1279C1613.51 53.8878 1614.06 55.7635 1614.3 57.697C1614.4 58.4533 1614.45 59.2397 1614.45 60.0262C1614.45 61.3628 1614.31 62.6811 1614.03 63.9456C1614.03 63.9717 1614.02 63.9979 1614.01 64.024C1614.04 64.0137 1614.06 64.0042 1614.08 63.9931C1616.22 62.8626 1618.04 61.4317 1619.52 59.7011C1620.02 59.12 1620.48 58.5072 1620.9 57.8564C1621.73 56.5737 1622.35 55.2316 1622.77 53.8323C1623.2 52.4173 1623.41 50.9396 1623.41 49.404C1623.41 46.3495 1622.58 43.5265 1620.9 40.927C1619.22 38.3307 1616.95 36.2751 1614.08 34.7649C1611.21 33.2555 1608.08 32.5 1604.69 32.5H1593.86C1593.54 32.5 1593.27 32.607 1593.05 32.8155C1592.83 33.0272 1592.73 33.2801 1592.73 33.5702V40.2785H1592.88C1595.6 40.2785 1598.22 40.7185 1600.66 41.5858L1600.66 41.5874ZM1606.89 71.2159C1605.57 72.5517 1604.03 73.6854 1602.27 74.6145C1599.4 76.1239 1596.27 76.8794 1592.88 76.8794H1582.49C1582.05 76.8794 1581.68 76.7407 1581.38 76.4656C1581.07 76.1873 1580.92 75.856 1580.92 75.4643V44.1932C1580.92 43.9022 1581.03 43.6501 1581.24 43.4385C1581.46 43.2268 1581.73 43.123 1582.05 43.123H1592.88C1595.29 43.123 1597.56 43.5051 1599.71 44.2661C1600.59 44.5753 1601.44 44.9487 1602.27 45.3871C1605.14 46.8965 1607.41 48.9529 1609.09 51.5492C1609.47 52.1398 1609.8 52.7431 1610.1 53.3559C1610.82 54.8494 1611.28 56.4136 1611.48 58.0458C1611.56 58.6935 1611.6 59.3531 1611.6 60.0262C1611.6 61.163 1611.49 62.2689 1611.25 63.3391C1611.1 64.0399 1610.9 64.7256 1610.65 65.3987C1610.25 66.4602 1609.73 67.4828 1609.09 68.4746C1609.04 68.5507 1608.99 68.6228 1608.94 68.6989C1608.33 69.6051 1607.65 70.4454 1606.89 71.2159H1606.89ZM1594.22 61.4412C1593.37 61.0996 1591.89 60.834 1590.97 60.7912C1589.55 60.7246 1588.36 61.0544 1587.56 62.2934C1586.17 64.4505 1587.71 67.3528 1590.28 67.3711C1592.57 67.3877 1593.48 65.4399 1594.1 63.5619C1594.24 63.1496 1594.49 62.4005 1594.54 61.9898C1594.57 61.6711 1594.52 61.5594 1594.22 61.4412ZM1595.38 60.5827C1595.64 60.3615 1595.96 60.0008 1596.2 59.7424C1596.87 59.0106 1597.62 58.0934 1598.02 57.1809C1599.03 54.8605 1597.17 52.4498 1594.7 52.6416C1592.74 52.7938 1591.28 54.8146 1591.81 56.7188C1592.12 57.8643 1593.14 59.1089 1593.97 59.9461C1594.15 60.1268 1594.66 60.6477 1594.86 60.7309C1595.08 60.8189 1595.22 60.7174 1595.38 60.5827ZM1602.44 62.2927C1601.64 61.0536 1600.45 60.7238 1599.03 60.7904C1598.11 60.834 1596.63 61.0996 1595.78 61.4404C1595.48 61.5586 1595.43 61.6703 1595.46 61.989C1595.51 62.3997 1595.76 63.1488 1595.9 63.5611C1596.52 65.4391 1597.43 67.3869 1599.72 67.3703C1602.29 67.352 1603.83 64.449 1602.44 62.2927Z" fill="#191919"/>
<path d="M1673.01 62.4426C1671.57 61.8631 1669.08 61.4127 1667.52 61.3401C1665.11 61.2272 1663.11 61.7865 1661.75 63.888C1659.4 67.5465 1662.01 72.4689 1666.35 72.4998C1670.22 72.5281 1671.75 69.2245 1672.81 66.0393C1673.04 65.3401 1673.47 64.0695 1673.55 63.3731C1673.6 62.8326 1673.51 62.643 1673.01 62.4426ZM1674.97 60.9865C1675.41 60.6114 1675.95 59.9996 1676.35 59.5613C1677.49 58.3203 1678.76 56.7646 1679.43 55.2171C1681.15 51.2816 1677.99 47.1928 1673.82 47.5182C1670.51 47.7764 1668.04 51.2036 1668.93 54.4332C1669.47 56.3761 1671.18 58.487 1672.58 59.9068C1672.89 60.2134 1673.75 61.0968 1674.1 61.2379C1674.46 61.3872 1674.7 61.2151 1674.97 60.9865ZM1686.9 63.8867C1685.55 61.7852 1683.54 61.2258 1681.14 61.3388C1679.58 61.4127 1677.09 61.8631 1675.64 62.4413C1675.15 62.6416 1675.05 62.8312 1675.11 63.3717C1675.18 64.0682 1675.62 65.3388 1675.85 66.038C1676.9 69.2232 1678.44 72.5267 1682.31 72.4985C1686.65 72.4676 1689.26 67.5438 1686.9 63.8867Z" fill="#FFF9DF"/>
<path d="M1767.74 86.9633C1767.74 87.32 1767.49 87.5 1766.98 87.5H1762.54C1762.14 87.5 1761.85 87.4683 1761.65 87.4025C1761.45 87.3359 1761.28 87.175 1761.13 86.9157L1755.51 75.5175C1755.4 75.3216 1755.25 75.1924 1755.07 75.1258C1754.89 75.0624 1754.53 75.0307 1753.99 75.0307H1749.39C1748.96 75.0307 1748.62 75.0878 1748.39 75.2011C1748.15 75.3145 1748.04 75.5484 1748.04 75.9051V86.6216C1748.04 86.884 1747.94 87.0925 1747.74 87.2566C1747.54 87.4176 1747.3 87.5 1747.01 87.5H1742.79C1742.5 87.5 1742.25 87.4176 1742.06 87.2566C1741.86 87.0925 1741.76 86.884 1741.76 86.6216V75.0069C1742.48 74.448 1743.15 73.8503 1743.78 73.2129C1744.66 72.3218 1745.46 71.3452 1746.15 70.3074C1746.22 70.2044 1746.29 70.1029 1746.36 69.9999C1746.84 69.2459 1747.27 68.4675 1747.63 67.6787C1748.54 67.3433 1749.42 66.9549 1750.27 66.5078C1752.73 65.2132 1754.84 63.5444 1756.55 61.5451C1757.13 60.872 1757.66 60.153 1758.15 59.4054C1759.08 57.9832 1759.79 56.4627 1760.29 54.8867C1762.1 55.8555 1763.55 57.1437 1764.62 58.7593C1765.72 60.4178 1766.27 62.2364 1766.27 64.2167C1766.27 65.9029 1765.85 67.4947 1765 68.9891C1764.15 70.4826 1762.99 71.7336 1761.51 72.7412C1761.29 72.8704 1761.19 73.0322 1761.19 73.228C1761.19 73.4238 1761.21 73.5847 1761.24 73.7147L1767.52 86.3323C1767.66 86.5598 1767.74 86.7683 1767.74 86.9641H1767.74V86.9633ZM1735.53 41.5874C1736.53 41.9402 1737.52 42.3738 1738.47 42.874C1741.76 44.6046 1744.41 47.0051 1746.35 50.0065C1746.8 50.7041 1747.19 51.4152 1747.53 52.1279C1748.38 53.8878 1748.94 55.7635 1749.18 57.697C1749.27 58.4533 1749.32 59.2397 1749.32 60.0262C1749.32 61.3628 1749.18 62.6811 1748.9 63.9456C1748.9 63.9717 1748.89 63.9979 1748.89 64.024C1748.91 64.0137 1748.93 64.0042 1748.95 63.9931C1751.1 62.8626 1752.91 61.4317 1754.39 59.7011C1754.89 59.12 1755.35 58.5072 1755.77 57.8564C1756.6 56.5737 1757.23 55.2316 1757.65 53.8323C1758.07 52.4173 1758.28 50.9396 1758.28 49.404C1758.28 46.3495 1757.45 43.5265 1755.77 40.927C1754.09 38.3307 1751.82 36.2751 1748.95 34.7649C1746.08 33.2555 1742.95 32.5 1739.56 32.5H1728.73C1728.41 32.5 1728.14 32.607 1727.92 32.8155C1727.7 33.0272 1727.6 33.2801 1727.6 33.5702V40.2785H1727.75C1730.47 40.2785 1733.09 40.7185 1735.53 41.5858L1735.53 41.5874ZM1741.76 71.2159C1740.44 72.5517 1738.91 73.6854 1737.14 74.6145C1734.27 76.1239 1731.14 76.8794 1727.75 76.8794H1717.36C1716.92 76.8794 1716.55 76.7407 1716.25 76.4656C1715.94 76.1873 1715.79 75.856 1715.79 75.4643V44.1932C1715.79 43.9022 1715.9 43.6501 1716.11 43.4385C1716.33 43.2268 1716.6 43.123 1716.92 43.123H1727.75C1730.16 43.123 1732.43 43.5051 1734.58 44.2661C1735.46 44.5753 1736.31 44.9487 1737.14 45.3871C1740.01 46.8965 1742.28 48.9529 1743.96 51.5492C1744.34 52.1398 1744.68 52.7431 1744.97 53.3559C1745.69 54.8494 1746.15 56.4136 1746.35 58.0458C1746.43 58.6935 1746.48 59.3531 1746.48 60.0262C1746.48 61.163 1746.36 62.2689 1746.13 63.3391C1745.97 64.0399 1745.77 64.7256 1745.52 65.3987C1745.12 66.4602 1744.6 67.4828 1743.96 68.4746C1743.91 68.5507 1743.86 68.6228 1743.81 68.6989C1743.2 69.6051 1742.52 70.4454 1741.76 71.2159H1741.76ZM1729.09 61.4412C1728.24 61.0996 1726.76 60.834 1725.84 60.7912C1724.42 60.7246 1723.23 61.0544 1722.43 62.2934C1721.04 64.4505 1722.58 67.3528 1725.15 67.3711C1727.44 67.3877 1728.35 65.4399 1728.97 63.5619C1729.11 63.1496 1729.36 62.4005 1729.41 61.9898C1729.44 61.6711 1729.39 61.5594 1729.09 61.4412ZM1730.25 60.5827C1730.51 60.3615 1730.83 60.0008 1731.07 59.7424C1731.74 59.0106 1732.49 58.0934 1732.89 57.1809C1733.9 54.8605 1732.04 52.4498 1729.57 52.6416C1727.61 52.7938 1726.15 54.8146 1726.68 56.7188C1726.99 57.8643 1728.01 59.1089 1728.84 59.9461C1729.02 60.1268 1729.53 60.6477 1729.73 60.7309C1729.95 60.8189 1730.09 60.7174 1730.25 60.5827ZM1737.31 62.2927C1736.51 61.0536 1735.32 60.7238 1733.9 60.7904C1732.98 60.834 1731.5 61.0996 1730.65 61.4404C1730.35 61.5586 1730.3 61.6703 1730.33 61.989C1730.38 62.3997 1730.63 63.1488 1730.77 63.5611C1731.39 65.4391 1732.3 67.3869 1734.59 67.3703C1737.16 67.352 1738.7 64.449 1737.31 62.2927Z" fill="#191919"/>
<path d="M1807.88 62.4426C1806.44 61.8631 1803.95 61.4127 1802.39 61.3401C1799.99 61.2272 1797.98 61.7865 1796.62 63.888C1794.27 67.5465 1796.88 72.4689 1801.22 72.4998C1805.09 72.5281 1806.62 69.2245 1807.68 66.0393C1807.91 65.3401 1808.34 64.0695 1808.42 63.3731C1808.47 62.8326 1808.38 62.643 1807.88 62.4426ZM1809.84 60.9865C1810.28 60.6114 1810.82 59.9996 1811.23 59.5613C1812.36 58.3203 1813.63 56.7646 1814.31 55.2171C1816.02 51.2816 1812.86 47.1928 1808.69 47.5182C1805.38 47.7764 1802.91 51.2036 1803.8 54.4332C1804.34 56.3761 1806.06 58.487 1807.45 59.9068C1807.76 60.2134 1808.62 61.0968 1808.97 61.2379C1809.33 61.3872 1809.57 61.2151 1809.84 60.9865ZM1821.77 63.8867C1820.42 61.7852 1818.41 61.2258 1816.01 61.3388C1814.45 61.4127 1811.96 61.8631 1810.52 62.4413C1810.02 62.6416 1809.92 62.8312 1809.98 63.3717C1810.06 64.0682 1810.49 65.3388 1810.72 66.038C1811.78 69.2232 1813.31 72.5267 1817.18 72.4985C1821.52 72.4676 1824.13 67.5438 1821.77 63.8867Z" fill="#FFF9DF"/>
<path d="M1902.61 86.9633C1902.61 87.32 1902.36 87.5 1901.85 87.5H1897.41C1897.02 87.5 1896.72 87.4683 1896.52 87.4025C1896.32 87.3359 1896.15 87.175 1896 86.9157L1890.38 75.5175C1890.27 75.3216 1890.12 75.1924 1889.94 75.1258C1889.76 75.0624 1889.4 75.0307 1888.86 75.0307H1884.26C1883.83 75.0307 1883.5 75.0878 1883.26 75.2011C1883.02 75.3145 1882.91 75.5484 1882.91 75.9051V86.6216C1882.91 86.884 1882.81 87.0925 1882.61 87.2566C1882.41 87.4176 1882.17 87.5 1881.88 87.5H1877.66C1877.37 87.5 1877.12 87.4176 1876.93 87.2566C1876.73 87.0925 1876.63 86.884 1876.63 86.6216V75.0069C1877.35 74.448 1878.02 73.8503 1878.65 73.2129C1879.53 72.3218 1880.33 71.3452 1881.02 70.3074C1881.09 70.2044 1881.16 70.1029 1881.23 69.9999C1881.71 69.2459 1882.14 68.4675 1882.5 67.6787C1883.41 67.3433 1884.29 66.9549 1885.14 66.5078C1887.6 65.2132 1889.71 63.5444 1891.42 61.5451C1892 60.872 1892.53 60.153 1893.02 59.4054C1893.95 57.9832 1894.66 56.4627 1895.16 54.8867C1896.97 55.8555 1898.42 57.1437 1899.49 58.7593C1900.6 60.4178 1901.15 62.2364 1901.15 64.2167C1901.15 65.9029 1900.72 67.4947 1899.87 68.9891C1899.03 70.4826 1897.86 71.7336 1896.38 72.7412C1896.16 72.8704 1896.06 73.0322 1896.06 73.228C1896.06 73.4238 1896.08 73.5847 1896.11 73.7147L1902.39 86.3323C1902.53 86.5598 1902.61 86.7683 1902.61 86.9641H1902.61V86.9633ZM1870.4 41.5874C1871.4 41.9402 1872.39 42.3738 1873.34 42.874C1876.63 44.6046 1879.28 47.0051 1881.22 50.0065C1881.67 50.7041 1882.06 51.4152 1882.41 52.1279C1883.25 53.8878 1883.81 55.7635 1884.05 57.697C1884.14 58.4533 1884.19 59.2397 1884.19 60.0262C1884.19 61.3628 1884.05 62.6811 1883.77 63.9456C1883.77 63.9717 1883.76 63.9979 1883.76 64.024C1883.78 64.0137 1883.8 64.0042 1883.82 63.9931C1885.97 62.8626 1887.78 61.4317 1889.26 59.7011C1889.76 59.12 1890.22 58.5072 1890.64 57.8564C1891.47 56.5737 1892.1 55.2316 1892.52 53.8323C1892.94 52.4173 1893.15 50.9396 1893.15 49.404C1893.15 46.3495 1892.32 43.5265 1890.64 40.927C1888.96 38.3307 1886.69 36.2751 1883.82 34.7649C1880.95 33.2555 1877.82 32.5 1874.43 32.5H1863.61C1863.28 32.5 1863.01 32.607 1862.79 32.8155C1862.58 33.0272 1862.47 33.2801 1862.47 33.5702V40.2785H1862.62C1865.34 40.2785 1867.96 40.7185 1870.4 41.5858L1870.4 41.5874ZM1876.63 71.2159C1875.32 72.5517 1873.78 73.6854 1872.01 74.6145C1869.14 76.1239 1866.01 76.8794 1862.62 76.8794H1852.23C1851.8 76.8794 1851.43 76.7407 1851.12 76.4656C1850.81 76.1873 1850.66 75.856 1850.66 75.4643V44.1932C1850.66 43.9022 1850.77 43.6501 1850.98 43.4385C1851.2 43.2268 1851.47 43.123 1851.8 43.123H1862.62C1865.03 43.123 1867.31 43.5051 1869.45 44.2661C1870.33 44.5753 1871.18 44.9487 1872.01 45.3871C1874.88 46.8965 1877.15 48.9529 1878.83 51.5492C1879.21 52.1398 1879.55 52.7431 1879.84 53.3559C1880.56 54.8494 1881.02 56.4136 1881.22 58.0458C1881.31 58.6935 1881.35 59.3531 1881.35 60.0262C1881.35 61.163 1881.23 62.2689 1881 63.3391C1880.84 64.0399 1880.64 64.7256 1880.39 65.3987C1879.99 66.4602 1879.47 67.4828 1878.83 68.4746C1878.78 68.5507 1878.73 68.6228 1878.68 68.6989C1878.07 69.6051 1877.39 70.4454 1876.63 71.2159H1876.63ZM1863.96 61.4412C1863.11 61.0996 1861.63 60.834 1860.71 60.7912C1859.29 60.7246 1858.1 61.0544 1857.3 62.2934C1855.91 64.4505 1857.45 67.3528 1860.02 67.3711C1862.31 67.3877 1863.22 65.4399 1863.84 63.5619C1863.98 63.1496 1864.23 62.4005 1864.28 61.9898C1864.31 61.6711 1864.26 61.5594 1863.96 61.4412ZM1865.12 60.5827C1865.38 60.3615 1865.7 60.0008 1865.94 59.7424C1866.61 59.0106 1867.36 58.0934 1867.76 57.1809C1868.78 54.8605 1866.91 52.4498 1864.44 52.6416C1862.48 52.7938 1861.02 54.8146 1861.55 56.7188C1861.87 57.8643 1862.88 59.1089 1863.71 59.9461C1863.89 60.1268 1864.4 60.6477 1864.6 60.7309C1864.82 60.8189 1864.96 60.7174 1865.12 60.5827ZM1872.18 62.2927C1871.38 61.0536 1870.19 60.7238 1868.77 60.7904C1867.85 60.834 1866.37 61.0996 1865.52 61.4404C1865.22 61.5586 1865.17 61.6703 1865.2 61.989C1865.25 62.3997 1865.5 63.1488 1865.64 63.5611C1866.26 65.4391 1867.17 67.3869 1869.46 67.3703C1872.03 67.352 1873.57 64.449 1872.18 62.2927Z" fill="#191919"/>
<defs>
<linearGradient id="paint0_linear_66_175" x1="0" y1="60" x2="2300" y2="60" gradientUnits="userSpaceOnUse">
<stop stop-color="#F15025"/>
<stop offset="1" stop-color="#FF8630"/>
</linearGradient>
</defs>
</svg>
