<svg width="132" height="152" viewBox="0 0 132 152" fill="none" xmlns="http://www.w3.org/2000/svg">
<path d="M0.201767 108.09C0.847916 109.925 2.86113 110.897 4.70556 110.249L38.1343 98.472C39.9739 97.8231 40.9407 95.8065 40.2922 93.9659C39.6436 92.1254 37.628 91.1581 35.7884 91.807L2.35963 103.584C0.52002 104.232 -0.446793 106.249 0.201767 108.09ZM66.6325 143.171C64.8291 145.655 65.3812 149.134 67.8645 150.938C70.3599 152.752 73.8342 152.178 75.628 149.705C85.5397 136.091 102.263 118.31 121.683 102.92C128.179 97.7749 132 89.9665 132 81.6756C132 81.6756 131.99 81.6611 131.981 81.666C113.529 93.7923 96.2856 109.163 81.7568 125.062C81.752 125.069 81.7399 125.067 81.7375 125.06C78.96 119.087 76.7636 111.744 75.2495 103.509C75.2495 103.501 75.2519 103.497 75.2591 103.494C88.6306 101.492 98.9184 89.9254 98.9184 75.9996C98.9184 62.0738 88.6306 50.5072 75.2591 48.505C75.2519 48.505 75.2471 48.4978 75.2495 48.4905C76.7612 40.2552 78.96 32.9123 81.7375 26.9396C81.7399 26.9324 81.752 26.93 81.7568 26.9372C96.329 42.8797 113.563 58.2311 131.981 70.3333C131.99 70.3381 132 70.3333 132 70.3236C132 62.0425 128.241 54.1955 121.751 49.0574C103.162 34.338 86.2654 16.9458 75.628 2.29386C73.8246 -0.190739 70.3479 -0.74314 67.8645 1.06121C65.3812 2.86556 64.8291 6.344 66.6325 8.8286C66.8206 9.08671 69.3329 12.529 73.868 17.9348C73.8704 17.9396 73.8728 17.9444 73.868 17.9493C64.8387 34.1763 61.7599 57.341 61.7599 75.9996C61.7599 94.6438 64.8339 117.816 73.8656 134.05C73.868 134.055 73.8656 134.06 73.8656 134.064C69.3304 139.47 66.8182 142.913 66.6301 143.171H66.6325ZM73.7088 92.4824C73.7088 92.4824 73.6968 92.4776 73.6944 92.4728C73.1591 87.19 69.2002 81.6684 69.2002 75.9996C69.2002 70.3309 73.1567 64.8093 73.6944 59.5265C73.6944 59.5193 73.7016 59.5144 73.7088 59.5168C81.6821 60.7616 87.8037 67.6774 87.8037 75.9996C87.8037 84.3218 81.6821 91.2377 73.7088 92.4824ZM35.7908 60.7881L2.36205 49.0116C0.522446 48.3627 -0.444382 46.3461 0.204178 44.5055C0.852737 42.665 2.86835 41.6977 4.70796 42.3466L38.1367 54.1231C39.9763 54.772 40.9431 56.7886 40.2946 58.6291C39.6484 60.4697 37.6304 61.437 35.7908 60.7881ZM36.9625 79.8303H3.6447C1.73759 79.8303 0.0908661 78.3636 0.00646973 76.458C-0.0827332 74.4341 1.53024 72.7648 3.5338 72.7648H36.8516C38.7588 72.7648 40.4055 74.2315 40.4899 76.1371C40.5791 78.161 38.9661 79.8303 36.9625 79.8303Z" fill="url(#paint0_linear_59_118)"/>
<defs>
<linearGradient id="paint0_linear_59_118" x1="107.779" y1="-4" x2="17.9231" y2="151.557" gradientUnits="userSpaceOnUse">
<stop stop-color="#30AFE5"/>
<stop offset="1" stop-color="#6DD3FF"/>
</linearGradient>
</defs>
</svg>
