<svg width="1766" height="225" viewBox="0 0 1766 225" fill="none" xmlns="http://www.w3.org/2000/svg">
<path d="M8.7 36.96L0.35 9.72C0.12 9.09 0 8.26 0 7.21C0 4.08 1.62 2.52 4.87 2.52H36.19C40.59 2.52 43.15 3.88 43.85 6.59C44.77 9.31 46.23 13.9 48.2 20.37C50.17 26.84 51.73 32.27 52.9 36.65C53.13 37.28 53.25 38.11 53.25 39.16C53.25 41.88 51.04 43.23 46.64 43.23H18.45C13.11 43.23 9.86 41.15 8.71 36.97L8.7 36.96ZM65.77 221.27C64.61 220.75 63.8 219.66 63.33 217.98L36.88 130.61C36.65 129.98 36.53 129.04 36.53 127.79C36.53 125.08 38.38 123.72 42.1 123.72H71.68C75.16 123.72 77.48 124.3 78.64 125.44C79.8 126.59 80.73 128.21 81.42 130.29L89.77 157.85C90.93 161.19 91.86 162.86 92.55 162.86C93.24 162.86 94.06 161.09 94.99 157.54C100.32 139.59 108.09 113.7 118.3 79.87C128.51 46.05 135.93 21.73 140.57 6.9C141.03 5.23 141.9 4.08 143.18 3.46C144.45 2.83 146.14 2.52 148.23 2.52H179.9C181.52 2.52 182.8 3.25 183.73 4.71C184.65 6.17 184.89 7.84 184.43 9.72L121.1 217.98C120.4 220.7 117.85 222.05 113.44 222.05H70.99C68.67 222.05 66.93 221.79 65.77 221.27ZM214.52 220.33C213.24 219.18 212.61 217.88 212.61 216.42V8.47C212.61 6.8 213.31 5.39 214.7 4.24C216.09 3.09 217.6 2.52 219.22 2.52H254.02C255.64 2.52 257.09 3.1 258.37 4.24C259.64 5.39 260.28 6.8 260.28 8.47V216.41C260.28 217.87 259.7 219.18 258.54 220.32C257.38 221.47 255.87 222.04 254.02 222.04H219.22C217.36 222.04 215.79 221.47 214.52 220.32V220.33ZM337.17 209.83C318.38 199.81 303.47 186.19 292.46 168.96C281.44 151.74 275.93 132.9 275.93 112.43C275.93 91.96 281.44 73.44 292.46 56.22C303.48 39 318.38 25.32 337.17 15.19C355.96 5.07 376.49 0 398.76 0C416.62 0 433.38 3.24 449.04 9.71C464.7 16.18 478.21 25.06 489.58 36.33C490.5 37.17 490.97 38.21 490.97 39.46C490.97 40.92 490.39 42.07 489.23 42.9L464.18 62.32C463.02 63.37 461.74 63.89 460.35 63.89C458.96 63.89 457.79 63.37 456.87 62.32C449.44 55.01 440.69 49.32 430.6 45.25C420.51 41.18 409.9 39.14 398.76 39.14C384.37 39.14 371.1 42.43 358.92 49.01C346.74 55.59 337.05 64.51 329.86 75.79C322.67 87.06 319.07 99.28 319.07 112.43C319.07 125.58 322.66 137.8 329.86 149.07C337.05 160.34 346.74 169.27 358.92 175.85C371.1 182.43 384.38 185.72 398.76 185.72C409.43 185.72 419.52 183.89 429.03 180.24C438.54 176.59 447 171.42 454.43 164.74C456.52 163.07 458.72 162.23 461.04 162.23C463.13 162.23 464.75 162.75 465.91 163.8L472.52 168.81L486.44 180.08C488.76 181.54 489.92 183.52 489.92 186.03C489.92 187.49 489.34 188.75 488.18 189.79C476.81 200.86 463.41 209.47 447.99 215.63C432.56 221.79 416.15 224.87 398.75 224.87C376.48 224.87 355.95 219.86 337.16 209.84L337.17 209.83ZM532.04 217.35V48.24C532.04 46.16 531.22 44.43 529.6 43.07C527.97 41.71 526 41.03 523.68 41.03H503.85C502.69 41.03 501.64 40.61 500.72 39.78C499.79 38.95 499.33 37.9 499.33 36.65V7.53C499.33 6.28 499.79 5.24 500.72 4.4C501.64 3.57 502.69 3.15 503.85 3.15H655.91C657.07 3.15 658.11 3.57 659.04 4.4C659.96 5.24 660.43 6.28 660.43 7.53V36.66C660.43 37.91 659.96 38.96 659.04 39.79C658.11 40.63 657.07 41.04 655.91 41.04H590.84C588.52 41.04 586.54 41.77 584.92 43.23C583.29 44.69 582.48 46.36 582.48 48.24V217.35C582.48 218.6 582.01 219.6 581.09 220.33C580.16 221.06 579.12 221.43 577.96 221.43H536.55C533.53 221.43 532.03 220.07 532.03 217.36L532.04 217.35ZM687.75 220.33C686.47 219.18 685.84 217.88 685.84 216.42V8.47C685.84 6.8 686.54 5.39 687.93 4.24C689.32 3.09 690.83 2.52 692.45 2.52H727.25C728.87 2.52 730.32 3.1 731.6 4.24C732.87 5.39 733.51 6.8 733.51 8.47V216.41C733.51 217.87 732.93 219.18 731.77 220.32C730.61 221.47 729.1 222.04 727.25 222.04H692.45C690.59 222.04 689.02 221.47 687.75 220.32V220.33ZM908.54 218.29C899.49 205.56 884.7 184.89 864.17 156.28C843.64 127.68 828.16 105.86 817.72 90.83C816.33 89.37 815.4 88.64 814.94 88.64C814.48 88.64 814.18 89.06 814.07 89.89C813.95 90.73 813.9 91.35 813.9 91.77L814.6 128.72C814.6 130.18 814.02 131.49 812.86 132.63C811.7 133.78 810.19 134.35 808.34 134.35H774.59C772.73 134.35 771.16 133.83 769.89 132.78C768.61 131.74 767.98 130.38 767.98 128.71V9.09C767.98 7.42 768.62 6.01 769.89 4.86C771.16 3.72 772.73 3.14 774.59 3.14H808.69C810.31 3.14 811.7 3.77 812.87 5.02L897.08 131.23C899.17 134.78 900.91 136.55 902.3 136.55C903.46 136.55 904.04 134.78 904.04 131.23L903.69 9.09C903.69 7.42 904.33 6.01 905.6 4.86C906.87 3.72 908.32 3.14 909.95 3.14H946.83C948.68 3.14 950.25 3.72 951.53 4.86C952.8 6.01 953.44 7.42 953.44 9.09V215.78C953.44 217.45 952.8 218.81 951.53 219.85C950.25 220.9 948.69 221.42 946.83 221.42H914.12C912.26 221.42 910.41 220.38 908.55 218.29H908.54ZM1117.3 209.83C1098.51 199.81 1083.6 186.19 1072.59 168.96C1061.57 151.74 1056.06 132.9 1056.06 112.43C1056.06 91.96 1061.57 73.44 1072.59 56.22C1083.61 39 1098.51 25.32 1117.3 15.19C1136.09 5.07 1156.62 0 1178.89 0C1196.75 0 1213.51 3.24 1229.17 9.71C1244.83 16.18 1258.34 25.06 1269.71 36.33C1270.63 37.17 1271.1 38.21 1271.1 39.46C1271.1 40.92 1270.52 42.07 1269.36 42.9L1244.31 62.32C1243.15 63.37 1241.87 63.89 1240.48 63.89C1239.09 63.89 1237.93 63.37 1237 62.32C1229.57 55.01 1220.82 49.32 1210.73 45.25C1200.64 41.18 1190.03 39.14 1178.89 39.14C1164.5 39.14 1151.23 42.43 1139.05 49.01C1126.87 55.59 1117.18 64.51 1109.99 75.79C1102.8 87.06 1099.2 99.28 1099.2 112.43C1099.2 125.58 1102.79 137.8 1109.99 149.07C1117.18 160.34 1126.87 169.27 1139.05 175.85C1151.23 182.43 1164.51 185.72 1178.89 185.72C1189.56 185.72 1199.65 183.89 1209.16 180.24C1218.67 176.59 1227.13 171.42 1234.56 164.74C1236.65 163.07 1238.85 162.23 1241.17 162.23C1243.26 162.23 1244.88 162.75 1246.04 163.8L1252.65 168.81L1266.57 180.08C1268.89 181.54 1270.05 183.52 1270.05 186.03C1270.05 187.49 1269.47 188.75 1268.31 189.79C1256.94 200.86 1243.55 209.47 1228.12 215.63C1212.69 221.79 1196.28 224.87 1178.88 224.87C1156.61 224.87 1136.08 219.86 1117.29 209.84L1117.3 209.83ZM1301.2 220.33C1299.92 219.18 1299.29 217.88 1299.29 216.42V8.47C1299.29 6.8 1299.99 5.39 1301.38 4.24C1302.77 3.09 1304.28 2.52 1305.9 2.52H1340.7C1342.32 2.52 1343.77 3.1 1345.05 4.24C1346.32 5.39 1346.96 6.8 1346.96 8.47V216.41C1346.96 217.87 1346.38 219.18 1345.22 220.32C1344.06 221.47 1342.55 222.04 1340.7 222.04H1305.9C1304.04 222.04 1302.47 221.47 1301.2 220.32V220.33ZM1521.99 218.29C1512.94 205.56 1498.15 184.89 1477.62 156.28C1457.09 127.68 1441.6 105.86 1431.17 90.83C1429.78 89.37 1428.85 88.64 1428.39 88.64C1427.93 88.64 1427.63 89.06 1427.52 89.89C1427.4 90.73 1427.35 91.35 1427.35 91.77L1428.05 128.72C1428.05 130.18 1427.47 131.49 1426.31 132.63C1425.15 133.78 1423.64 134.35 1421.79 134.35H1388.04C1386.18 134.35 1384.61 133.83 1383.34 132.78C1382.06 131.74 1381.43 130.38 1381.43 128.71V9.09C1381.43 7.42 1382.07 6.01 1383.34 4.86C1384.61 3.72 1386.18 3.14 1388.04 3.14H1422.14C1423.76 3.14 1425.15 3.77 1426.32 5.02L1510.53 131.23C1512.62 134.78 1514.36 136.55 1515.75 136.55C1516.91 136.55 1517.49 134.78 1517.49 131.23L1517.14 9.09C1517.14 7.42 1517.78 6.01 1519.05 4.86C1520.32 3.72 1521.77 3.14 1523.4 3.14H1560.28C1562.13 3.14 1563.7 3.72 1564.98 4.86C1566.25 6.01 1566.89 7.42 1566.89 9.09V215.78C1566.89 217.45 1566.25 218.81 1564.98 219.85C1563.7 220.9 1562.14 221.42 1560.28 221.42H1527.57C1525.71 221.42 1523.86 220.38 1522 218.29H1521.99ZM1592.79 39.63C1591.51 38.48 1590.88 37.08 1590.88 35.4V8.47C1590.88 6.8 1591.52 5.45 1592.79 4.4C1594.06 3.36 1595.51 2.83 1597.14 2.83H1758.6C1760.45 2.83 1762.02 3.41 1763.3 4.55C1764.57 5.7 1765.21 7.01 1765.21 8.46V35.39C1765.21 36.85 1764.57 38.21 1763.3 39.46C1762.02 40.71 1760.46 41.34 1758.6 41.34H1597.14C1595.51 41.34 1594.06 40.77 1592.79 39.62V39.63ZM1592.79 220.33C1591.51 219.18 1590.88 217.88 1590.88 216.42V71.73C1590.88 70.06 1591.52 68.71 1592.79 67.66C1594.06 66.62 1595.51 66.09 1597.14 66.09H1626.72C1628.57 66.09 1630.08 66.61 1631.24 67.66C1632.4 68.71 1632.98 70.06 1632.98 71.73V94.28C1632.98 98.25 1635.99 100.23 1642.03 100.23H1729.72C1731.34 100.23 1732.73 100.7 1733.9 101.64C1735.06 102.58 1735.64 103.78 1735.64 105.24V132.17C1735.64 133.63 1735.06 134.83 1733.9 135.77C1732.74 136.71 1731.34 137.18 1729.72 137.18H1640.99C1635.65 137.18 1632.99 139.37 1632.99 143.76V177.9C1632.99 179.36 1633.69 180.72 1635.08 181.97C1636.47 183.22 1637.98 183.85 1639.6 183.85H1759.3C1761.15 183.85 1762.66 184.37 1763.82 185.42C1764.98 186.47 1765.56 187.82 1765.56 189.49V216.42C1765.56 217.88 1764.98 219.19 1763.82 220.33C1762.66 221.48 1761.15 222.05 1759.3 222.05H1597.15C1595.52 222.05 1594.07 221.48 1592.8 220.33H1592.79Z" fill="#191919"/>
</svg>
