<svg width="124" height="25" viewBox="0 0 124 25" fill="none" xmlns="http://www.w3.org/2000/svg">
<path d="M47.1113 13.6016C47.9648 13.6016 48.7783 13.7554 49.5518 14.0625C50.3253 14.3697 50.9974 14.8102 51.5664 15.3838C51.6345 15.4449 51.6689 15.5127 51.6689 15.584C51.6689 15.645 51.6288 15.7112 51.5498 15.7832C51.3108 15.9572 51.072 16.1395 50.833 16.3291C50.5944 16.5184 50.4289 16.6493 50.3379 16.7207C50.2697 16.7826 50.1895 16.8134 50.0986 16.8135C50.0187 16.8135 49.9451 16.7826 49.877 16.7207C49.5125 16.3626 49.0913 16.0883 48.6133 15.8994C48.1352 15.7098 47.6341 15.6152 47.1113 15.6152C46.4287 15.6152 45.7935 15.7744 45.208 16.0918C44.6219 16.4092 44.1583 16.8351 43.8174 17.3672C43.4757 17.9001 43.3047 18.4836 43.3047 19.1191C43.3047 19.7546 43.4766 20.338 43.8174 20.8701C44.1583 21.4029 44.6219 21.8281 45.208 22.1455C45.7943 22.4629 46.4286 22.6221 47.1113 22.6221C47.6004 22.6221 48.0729 22.5343 48.5283 22.3604C48.9829 22.1863 49.3934 21.936 49.7578 21.6084C49.8714 21.5262 49.9966 21.4854 50.1328 21.4854C50.2462 21.4854 50.3373 21.5155 50.4062 21.5771C50.5199 21.6594 50.6795 21.7802 50.8848 21.9385C51.0892 22.0975 51.266 22.2374 51.4141 22.3604C51.5393 22.4527 51.6014 22.5652 51.6016 22.6982C51.6016 22.7805 51.5671 22.852 51.499 22.9131C50.93 23.4664 50.267 23.8914 49.5107 24.1885C48.7536 24.4855 47.9541 24.6338 47.1123 24.6338C46.0197 24.6338 45.0083 24.3879 44.0811 23.8965V23.8955C43.1531 23.4041 42.4189 22.7355 41.8789 21.8906C41.3382 21.0457 41.0693 20.1212 41.0693 19.1172C41.0694 18.1132 41.3389 17.2043 41.8789 16.3594C42.4189 15.5145 43.1539 14.8436 44.0811 14.3467C45.0083 13.8498 46.0188 13.6016 47.1113 13.6016ZM92.4463 13.6221C93.4024 13.5712 94.3355 13.7249 95.2461 14.083C95.8149 14.3079 96.3637 14.6384 96.8926 15.0732C97.4215 15.5081 97.8058 15.9409 98.0449 16.3711C98.5794 17.2113 98.8476 18.1228 98.8477 19.1064C98.8476 19.6799 98.7503 20.2404 98.5576 20.7881C98.3641 21.3358 98.0793 21.8455 97.7041 22.3164C97.4196 22.6754 97.1089 22.9905 96.7734 23.2617C96.4381 23.5328 96.0249 23.7864 95.5361 24.0215C94.6598 24.4212 93.7148 24.6201 92.7021 24.6201C91.8376 24.6201 91.0119 24.4664 90.2266 24.1592C89.4415 23.8316 88.7675 23.3835 88.2041 22.8154C87.6413 22.2475 87.2293 21.6152 86.9678 20.9189L86.9336 20.8428C86.7291 20.2895 86.626 19.7161 86.626 19.1221C86.626 18.4873 86.7454 17.8624 86.9844 17.248C87.2234 16.6337 87.5816 16.0755 88.0596 15.5732C88.685 14.969 89.3202 14.5055 89.9629 14.1826C90.6055 13.8598 91.4166 13.673 92.3945 13.6221H92.4463ZM26.709 13.7334C26.7879 13.7335 26.8501 13.7697 26.8955 13.8408C26.9409 13.9129 26.9525 13.9945 26.9307 14.0869L23.8232 24.3027C23.7888 24.4359 23.6644 24.5029 23.4482 24.5029H21.3652C21.2519 24.5029 21.1666 24.4906 21.1094 24.4648H21.1104V24.4639C21.0532 24.438 21.0131 24.384 20.9912 24.3018L19.6943 20.0166C19.6826 19.986 19.6768 19.9389 19.6768 19.8779C19.6771 19.7451 19.7686 19.6787 19.9502 19.6787H21.4004C21.5708 19.6787 21.6846 19.7066 21.7412 19.7627C21.7975 19.819 21.8442 19.8986 21.8779 20.001L22.2881 21.3535C22.3443 21.5166 22.3902 21.5989 22.4238 21.5996C22.4575 21.5996 22.4975 21.5126 22.543 21.3389C22.8048 20.4579 23.1857 19.1875 23.6865 17.5283C24.1872 15.8695 24.5512 14.6766 24.7793 13.9492C24.802 13.8679 24.8446 13.8106 24.9072 13.7793C24.9699 13.7488 25.0526 13.7334 25.1553 13.7334H26.709ZM107.369 13.7334C107.494 13.7334 107.588 13.7457 107.65 13.7715C107.713 13.7973 107.756 13.8507 107.778 13.9326C107.995 14.66 108.353 15.848 108.854 17.4971C109.354 19.1461 109.735 20.4217 109.997 21.3223C110.053 21.5064 110.1 21.5986 110.134 21.5986C110.179 21.5982 110.224 21.5059 110.27 21.3223C110.531 20.4209 110.912 19.146 111.413 17.4971C111.914 15.848 112.273 14.66 112.489 13.9326C112.524 13.8507 112.571 13.7973 112.634 13.7715C112.696 13.7465 112.784 13.7334 112.898 13.7334H114.47C114.617 13.7335 114.691 13.8058 114.691 13.9482H114.692C114.692 13.9997 114.686 14.0408 114.675 14.0713L111.567 24.3027C111.545 24.385 111.505 24.439 111.448 24.4648C111.391 24.4905 111.306 24.5029 111.192 24.5029H109.093C108.979 24.5029 108.89 24.4907 108.828 24.4648C108.766 24.4389 108.722 24.385 108.7 24.3027L105.611 14.0713C105.6 14.0407 105.594 13.9936 105.594 13.9326C105.594 13.7998 105.668 13.7334 105.815 13.7334H107.369ZM16.334 13.7324C16.4139 13.7324 16.4842 13.7556 16.5469 13.8018C16.6095 13.8479 16.6521 13.9018 16.6748 13.9629L19.6963 24.3018H19.6943C19.7061 24.3526 19.6938 24.3997 19.6602 24.4404C19.6265 24.4817 19.5813 24.5019 19.5244 24.502H17.8516C17.7834 24.502 17.7131 24.4788 17.6387 24.4326C17.5651 24.3872 17.5225 24.3288 17.5107 24.2568L16.6738 21.415C16.6511 21.3227 16.5938 21.2457 16.5029 21.1846C16.4121 21.1227 16.3155 21.0918 16.2129 21.0918H12.9062C12.8044 21.0918 12.7071 21.1227 12.6162 21.1846C12.5247 21.2456 12.4681 21.3227 12.4453 21.415L11.6094 24.2568C11.5984 24.328 11.5549 24.3864 11.4814 24.4326C11.4079 24.4788 11.3366 24.5019 11.2686 24.502H9.5957C9.53853 24.502 9.49346 24.4811 9.45898 24.4404C9.42537 24.3997 9.41404 24.3534 9.42578 24.3018L12.4473 13.9629C12.47 13.9011 12.5126 13.8479 12.5752 13.8018C12.6371 13.7556 12.7082 13.7324 12.7881 13.7324H16.334ZM29.9668 13.7314C30.0458 13.7314 30.1171 13.7602 30.1797 13.8164C30.2423 13.8728 30.2743 13.9422 30.2744 14.0244V24.2256C30.2744 24.2975 30.2447 24.3607 30.1885 24.417C30.1313 24.4734 30.0577 24.502 29.9668 24.502H28.1914C28.1006 24.5019 28.0236 24.4734 27.9609 24.417C27.8986 24.3607 27.8672 24.2974 27.8672 24.2256V14.0244C27.8673 13.943 27.9017 13.8728 27.9697 13.8164C28.0378 13.7601 28.1116 13.7315 28.1914 13.7314H29.9668ZM54.625 13.7314C54.7041 13.7314 54.7752 13.7601 54.8379 13.8164C54.9005 13.8728 54.9326 13.9422 54.9326 14.0244V24.2256C54.9326 24.2975 54.9029 24.3607 54.8467 24.417C54.7895 24.4734 54.7159 24.502 54.625 24.502H52.8496C52.7587 24.5019 52.6818 24.4734 52.6191 24.417C52.5568 24.3607 52.5255 24.2975 52.5254 24.2256V14.0244C52.5255 13.943 52.5598 13.8728 52.6279 13.8164C52.6961 13.7601 52.7698 13.7315 52.8496 13.7314H54.625ZM63.3174 13.7314C64.0227 13.7314 64.672 13.8852 65.2637 14.1924C65.8554 14.4996 66.3247 14.9148 66.6719 15.4375C67.019 15.9593 67.1923 16.5328 67.1924 17.1572C67.1924 17.6901 67.0582 18.1921 66.791 18.6631C66.5238 19.134 66.1566 19.5283 65.6904 19.8457C65.6223 19.8864 65.588 19.939 65.5879 20C65.5879 20.0608 65.5928 20.1127 65.6045 20.1533L67.585 24.1328C67.6303 24.204 67.6533 24.2712 67.6533 24.333C67.6532 24.4457 67.5729 24.5019 67.4141 24.502H66.0137C65.8884 24.5019 65.7943 24.492 65.7324 24.4717C65.6698 24.4513 65.6157 24.3996 65.5703 24.3174L63.7949 20.7227C63.7604 20.6616 63.7146 20.6208 63.6582 20.5996C63.6009 20.5793 63.4869 20.5693 63.3164 20.5693H61.8662C61.7299 20.5693 61.6235 20.587 61.5498 20.623C61.4756 20.6591 61.4385 20.7339 61.4385 20.8457V24.2256C61.4384 24.3076 61.4072 24.3739 61.3447 24.4248C61.282 24.4765 61.2052 24.502 61.1143 24.502H59.7822C59.6915 24.5019 59.6144 24.4765 59.5518 24.4248C59.4895 24.374 59.4581 24.3075 59.458 24.2256V18.8643C59.4581 18.7821 59.4892 18.7126 59.5518 18.6562C59.6144 18.6 59.6915 18.5714 59.7822 18.5713H63.3164C63.7715 18.5712 64.1544 18.4336 64.4678 18.1572C64.7804 17.8806 64.9375 17.5477 64.9375 17.1582C64.9374 16.7689 64.7804 16.4211 64.4678 16.1445C64.1552 15.8681 63.7715 15.7296 63.3164 15.7295H61.8828C61.7575 15.7295 61.6518 15.768 61.5664 15.8447C61.4812 15.9214 61.4386 16.0117 61.4385 16.1133V16.498C61.4384 16.6005 61.3983 16.6899 61.3193 16.7666C61.2395 16.8432 61.1379 16.8818 61.0127 16.8818H59.8857C59.7723 16.8818 59.6732 16.8432 59.5879 16.7666C59.5026 16.6899 59.4601 16.6005 59.46 16.498V14.0244C59.46 13.943 59.4911 13.8728 59.5537 13.8164C59.6164 13.76 59.6933 13.7314 59.7842 13.7314H63.3174ZM101.89 13.7324C101.992 13.7325 102.077 13.7663 102.146 13.832C102.214 13.8986 102.248 13.9733 102.248 14.0547V22.1504C102.248 22.2325 102.283 22.3065 102.351 22.373C102.419 22.4396 102.499 22.4726 102.59 22.4727H106.721C106.823 22.4727 106.908 22.5037 106.977 22.5654C107.045 22.6273 107.08 22.6991 107.08 22.7812V24.1787C107.08 24.2711 107.045 24.3481 106.977 24.4092C106.908 24.4711 106.823 24.502 106.721 24.502H100.132C100.041 24.5019 99.9574 24.4711 99.8838 24.4092L99.835 24.3604C99.7933 24.3087 99.7725 24.248 99.7725 24.1787V14.0547C99.7725 13.9733 99.8094 13.8986 99.8838 13.832C99.9573 13.7656 100.039 13.7325 100.131 13.7324H101.89ZM33.1963 13.7617C33.2753 13.7617 33.3385 13.798 33.3848 13.8691L37.4297 20.0303C37.5551 20.2348 37.6574 20.3379 37.7373 20.3379C37.8279 20.3376 37.873 20.2245 37.873 20L37.8398 13.9775C37.84 13.9167 37.8654 13.8648 37.916 13.8242C37.9669 13.7836 38.0269 13.7618 38.0957 13.7617H39.8887C39.9567 13.7618 40.0167 13.7828 40.0684 13.8242C40.119 13.8648 40.1444 13.9167 40.1445 13.9775V24.2559C40.1445 24.3168 40.1189 24.3685 40.0684 24.4092C40.0175 24.4499 39.9568 24.4716 39.8887 24.4717H38.6768C38.4722 24.4717 38.3292 24.4554 38.25 24.4248C38.1702 24.3941 38.0849 24.3117 37.9941 24.1787L33.6924 18.0186C33.6242 17.9262 33.5611 17.8809 33.5039 17.8809C33.4134 17.8811 33.3683 17.9527 33.3682 18.0947L33.4023 24.2559C33.4023 24.3169 33.3761 24.3684 33.3252 24.4092C33.2743 24.4499 33.2203 24.4717 33.1631 24.4717H31.4561C31.3879 24.4717 31.3281 24.4507 31.2764 24.4092L31.2422 24.377C31.2136 24.3424 31.1992 24.3016 31.1992 24.2559V13.9775C31.1993 13.9166 31.2255 13.8649 31.2764 13.8242C31.3272 13.7837 31.3872 13.7618 31.4551 13.7617H33.1963ZM82.252 13.7783C83.1163 13.7784 83.9643 13.9267 84.7949 14.2236C85.6828 14.6233 86.0743 14.9616 85.9727 15.2383C85.9044 15.3918 85.7702 15.5842 85.5713 15.8145C85.3725 16.0445 85.244 16.1962 85.1875 16.2676C85.153 16.3081 85.1022 16.3281 85.0342 16.3281C84.9205 16.3281 84.7268 16.2675 84.4541 16.1445C84.0898 15.991 83.7888 15.8933 83.5498 15.8525C83.0262 15.7506 82.5995 15.6992 82.2695 15.6992C81.9051 15.6992 81.5354 15.7553 81.1592 15.8682C80.8631 16.0013 80.6356 16.1575 80.4766 16.3369C80.3168 16.5163 80.2383 16.7032 80.2383 16.8975C80.2383 17.1843 80.3969 17.4356 80.7158 17.6504C81.0684 17.876 81.4472 18.0642 81.8506 18.2178C82.2542 18.3714 82.7072 18.5305 83.208 18.6943C83.7542 18.8785 84.195 19.0462 84.5312 19.1943C84.8665 19.3432 85.1422 19.5402 85.3584 19.7861C85.5856 19.9805 85.7771 20.2572 85.9307 20.6152C86.0842 20.9741 86.1611 21.317 86.1611 21.6445C86.1611 22.2181 85.9902 22.7155 85.6494 23.1348C85.3085 23.5547 84.8357 23.88 84.2324 24.1104C83.6289 24.3408 82.9348 24.4561 82.1494 24.4561C81.2732 24.456 80.3772 24.3276 79.4609 24.0713C78.5448 23.8158 77.8988 23.5338 77.5234 23.2266C77.4554 23.1647 77.4209 23.0885 77.4209 22.9961C77.4211 22.8943 77.4668 22.7657 77.5576 22.6123C77.6486 22.4587 77.8024 22.2433 78.0186 21.9668C78.0976 21.8653 78.1952 21.8135 78.3086 21.8135C78.3431 21.8136 78.3941 21.8235 78.4619 21.8438C79.27 22.2121 79.9387 22.4458 80.4678 22.543C80.9967 22.6401 81.5569 22.6894 82.1484 22.6895C82.7401 22.6895 83.187 22.5994 83.5225 22.4199C83.8579 22.2412 84.0264 22.0031 84.0264 21.7061C84.0262 21.46 83.9069 21.1984 83.668 20.9219C83.5198 20.748 83.2832 20.6026 82.959 20.4844C82.6346 20.3669 82.228 20.246 81.7393 20.123C81.682 20.1128 81.5339 20.0767 81.2949 20.0156C80.3733 19.7695 79.6563 19.4751 79.1445 19.1318C78.6328 18.7885 78.291 18.3559 78.1201 17.834C77.9948 17.476 77.9327 17.1485 77.9326 16.8516C77.9327 16.3296 78.0863 15.8498 78.3936 15.4141C78.7008 14.9792 79.145 14.6178 79.7256 14.3311C80.3055 14.0443 80.989 13.866 81.7734 13.7939C81.8761 13.7838 82.0356 13.7783 82.252 13.7783ZM76.0703 13.7783C76.1611 13.7783 76.2348 13.8037 76.292 13.8545C76.3484 13.9062 76.3779 13.9725 76.3779 14.0547V15.3447C76.3779 15.4168 76.3491 15.4807 76.292 15.5371C76.2348 15.5934 76.1611 15.6211 76.0703 15.6211H70.5566C70.4769 15.6212 70.4063 15.6474 70.3438 15.6982C70.2811 15.7499 70.2501 15.8163 70.25 15.8984V18.2021C70.25 18.2946 70.273 18.3585 70.3184 18.3945C70.364 18.4304 70.4721 18.4482 70.6426 18.4482H74.9102C74.9893 18.4482 75.058 18.4714 75.1152 18.5176C75.1715 18.5637 75.2001 18.6232 75.2002 18.6943V20C75.2001 20.071 75.1713 20.1304 75.1152 20.1758C75.058 20.222 74.9893 20.2451 74.9102 20.2451H70.626C70.4779 20.2451 70.3781 20.2837 70.3271 20.3604C70.2763 20.4371 70.2501 20.5164 70.25 20.5986V22.2266C70.25 22.3291 70.2822 22.416 70.3447 22.4873C70.4074 22.5594 70.535 22.5947 70.7285 22.5947H76.1914C76.2704 22.5948 76.3417 22.6234 76.4043 22.6797C76.4669 22.7361 76.498 22.8055 76.498 22.8877V24.1777C76.498 24.2488 76.4699 24.3129 76.4131 24.3691C76.3559 24.4255 76.2822 24.454 76.1914 24.4541H68.4238C68.344 24.454 68.2736 24.4255 68.2109 24.3691L68.209 24.3711C68.1465 24.3147 68.1152 24.2507 68.1152 24.1787V14.0547C68.1153 13.9734 68.1465 13.9062 68.209 13.8545C68.2717 13.8036 68.343 13.7783 68.4229 13.7783H76.0703ZM123.571 13.7783C123.662 13.7783 123.736 13.8037 123.793 13.8545C123.849 13.9062 123.879 13.9725 123.879 14.0547V15.3447C123.879 15.4168 123.85 15.4807 123.793 15.5371C123.736 15.5934 123.662 15.6211 123.571 15.6211H118.058C117.978 15.6212 117.907 15.6474 117.845 15.6982C117.782 15.7499 117.751 15.8163 117.751 15.8984V18.2021C117.751 18.2944 117.773 18.3584 117.818 18.3945C117.864 18.4306 117.973 18.4482 118.144 18.4482H122.411C122.49 18.4482 122.559 18.4714 122.616 18.5176C122.672 18.5637 122.701 18.6232 122.701 18.6943V20C122.701 20.071 122.672 20.1304 122.616 20.1758C122.559 20.222 122.49 20.2451 122.411 20.2451H118.127C117.979 20.2451 117.879 20.2837 117.828 20.3604C117.777 20.4371 117.751 20.5164 117.751 20.5986V22.2266C117.751 22.3291 117.783 22.416 117.846 22.4873C117.908 22.5594 118.036 22.5947 118.229 22.5947H123.692C123.771 22.5948 123.843 22.6234 123.905 22.6797C123.968 22.7361 123.999 22.8055 123.999 22.8877V24.1777C123.999 24.2488 123.971 24.3129 123.914 24.3691C123.857 24.4255 123.783 24.454 123.692 24.4541H115.925C115.845 24.454 115.775 24.4255 115.712 24.3691L115.71 24.3711C115.647 24.3147 115.616 24.2507 115.616 24.1787V14.0547C115.616 13.9733 115.647 13.9062 115.71 13.8545C115.773 13.8036 115.844 13.7783 115.924 13.7783H123.571ZM3.77344 13.7939C4.84247 13.794 5.83011 14.0331 6.73535 14.5088C7.63959 14.9852 8.35673 15.6324 8.88574 16.4512C9.41472 17.2701 9.67959 18.1617 9.67969 19.124C9.67969 20.0865 9.41474 20.9757 8.88574 21.79C8.3567 22.6043 7.63977 23.25 6.73535 23.7266C5.83092 24.203 4.84322 24.4404 3.77344 24.4404H0.496094C0.359788 24.4404 0.242858 24.3973 0.146484 24.3096H0.144531L0.0810547 24.2412C0.0268514 24.1693 3.43745e-05 24.0872 0 23.9951V14.1318C0.000138283 14.0396 0.0337051 13.96 0.102539 13.8936C0.170697 13.8271 0.256802 13.7939 0.359375 13.7939H3.77344ZM92.7197 15.5889C92.2191 15.5889 91.739 15.6713 91.2783 15.835C90.8175 15.9988 90.4045 16.2392 90.04 16.5566L89.75 16.833C89.4429 17.1707 89.2122 17.5345 89.0586 17.9238C88.905 18.3133 88.8282 18.7132 88.8281 19.123C88.8282 19.6345 88.9477 20.129 89.1865 20.6045C89.4256 21.081 89.7732 21.4839 90.2285 21.8115C90.9684 22.3648 91.8105 22.6406 92.7549 22.6406C93.3802 22.6406 93.9665 22.5177 94.5127 22.2725C94.9561 22.0476 95.3315 21.7753 95.6387 21.458V21.457C95.9459 21.1396 96.1683 20.8376 96.3047 20.5508C96.5318 20.0799 96.6464 19.5986 96.6465 19.1074C96.6464 18.4319 96.4421 17.7983 96.0322 17.209C95.6223 16.6205 95.0589 16.1823 94.3418 15.8955C93.8183 15.691 93.2769 15.5889 92.7197 15.5889ZM2.40723 15.7764C2.35007 15.7764 2.30089 15.7951 2.26172 15.8311C2.22207 15.867 2.20221 15.9105 2.20215 15.9619V22.46H3.77344V22.459C4.44463 22.4588 5.06415 22.3104 5.63281 22.0137C6.20182 21.7166 6.65478 21.3116 6.99023 20.7998C7.32549 20.2881 7.49314 19.7301 7.49316 19.126C7.49312 18.5219 7.32553 17.9636 6.99023 17.4512C6.65477 16.9394 6.20102 16.5312 5.63281 16.2295C5.06391 15.9279 4.44398 15.7764 3.77246 15.7764H2.40723ZM14.5117 15.6211C14.4099 15.6211 14.3125 15.6528 14.2217 15.7139C14.1309 15.7749 14.0794 15.8473 14.0684 15.9287L13.1289 19.0938L13.1113 19.1709C13.1114 19.2529 13.1403 19.3193 13.1973 19.3701C13.2545 19.4218 13.3338 19.4473 13.4365 19.4473H15.6846C15.7873 19.4473 15.8674 19.4218 15.9238 19.3701C15.9809 19.3193 16.0097 19.253 16.0098 19.1709L15.9922 19.0938L15.0527 15.9287C15.0417 15.8473 14.9902 15.7749 14.8994 15.7139C14.8086 15.6521 14.712 15.6211 14.6094 15.6211H14.5117ZM19.6602 13.7324C19.8761 13.7325 20.0014 13.7996 20.0352 13.9326C20.0806 14.0659 20.1517 14.2913 20.248 14.6084C20.3443 14.9254 20.4213 15.1917 20.4785 15.4062C20.4894 15.4367 20.496 15.4779 20.4961 15.5293C20.4961 15.6625 20.388 15.7294 20.1719 15.7295H18.7891C18.5273 15.7295 18.3678 15.6272 18.3105 15.4219H18.3115L17.9014 14.0859C17.8897 14.0554 17.8848 14.0144 17.8848 13.9629C17.8849 13.8096 17.9635 13.7325 18.123 13.7324H19.6602ZM123.216 0C123.648 0 124 0.351577 124 0.78418V10.2256C124 10.6583 123.648 11.0098 123.216 11.0098H95.7051C95.2726 11.0095 94.9219 10.6581 94.9219 10.2256V0.78418C94.922 0.351746 95.2727 0.000274262 95.7051 0H123.216ZM16.4229 0.00976562C17.379 -0.0411341 18.312 0.111582 19.2227 0.469727C19.7916 0.694663 20.3401 1.026 20.8691 1.46094C21.3981 1.89587 21.7824 2.32856 22.0215 2.75879C22.556 3.59897 22.8242 4.51054 22.8242 5.49414C22.8242 6.06764 22.7269 6.62812 22.5342 7.17578C22.3406 7.72354 22.056 8.23312 21.6807 8.7041C21.3962 9.063 21.0854 9.37728 20.75 9.64844C20.4146 9.91958 20.0017 10.1741 19.5127 10.4092C18.6364 10.8089 17.6914 11.0078 16.6787 11.0078C15.8142 11.0078 14.9885 10.8541 14.2031 10.5469C13.4181 10.2193 12.7441 9.77114 12.1807 9.20312C11.6178 8.63522 11.2059 8.00287 10.9443 7.30664L10.9102 7.22949C10.7057 6.67638 10.6026 6.10359 10.6025 5.50977C10.6026 4.8751 10.722 4.25004 10.9609 3.63574C11.2 3.02131 11.5581 2.46233 12.0361 1.95996C12.6616 1.35572 13.2968 0.892239 13.9395 0.569336C14.5821 0.246495 15.394 0.0607059 16.3721 0.00976562H16.4229ZM85.75 0.00976562C86.706 -0.0411686 87.6392 0.111702 88.5498 0.469727C89.1188 0.694665 89.6682 1.02597 90.1973 1.46094C90.7262 1.89586 91.1106 2.32857 91.3496 2.75879C91.8841 3.59896 92.1523 4.51056 92.1523 5.49414C92.1523 6.06762 92.055 6.62814 91.8623 7.17578C91.6688 7.72349 91.3841 8.23315 91.0088 8.7041C90.7244 9.06295 90.4135 9.37731 90.0781 9.64844C89.7427 9.91962 89.3289 10.174 88.8398 10.4092C87.9637 10.8088 87.0193 11.0078 86.0068 11.0078C85.1423 11.0078 84.3166 10.8541 83.5312 10.5469C82.7462 10.2193 82.0722 9.77114 81.5088 9.20312C80.9459 8.6352 80.5341 8.00291 80.2725 7.30664L80.2383 7.22949C80.0339 6.67636 79.9307 6.10362 79.9307 5.50977C79.9307 4.87507 80.0501 4.25007 80.2891 3.63574C80.5281 3.02131 80.8862 2.46233 81.3643 1.95996C81.9897 1.35577 82.6249 0.89222 83.2676 0.569336C83.9102 0.246583 84.7214 0.0607248 85.6992 0.00976562H85.75ZM36.999 0.119141C37.0779 0.119253 37.1494 0.147853 37.2119 0.204102C37.2743 0.260367 37.3055 0.329193 37.3057 0.411133V10.6133C37.3055 10.685 37.2768 10.7485 37.2207 10.8047C37.1636 10.861 37.0897 10.8896 36.999 10.8896H35.2236C35.1328 10.8896 35.0558 10.861 34.9932 10.8047C34.9307 10.7484 34.8986 10.6851 34.8984 10.6133V0.411133C34.8986 0.330017 34.9332 0.26035 35.001 0.204102C35.0691 0.147734 35.1437 0.119141 35.2236 0.119141H36.999ZM55.167 0.120117C55.2467 0.120176 55.3173 0.142428 55.3799 0.188477C55.4425 0.234667 55.4851 0.289536 55.5078 0.350586L58.5293 10.6895H58.5273C58.5391 10.7402 58.5266 10.7865 58.4932 10.8271C58.4595 10.8687 58.4137 10.8896 58.3564 10.8896H56.6846C56.6164 10.8896 56.5452 10.8666 56.4707 10.8203C56.3974 10.7749 56.3546 10.7164 56.3428 10.6445L55.5068 7.80176C55.484 7.70949 55.4267 7.63232 55.3359 7.57129C55.2451 7.5095 55.1485 7.47949 55.0459 7.47949H51.7393C51.6375 7.47949 51.54 7.50954 51.4492 7.57129C51.3577 7.63231 51.3011 7.7095 51.2783 7.80176L50.4414 10.6445C50.4304 10.7155 50.3877 10.7742 50.3145 10.8203C50.2408 10.8666 50.1688 10.8896 50.1006 10.8896H48.4277C48.3707 10.8895 48.3264 10.8678 48.292 10.8271C48.2585 10.7865 48.2461 10.7411 48.2578 10.6895L51.2793 0.350586C51.302 0.288761 51.3446 0.234665 51.4072 0.188477C51.4691 0.142292 51.5412 0.120117 51.6211 0.120117H55.167ZM25.7119 0.135742C25.8255 0.135742 25.9115 0.187302 25.9688 0.289062L28.5635 4.16016C28.5744 4.18052 28.6056 4.21222 28.6572 4.25293C28.7082 4.29366 28.7744 4.31445 28.8535 4.31445H28.8877C28.9668 4.31444 29.0274 4.29135 29.0674 4.24512C29.1071 4.19912 29.1318 4.16586 29.1436 4.14551L31.7217 0.304688C31.8008 0.191929 31.8933 0.135742 31.9951 0.135742H33.6846C33.7635 0.135742 33.8323 0.163675 33.8887 0.219727C33.945 0.276075 33.9745 0.340912 33.9746 0.412109V10.5977C33.9746 10.6697 33.9458 10.7336 33.8887 10.79C33.8315 10.8463 33.7636 10.875 33.6846 10.875H32.0117C31.9209 10.875 31.8464 10.8495 31.79 10.7979C31.7329 10.7469 31.7051 10.6799 31.7051 10.5977V4.49902C31.705 4.39749 31.682 4.3459 31.6367 4.3457C31.5913 4.3457 31.5388 4.38656 31.4824 4.46875L29.6904 6.75684C29.5878 6.89002 29.4994 6.97777 29.4258 7.01855C29.3513 7.05918 29.2235 7.08008 29.042 7.08008H28.752C28.5359 7.08008 28.3878 7.06467 28.3086 7.03418C28.2287 7.0036 28.1493 6.93663 28.0693 6.83398L26.2256 4.4834C26.1576 4.39116 26.1067 4.34484 26.0723 4.34473C26.0268 4.34473 26.0039 4.39107 26.0039 4.4834V10.5977C26.0039 10.6696 25.976 10.7337 25.9189 10.79C25.8617 10.8465 25.7872 10.875 25.6963 10.875H24.041C23.9613 10.8749 23.8933 10.8463 23.8369 10.79H23.835C23.7778 10.7336 23.75 10.6697 23.75 10.5977V0.412109C23.7501 0.340912 23.7778 0.276075 23.835 0.219727C23.8913 0.163465 23.961 0.135742 24.04 0.135742H25.7119ZM40.2275 0.151367C40.3072 0.151482 40.3753 0.182426 40.4316 0.244141L44.5625 6.43457C44.665 6.60829 44.7502 6.696 44.8184 6.69629C44.8748 6.69629 44.9043 6.60858 44.9043 6.43457L44.8867 0.443359C44.8868 0.362253 44.9182 0.293353 44.9805 0.236328C45.0431 0.179967 45.1144 0.151367 45.1943 0.151367H47.0029C47.0938 0.151367 47.1707 0.179967 47.2334 0.236328C47.2959 0.292644 47.328 0.361302 47.3281 0.443359V10.583C47.3281 10.6653 47.296 10.7323 47.2334 10.7832C47.1707 10.8348 47.0937 10.8594 47.0029 10.8594H45.3984C45.3076 10.8593 45.2168 10.8086 45.126 10.7061L45.127 10.7051C44.6833 10.0804 43.9573 9.06675 42.9502 7.66309C41.9433 6.26043 41.1837 5.18986 40.6719 4.45312C40.6038 4.38191 40.5579 4.34573 40.5352 4.3457C40.5125 4.3457 40.4987 4.36587 40.4932 4.40625C40.4877 4.44684 40.4844 4.47864 40.4844 4.49902L40.5176 6.31152C40.5176 6.38274 40.4897 6.44754 40.4326 6.50391C40.3755 6.56028 40.3017 6.5888 40.2109 6.58887H38.5547C38.4638 6.58887 38.3869 6.56341 38.3242 6.51172C38.2616 6.46078 38.2295 6.39377 38.2295 6.31152V0.443359C38.2296 0.362085 38.2617 0.293423 38.3242 0.236328C38.3869 0.179967 38.4638 0.151367 38.5547 0.151367H40.2275ZM61.4551 0.149414C61.5342 0.149414 61.5973 0.185648 61.6436 0.256836L65.6885 6.41797C65.8139 6.62252 65.9161 6.72461 65.9961 6.72461C66.0868 6.72446 66.1318 6.6122 66.1318 6.3877L66.0986 0.365234C66.0987 0.304206 66.1249 0.252617 66.1758 0.211914C66.2266 0.171322 66.2858 0.149498 66.3545 0.149414H68.1475C68.2156 0.149414 68.2754 0.170437 68.3271 0.211914C68.3778 0.252583 68.4033 0.304317 68.4033 0.365234V10.6436C68.4033 10.7045 68.3779 10.7562 68.3271 10.7969C68.2762 10.8376 68.2157 10.8594 68.1475 10.8594H66.9355C66.7313 10.8594 66.589 10.843 66.5098 10.8125C66.4298 10.7819 66.3438 10.6996 66.2529 10.5664L61.9512 4.40527C61.8833 4.31338 61.8207 4.26777 61.7637 4.26758C61.6728 4.26758 61.627 4.34003 61.627 4.48242L61.6611 10.6436C61.6611 10.7044 61.6356 10.7562 61.585 10.7969C61.534 10.8376 61.4791 10.8594 61.4219 10.8594H59.7148C59.6469 10.8593 59.5877 10.8382 59.5361 10.7969H59.5352C59.4843 10.7562 59.4581 10.7046 59.458 10.6436V0.365234C59.4581 0.304217 59.4843 0.252614 59.5352 0.211914C59.5861 0.171218 59.6467 0.149414 59.7148 0.149414H61.4551ZM3.77344 0.181641C4.84242 0.181661 5.83014 0.41983 6.73535 0.895508C7.63974 1.37199 8.35669 2.01996 8.88574 2.83887C9.41477 3.65789 9.67964 4.54929 9.67969 5.51172C9.67969 6.47418 9.41474 7.3634 8.88574 8.17773C8.35673 8.99189 7.63965 9.6368 6.73535 10.1133C5.83086 10.5898 4.8433 10.8271 3.77344 10.8271H0.496094C0.359737 10.8271 0.242879 10.7841 0.146484 10.6963H0.144531V10.6973C0.0477805 10.6105 0.000115557 10.5055 0 10.3828V0.519531C7.29989e-05 0.427191 0.0336695 0.347793 0.102539 0.28125C0.170711 0.214707 0.256757 0.181641 0.359375 0.181641H3.77344ZM73.1006 0.181641C74.1696 0.181664 75.1573 0.419827 76.0625 0.895508C76.9669 1.372 77.6838 2.01995 78.2129 2.83887C78.7419 3.65789 79.0068 4.54929 79.0068 5.51172C79.0068 6.47418 78.7419 7.3634 78.2129 8.17773C77.6839 8.99189 76.9668 9.6368 76.0625 10.1133C75.158 10.5898 74.1704 10.8271 73.1006 10.8271H69.8232C69.6869 10.8271 69.57 10.7841 69.4736 10.6963H69.4717V10.6973C69.3749 10.6104 69.3273 10.5055 69.3271 10.3828V0.519531C69.3272 0.427186 69.3608 0.347795 69.4297 0.28125C69.4979 0.214707 69.5839 0.181641 69.6865 0.181641H73.1006ZM113.074 6.35254C112.528 6.35257 111.956 6.68122 111.956 7.50879C111.956 8.22563 112.388 8.56282 112.857 8.63965L112.592 8.92969L112.758 9.13379C112.877 9.05701 113.036 9.10086 113.036 9.22852C113.036 9.3433 112.908 9.39035 112.75 9.38184V9.68848C113.096 9.68841 113.462 9.59048 113.462 9.23633C113.462 9.00622 113.308 8.83509 113.091 8.83496H113.061L113.257 8.64355C113.62 8.59651 114.029 8.38271 114.089 7.74707H113.525C113.47 8.01122 113.316 8.13477 113.068 8.13477C112.715 8.1342 112.544 7.87522 112.544 7.50879C112.544 7.14227 112.715 6.87313 113.069 6.87305C113.308 6.87305 113.471 6.98419 113.526 7.25293H114.09C114.008 6.50614 113.462 6.35256 113.074 6.35254ZM16.6973 1.97656C16.1965 1.97656 15.7157 2.05892 15.2549 2.22266C14.7941 2.38646 14.381 2.62694 14.0166 2.94434L13.7266 3.22168C13.4196 3.5593 13.1897 3.92322 13.0361 4.3125C12.8826 4.70192 12.8057 5.10096 12.8057 5.51074C12.8057 6.02246 12.9241 6.51748 13.1631 6.99316C13.4021 7.46885 13.7498 7.87162 14.2051 8.19922C14.945 8.75259 15.7869 9.02832 16.7314 9.02832C17.3569 9.02831 17.943 8.90545 18.4893 8.66016C18.9329 8.43521 19.309 8.16313 19.6162 7.8457V7.84473C19.9231 7.5276 20.1449 7.22607 20.2812 6.93945C20.5085 6.46844 20.623 5.9865 20.623 5.49512C20.623 4.81967 20.4186 4.18693 20.0088 3.59766C19.5989 3.00909 19.0355 2.57103 18.3184 2.28418C17.795 2.07971 17.2543 1.97661 16.6973 1.97656ZM86.0244 1.97656C85.5239 1.9766 85.0436 2.059 84.583 2.22266C84.1222 2.38644 83.7092 2.62698 83.3447 2.94434L83.0547 3.22168C82.7476 3.55937 82.5169 3.92312 82.3633 4.3125C82.2097 4.70188 82.1329 5.101 82.1328 5.51074C82.1328 6.02249 82.2522 6.51746 82.4912 6.99316C82.7303 7.46968 83.0779 7.8716 83.5332 8.19922C84.2731 8.75259 85.1151 9.02832 86.0596 9.02832C86.6849 9.02828 87.2711 8.90545 87.8174 8.66016C88.2609 8.43523 88.6362 8.16308 88.9434 7.8457V7.84473C89.2504 7.52743 89.473 7.22621 89.6094 6.93945C89.8366 6.46844 89.9512 5.9865 89.9512 5.49512C89.9511 4.81971 89.7467 4.1869 89.3369 3.59766C88.927 3.00911 88.3636 2.57103 87.6465 2.28418C87.1229 2.07963 86.5817 1.97656 86.0244 1.97656ZM2.40723 2.16406C2.35007 2.16406 2.30089 2.18179 2.26172 2.21777C2.22193 2.25368 2.20231 2.2972 2.20215 2.34863V8.84766H3.77344V8.8457C4.44474 8.84557 5.06407 8.69726 5.63281 8.40039C6.20182 8.10333 6.65478 7.6993 6.99023 7.1875C7.32552 6.67585 7.49309 6.11775 7.49316 5.51367C7.49312 4.90944 7.32566 4.35044 6.99023 3.83789C6.65478 3.32623 6.20094 2.91888 5.63281 2.61719C5.06388 2.31557 4.44402 2.16406 3.77246 2.16406H2.40723ZM71.7344 2.16406C71.6772 2.16406 71.628 2.18179 71.5889 2.21777C71.5491 2.25368 71.5295 2.29719 71.5293 2.34863V8.84766H73.1006V8.8457C73.7719 8.84556 74.3912 8.69726 74.96 8.40039C75.529 8.10333 75.9819 7.6993 76.3174 7.1875C76.6527 6.67585 76.8202 6.11774 76.8203 5.51367C76.8203 4.90944 76.6528 4.35044 76.3174 3.83789C75.9819 3.32623 75.5281 2.91889 74.96 2.61719C74.391 2.31557 73.7712 2.16406 73.0996 2.16406H71.7344ZM99.1602 6.35156C98.4693 6.35168 98.1797 6.59935 98.1797 7.03418V7.13672H98.7637V7.09473C98.7637 6.86443 98.9526 6.79982 99.1445 6.7998C99.3363 6.7999 99.4902 6.86377 99.4902 7.09863V7.12793C99.4902 7.25099 99.4253 7.28564 99.2207 7.31543L98.8457 7.37109C98.4617 7.42674 98.0606 7.53389 98.0605 8.02441C98.0607 8.48106 98.4097 8.65618 98.7725 8.65625C99.2592 8.65625 99.4383 8.33984 99.4814 8.2207H99.5068V8.61328H100.101L100.1 8.6123V7.07227C100.099 6.5905 99.8513 6.35156 99.1602 6.35156ZM101.316 6.35156C100.758 6.35178 100.203 6.69771 100.203 7.50391C100.203 8.31002 100.758 8.65603 101.316 8.65625C101.875 8.65625 102.431 8.31027 102.431 7.50391C102.431 6.69746 101.875 6.35156 101.316 6.35156ZM104.315 6.35156C103.624 6.35166 103.334 6.59933 103.334 7.03418V7.13672H103.919V7.09473C103.919 6.86461 104.107 6.79992 104.299 6.7998C104.491 6.7998 104.644 6.8636 104.645 7.09863V7.12793C104.645 7.25099 104.581 7.28564 104.376 7.31543L104.001 7.37109C103.617 7.42674 103.215 7.53389 103.215 8.02441C103.215 8.48111 103.565 8.65622 103.928 8.65625C104.414 8.65625 104.594 8.33984 104.637 8.2207H104.662V8.61328H105.256L105.255 8.6123V7.07227C105.255 6.5905 105.007 6.35156 104.315 6.35156ZM108.519 6.35156C107.827 6.35159 107.537 6.59927 107.537 7.03418V7.13672H108.122V7.09473C108.122 6.8645 108.31 6.79986 108.502 6.7998C108.694 6.7998 108.848 6.8636 108.848 7.09863V7.12793C108.848 7.25095 108.784 7.28565 108.579 7.31543L108.203 7.37109C107.819 7.42676 107.418 7.53403 107.418 8.02441C107.418 8.48111 107.768 8.65622 108.131 8.65625C108.617 8.65613 108.797 8.33982 108.839 8.2207H108.865V8.61328H109.458V7.07227C109.458 6.5905 109.21 6.35156 108.519 6.35156ZM115.219 6.35156C114.528 6.35158 114.237 6.59927 114.237 7.03418V7.13672H114.822V7.09473C114.822 6.86445 115.01 6.79983 115.202 6.7998C115.394 6.7998 115.548 6.8636 115.548 7.09863V7.12793C115.548 7.25093 115.484 7.28565 115.279 7.31543L114.903 7.37109C114.519 7.42675 114.118 7.53398 114.118 8.02441C114.118 8.48111 114.468 8.65622 114.831 8.65625C115.318 8.65608 115.496 8.33981 115.539 8.2207H115.565V8.61328H116.158L116.157 8.6123V7.07227C116.157 6.59053 115.91 6.35159 115.219 6.35156ZM117.887 6.71484C117.805 6.52297 117.562 6.35254 117.233 6.35254C116.769 6.3528 116.261 6.69013 116.261 7.50488C116.261 8.31942 116.769 8.65599 117.233 8.65625C117.562 8.65625 117.805 8.4859 117.887 8.29395V8.61328H118.51V5.62695H117.887V6.71484ZM119.747 6.35156C119.188 6.35179 118.634 6.69773 118.634 7.50391C118.634 8.31 119.188 8.65602 119.747 8.65625C120.306 8.65625 120.861 8.31027 120.861 7.50391C120.861 6.69746 120.306 6.35156 119.747 6.35156ZM106.015 8.61328H106.801L107.607 6.39453H106.976L106.42 8.0166H106.399L105.844 6.39453H105.209L106.015 8.61328ZM111.067 6.35156C110.611 6.35167 110.398 6.65014 110.359 6.85938H110.333V6.39453H109.71V8.61328H110.333V7.35449C110.333 7.01778 110.538 6.86822 110.798 6.86816C111.058 6.86816 111.208 7.01771 111.208 7.35449V8.61328H111.831V7.20508C111.831 6.62907 111.498 6.35156 111.067 6.35156ZM99.4893 7.84082C99.4891 8.01626 99.2807 8.21174 98.9863 8.21191C98.7732 8.21189 98.6836 8.10902 98.6836 7.97266C98.6838 7.85779 98.7472 7.7642 98.9385 7.73438L99.25 7.67871C99.348 7.66147 99.4556 7.64372 99.4893 7.59277V7.84082ZM104.646 7.84082C104.645 8.01634 104.436 8.21191 104.142 8.21191C103.928 8.21178 103.839 8.10895 103.839 7.97266C103.839 7.85774 103.903 7.76416 104.095 7.73438L104.406 7.67871C104.504 7.66147 104.612 7.6437 104.646 7.59277V7.84082ZM108.848 7.84082C108.847 8.01634 108.639 8.21191 108.345 8.21191C108.131 8.21188 108.041 8.10902 108.041 7.97266C108.041 7.85769 108.106 7.76412 108.298 7.73438L108.609 7.67871C108.707 7.6615 108.813 7.64362 108.848 7.59277V7.84082ZM115.548 7.84082C115.548 8.01632 115.339 8.21187 115.045 8.21191C114.832 8.21189 114.742 8.10902 114.742 7.97266C114.742 7.85769 114.806 7.76412 114.998 7.73438L115.31 7.67871H115.309C115.407 7.66147 115.514 7.64372 115.548 7.59277V7.84082ZM101.317 6.86816C101.616 6.86832 101.846 7.06446 101.846 7.50391C101.846 7.9432 101.616 8.13949 101.317 8.13965C101.019 8.13961 100.788 7.94333 100.788 7.50391C100.788 7.06432 101.019 6.8682 101.317 6.86816ZM117.384 6.86816C117.657 6.86818 117.913 7.069 117.913 7.50391C117.913 7.93866 117.661 8.13963 117.384 8.13965C117.106 8.13961 116.85 7.93863 116.85 7.50391C116.85 7.06903 117.106 6.8682 117.384 6.86816ZM119.748 6.86816C120.046 6.86831 120.276 7.06444 120.276 7.50391C120.276 7.94322 120.046 8.13951 119.748 8.13965C119.45 8.13961 119.219 7.94333 119.219 7.50391C119.219 7.06432 119.449 6.8682 119.748 6.86816ZM53.3447 2.00977C53.2429 2.00977 53.1456 2.04148 53.0547 2.10254C52.964 2.16351 52.9116 2.23516 52.9004 2.31641L51.9619 5.48145L51.9443 5.55859C51.9443 5.64084 51.9731 5.70785 52.0303 5.75879C52.0874 5.81027 52.1662 5.8349 52.2686 5.83496H54.5176C54.6202 5.83496 54.7004 5.8105 54.7568 5.75879C54.814 5.70785 54.8418 5.64084 54.8418 5.55859L54.8252 5.48145L53.8857 2.31641C53.8746 2.23527 53.8229 2.16345 53.7324 2.10254C53.6416 2.04069 53.545 2.00979 53.4424 2.00977H53.3447ZM112.254 3.08105C111.708 3.08109 111.136 3.40987 111.136 4.2373C111.136 5.06497 111.708 5.38473 112.254 5.38477C112.647 5.38464 113.201 5.22229 113.27 4.47559H112.706C112.65 4.73957 112.497 4.86313 112.25 4.86328C111.896 4.86324 111.725 4.60313 111.725 4.23633C111.725 3.86979 111.896 3.60063 112.25 3.60059C112.489 3.60073 112.65 3.71191 112.706 3.98047H113.27C113.188 3.2339 112.642 3.08019 112.254 3.08008V3.08105ZM101.885 3.08008C101.326 3.08011 100.771 3.42601 100.771 4.23242C100.771 5.03862 101.326 5.38375 101.885 5.38379C102.443 5.38361 102.998 5.03846 102.998 4.23242C102.998 3.42618 102.443 3.08026 101.885 3.08008ZM103.89 5.34082H104.514V5.02148C104.595 5.21335 104.838 5.3837 105.166 5.38379C105.631 5.38379 106.138 5.04728 106.139 4.23242C106.139 3.41735 105.631 3.08008 105.166 3.08008C104.838 3.08016 104.595 3.2506 104.514 3.44238V2.35449H103.89V5.34082ZM107.256 3.08008C106.565 3.0801 106.274 3.32778 106.274 3.7627V3.86523H106.859V3.82324C106.859 3.593 107.039 3.52837 107.239 3.52832L107.238 3.52734C107.43 3.52734 107.584 3.59114 107.584 3.82617V3.85547C107.584 3.97852 107.52 4.01319 107.315 4.04297L106.94 4.09863C106.556 4.15428 106.154 4.26143 106.154 4.75195C106.154 5.20867 106.504 5.38376 106.867 5.38379C107.354 5.38374 107.533 5.06737 107.575 4.94824H107.602V5.34082H108.195V3.80078C108.195 3.31891 107.947 3.08008 107.256 3.08008ZM109.301 3.08008C108.763 3.08012 108.392 3.32781 108.392 3.75879C108.392 4.0526 108.558 4.30064 109.023 4.40723L109.434 4.49219H109.433C109.577 4.52197 109.645 4.5859 109.646 4.68848C109.645 4.84582 109.505 4.91895 109.296 4.91895C109.053 4.91886 108.912 4.82052 108.891 4.61133H108.332C108.336 5.12308 108.699 5.3837 109.292 5.38379C109.83 5.38379 110.287 5.16939 110.287 4.6748C110.287 4.28225 109.996 4.11977 109.646 4.04297L109.228 3.9541C109.079 3.92427 108.997 3.85143 108.997 3.74023C108.997 3.62136 109.097 3.54494 109.31 3.54492C109.523 3.54495 109.667 3.6262 109.693 3.84766H110.214C110.205 3.36977 109.894 3.08008 109.301 3.08008ZM114.392 3.08008C113.833 3.08016 113.278 3.42607 113.278 4.23242C113.279 5.03857 113.833 5.3837 114.392 5.38379C114.95 5.38379 115.506 5.03866 115.506 4.23242C115.506 3.42597 114.95 3.08008 114.392 3.08008ZM98.167 5.3418H99.2979C100.228 5.34175 100.71 4.80779 100.71 3.84766C100.71 2.88778 100.228 2.35454 99.2979 2.35449H98.167V5.3418ZM110.389 5.3418H111.012V3.12305H110.389V5.3418ZM107.585 4.56934C107.585 4.7448 107.377 4.94042 107.082 4.94043C106.868 4.9404 106.778 4.83754 106.778 4.70117C106.778 4.58612 106.843 4.49168 107.035 4.46191L107.346 4.40625C107.444 4.38902 107.55 4.37211 107.585 4.32129V4.56934ZM101.885 3.59668C102.183 3.59678 102.414 3.79226 102.414 4.23145C102.414 4.67105 102.183 4.86708 101.885 4.86719C101.586 4.86715 101.355 4.67113 101.355 4.23145C101.356 3.79218 101.586 3.59672 101.885 3.59668ZM105.017 3.59668C105.294 3.59668 105.551 3.79684 105.551 4.23145C105.551 4.66646 105.294 4.86719 105.017 4.86719C104.744 4.86712 104.487 4.66639 104.487 4.23145C104.488 3.79691 104.739 3.59675 105.017 3.59668ZM114.392 3.59668C114.69 3.59668 114.921 3.79214 114.921 4.23145C114.921 4.67117 114.69 4.86719 114.392 4.86719C114.093 4.86703 113.863 4.67099 113.863 4.23145C113.863 3.79232 114.093 3.59684 114.392 3.59668ZM99.2334 2.90918C99.8436 2.90918 100.056 3.19074 100.057 3.84668C100.057 4.5043 99.844 4.78613 99.2334 4.78613H98.8076V2.90918H99.2334ZM106.983 2.86621H107.521L107.974 2.26953H107.433L106.983 2.86621ZM110.701 2.1748C110.522 2.17485 110.36 2.32954 110.359 2.52051C110.359 2.71173 110.522 2.86226 110.701 2.8623C110.88 2.86206 111.042 2.7163 111.042 2.52051C111.042 2.32499 110.88 2.17506 110.701 2.1748Z" fill="#FFF9DF"/>
</svg>
