<svg width="190" height="113" viewBox="0 0 190 113" fill="none" xmlns="http://www.w3.org/2000/svg">
<path fill-rule="evenodd" clip-rule="evenodd" d="M45.8545 0.560993C50.9733 2.36393 53.6601 7.9773 51.8574 13.0961L19.1006 106.128C17.2976 111.247 11.6834 113.934 6.56445 112.131C1.46672 110.335 -1.24849 104.728 0.561523 99.5952L33.3184 6.56295C35.1214 1.44419 40.7356 -1.24192 45.8545 0.560993ZM104.828 102.862C104.828 108.44 100.184 112.93 94.5557 112.683C89.253 112.45 85.173 107.868 85.1729 102.558V9.83736C85.1729 4.25884 89.8183 -0.231391 95.4463 0.0160716C100.749 0.249449 104.828 4.83126 104.828 10.1411V102.862ZM189.439 99.5952C191.242 104.714 188.555 110.328 183.437 112.131C178.318 113.934 172.704 111.247 170.901 106.128L138.145 13.0961V13.104C136.335 7.97808 139.028 2.37093 144.146 0.567829C149.265 -1.23512 154.88 1.45181 156.683 6.57076L189.439 99.5952Z" fill="url(#paint0_linear_59_182)"/>
<defs>
<linearGradient id="paint0_linear_59_182" x1="195" y1="20.6783" x2="43.8164" y2="148.543" gradientUnits="userSpaceOnUse">
<stop stop-color="#30AFE5"/>
<stop offset="1" stop-color="#6DD3FF"/>
</linearGradient>
</defs>
</svg>
