<svg width="75" height="75" viewBox="0 0 75 75" fill="none" xmlns="http://www.w3.org/2000/svg">
<circle cx="37.5" cy="37.5" r="37.5" fill="url(#paint0_linear_2003_20)"/>
<path d="M50.6458 37.125C49.6678 37.125 48.7299 36.7365 48.0384 36.045C47.3468 35.3534 46.9583 34.4155 46.9583 33.4375C46.9583 32.4595 47.3468 31.5216 48.0384 30.83C48.7299 30.1385 49.6678 29.75 50.6458 29.75C51.6238 29.75 52.5617 30.1385 53.2533 30.83C53.9448 31.5216 54.3333 32.4595 54.3333 33.4375C54.3333 34.4155 53.9448 35.3534 53.2533 36.045C52.5617 36.7365 51.6238 37.125 50.6458 37.125ZM43.2708 27.2917C42.2928 27.2917 41.3549 26.9032 40.6634 26.2116C39.9718 25.5201 39.5833 24.5822 39.5833 23.6042C39.5833 22.6262 39.9718 21.6883 40.6634 20.9967C41.3549 20.3052 42.2928 19.9167 43.2708 19.9167C44.2488 19.9167 45.1867 20.3052 45.8783 20.9967C46.5698 21.6883 46.9583 22.6262 46.9583 23.6042C46.9583 24.5822 46.5698 25.5201 45.8783 26.2116C45.1867 26.9032 44.2488 27.2917 43.2708 27.2917ZM30.9792 27.2917C30.0012 27.2917 29.0632 26.9032 28.3717 26.2116C27.6802 25.5201 27.2917 24.5822 27.2917 23.6042C27.2917 22.6262 27.6802 21.6883 28.3717 20.9967C29.0632 20.3052 30.0012 19.9167 30.9792 19.9167C31.9572 19.9167 32.8951 20.3052 33.5866 20.9967C34.2782 21.6883 34.6667 22.6262 34.6667 23.6042C34.6667 24.5822 34.2782 25.5201 33.5866 26.2116C32.8951 26.9032 31.9572 27.2917 30.9792 27.2917ZM23.6042 37.125C22.6262 37.125 21.6883 36.7365 20.9967 36.045C20.3052 35.3534 19.9167 34.4155 19.9167 33.4375C19.9167 32.4595 20.3052 31.5216 20.9967 30.83C21.6883 30.1385 22.6262 29.75 23.6042 29.75C24.5822 29.75 25.5201 30.1385 26.2116 30.83C26.9032 31.5216 27.2917 32.4595 27.2917 33.4375C27.2917 34.4155 26.9032 35.3534 26.2116 36.045C25.5201 36.7365 24.5822 37.125 23.6042 37.125ZM37.125 15C31.2571 15 25.6295 17.331 21.4803 21.4803C17.331 25.6295 15 31.2571 15 37.125C15 42.9929 17.331 48.6205 21.4803 52.7697C25.6295 56.919 31.2571 59.25 37.125 59.25C38.103 59.25 39.0409 58.8615 39.7325 58.17C40.424 57.4784 40.8125 56.5405 40.8125 55.5625C40.8125 54.6037 40.4437 53.7433 39.8537 53.1042C39.2883 52.4404 38.9196 51.58 38.9196 50.6458C38.9196 49.6678 39.3081 48.7299 39.9996 48.0384C40.6912 47.3468 41.6291 46.9583 42.6071 46.9583H46.9583C50.2183 46.9583 53.3447 45.6633 55.6499 43.3582C57.955 41.0531 59.25 37.9266 59.25 34.6667C59.25 23.8008 49.3429 15 37.125 15Z" fill="white"/>
<defs>
<linearGradient id="paint0_linear_2003_20" x1="0" y1="37.5" x2="75" y2="37.5" gradientUnits="userSpaceOnUse">
<stop stop-color="#F15025"/>
<stop offset="1" stop-color="#FF8630"/>
</linearGradient>
</defs>
</svg>
