<svg width="8" height="8" viewBox="0 0 8 8" fill="none" xmlns="http://www.w3.org/2000/svg">
<path d="M3.6089 4.50841C3.17967 4.33357 2.43905 4.19767 1.97637 4.17576C1.26203 4.14169 0.665162 4.31044 0.263399 4.9445C-0.436203 6.04832 0.339451 7.53347 1.62955 7.5428C2.7787 7.55132 3.23461 6.5546 3.54838 5.59357C3.61726 5.38262 3.74548 4.99927 3.76738 4.78913C3.7845 4.62605 3.75703 4.56885 3.6089 4.50841ZM4.18985 4.06907C4.32085 3.95589 4.48291 3.77131 4.60196 3.63906C4.93962 3.26463 5.31669 2.79527 5.51698 2.32835C6.02625 1.14096 5.08814 -0.0926731 3.84821 0.00549844C2.8651 0.0833866 2.13046 1.11743 2.39605 2.09185C2.55572 2.67804 3.06579 3.31493 3.48149 3.74332C3.57147 3.83581 3.8287 4.10234 3.93103 4.14493C4.03894 4.18996 4.11021 4.13803 4.18985 4.06907ZM7.73643 4.9441C7.33467 4.31004 6.7374 4.14128 6.02346 4.17536C5.56078 4.19767 4.82016 4.33357 4.39093 4.508C4.2428 4.56845 4.21533 4.62565 4.23245 4.78873C4.25435 4.99886 4.38257 5.38222 4.45145 5.59316C4.76522 6.55419 5.22113 7.55092 6.37028 7.5424C7.66038 7.53307 8.43643 6.04751 7.73643 4.9441Z" fill="#F15025"/>
</svg>
