<svg width="152" height="152" viewBox="0 0 152 152" fill="none" xmlns="http://www.w3.org/2000/svg">
<path d="M95 120.333C96.6797 120.333 98.2906 121.001 99.4784 122.188C100.666 123.376 101.333 124.987 101.333 126.667C101.333 128.346 100.666 129.957 99.4784 131.145C98.2906 132.333 96.6797 133 95 133H57C55.3203 133 53.7094 132.333 52.5217 131.145C51.3339 129.957 50.6667 128.346 50.6667 126.667C50.6667 124.987 51.3339 123.376 52.5217 122.188C53.7094 121.001 55.3203 120.333 57 120.333H95Z" fill="#191919"/>
<path fill-rule="evenodd" clip-rule="evenodd" d="M125.242 19.0317C130.753 19.3157 135.945 21.7049 139.746 25.706C143.546 29.7071 145.666 35.0148 145.667 40.5333V92.4667C145.667 98.1777 143.398 103.655 139.36 107.693C135.321 111.731 129.844 114 124.133 114H27.8666C22.1557 114 16.6786 111.731 12.6403 107.693C8.602 103.655 6.33331 98.1777 6.33331 92.4667V40.5333C6.33331 34.8223 8.602 29.3453 12.6403 25.307C16.6786 21.2687 22.1557 19 27.8666 19H124.133L125.242 19.0317ZM66.1643 44.9983C65.1985 44.5157 64.1253 44.288 63.0468 44.3369C61.9682 44.3857 60.92 44.7095 60.0018 45.2774C59.0836 45.8454 58.3258 46.6386 57.8004 47.5819C57.275 48.5251 56.9995 49.587 57 50.6667V82.3333C56.9995 83.413 57.275 84.4749 57.8004 85.4181C58.3258 86.3614 59.0836 87.1546 60.0018 87.7226C60.92 88.2905 61.9682 88.6143 63.0468 88.6631C64.1253 88.712 65.1985 88.4843 66.1643 88.0017L97.831 72.1683C98.8849 71.6431 99.7715 70.8344 100.391 69.8331C101.011 68.8318 101.339 67.6776 101.339 66.5C101.339 65.3224 101.011 64.1682 100.391 63.1669C99.7715 62.1656 98.8849 61.3569 97.831 60.8317L66.1643 44.9983Z" fill="#191919"/>
<path d="M67.5 50.5L67.5 82.5L96 66.5L67.5 50.5Z" fill="#FFF9DF"/>
</svg>
