<svg width="22" height="22" viewBox="0 0 22 22" fill="none" xmlns="http://www.w3.org/2000/svg">
<path d="M19.5556 0C20.2039 0 20.8256 0.257539 21.284 0.715961C21.7425 1.17438 22 1.79614 22 2.44444V19.5556C22 20.2039 21.7425 20.8256 21.284 21.284C20.8256 21.7425 20.2039 22 19.5556 22H2.44444C1.79614 22 1.17438 21.7425 0.715961 21.284C0.257539 20.8256 0 20.2039 0 19.5556V2.44444C0 1.79614 0.257539 1.17438 0.715961 0.715961C1.17438 0.257539 1.79614 0 2.44444 0H19.5556ZM15.3756 17.1111L14.2144 12.1244L18.0767 8.78778L12.98 8.34778L11 3.66667L9.02 8.36L3.92333 8.8L7.78556 12.1367L6.62444 17.1111L11 14.4711L15.3756 17.1111Z" fill="url(#paint0_linear_50_34)"/>
<defs>
<linearGradient id="paint0_linear_50_34" x1="22.7794" y1="3.19894" x2="-1.21098" y2="15.2334" gradientUnits="userSpaceOnUse">
<stop stop-color="#30AFE5"/>
<stop offset="1" stop-color="#6DD3FF"/>
</linearGradient>
</defs>
</svg>
