<svg width="20" height="15" viewBox="0 0 20 15" fill="none" xmlns="http://www.w3.org/2000/svg">
<path d="M9.17586 0.432029C9.2676 0.298788 9.39036 0.189845 9.53355 0.114583C9.67675 0.0393209 9.83609 -2.86102e-06 9.99786 -2.86102e-06C10.1596 -2.86102e-06 10.319 0.0393209 10.4622 0.114583C10.6054 0.189845 10.7281 0.298788 10.8199 0.432029L19.8199 13.432C19.924 13.582 19.9851 13.7576 19.9965 13.9398C20.0079 14.122 19.9691 14.3039 19.8843 14.4656C19.7996 14.6274 19.6722 14.7628 19.5159 14.8572C19.3596 14.9516 19.1804 15.0013 18.9979 15.001H0.997861C0.815705 15.0003 0.6372 14.9499 0.481542 14.8553C0.325885 14.7606 0.198964 14.6254 0.11443 14.464C0.0298962 14.3027 -0.00905316 14.1213 0.0017708 13.9395C0.0125948 13.7577 0.0727825 13.5822 0.175861 13.432L9.17586 0.432029Z" fill="white"/>
</svg>
