<svg width="75" height="75" viewBox="0 0 75 75" fill="none" xmlns="http://www.w3.org/2000/svg">
<circle cx="37.5" cy="37.5" r="37.5" fill="url(#paint0_linear_2003_22)"/>
<path d="M46.7712 30.6392C47.6623 28.6295 47.8948 26.3893 47.4353 24.2395C46.9758 22.0896 45.8479 20.1402 44.213 18.6704C42.5782 17.2006 40.5202 16.2857 38.3337 16.0567C36.1472 15.8277 33.9444 16.2963 32.0405 17.3955C30.1366 18.4947 28.6292 20.1681 27.7343 22.1761C26.8393 24.1842 26.6026 26.4239 27.058 28.5746C27.5135 30.7254 28.6377 32.6769 30.2697 34.1498C31.9018 35.6227 33.9581 36.5415 36.1441 36.7746C37.3631 35.0415 38.945 33.5947 40.78 32.5352C42.6149 31.4756 44.6587 30.8286 46.7691 30.6392M39.6483 51.3059C40.5405 49.3828 41.0027 47.2883 41.0027 45.1684C41.0027 43.0484 40.5405 40.9539 39.6483 39.0309C40.9431 37.2542 42.7669 35.9328 44.8586 35.2558C46.9502 34.5788 49.2023 34.5809 51.2927 35.2619C53.383 35.9428 55.2043 37.2676 56.4959 39.0467C57.7874 40.8257 58.483 42.9678 58.483 45.1663C58.483 47.3647 57.7874 49.5068 56.4959 51.2859C55.2043 53.0649 53.383 54.3898 51.2927 55.0707C49.2023 55.7516 46.9502 55.7537 44.8586 55.0767C42.7669 54.3997 40.9431 53.0783 39.6483 51.3017M25.3149 34.8017C26.5337 36.5352 28.1156 37.9823 29.9505 39.0423C31.7855 40.1022 33.8293 40.7496 35.9399 40.9392C36.8307 42.9491 37.0628 45.1893 36.6028 47.3392C36.1429 49.489 35.0146 51.4382 33.3794 52.9077C31.7442 54.3772 29.686 55.2917 27.4994 55.5202C25.3128 55.7487 23.11 55.2795 21.2063 54.1799C19.3026 53.0802 17.7957 51.4064 16.9012 49.3981C16.0067 47.3899 15.7705 45.1501 16.2265 42.9994C16.6825 40.8487 17.8073 38.8975 19.4398 37.425C21.0723 35.9525 23.1288 35.0342 25.3149 34.8017Z" fill="white"/>
<defs>
<linearGradient id="paint0_linear_2003_22" x1="0" y1="37.5" x2="75" y2="37.5" gradientUnits="userSpaceOnUse">
<stop stop-color="#F15025"/>
<stop offset="1" stop-color="#FF8630"/>
</linearGradient>
</defs>
</svg>
